<?xml version="1.0" standalone="no"?>
<!DOCTYPE svg PUBLIC "-//W3C//DTD SVG 1.1//EN" "http://www.w3.org/Graphics/SVG/1.1/DTD/svg11.dtd" >
<svg>
<metadata>
Created by FontForge 20120731 at Sun Aug 21 18:06:54 2016
 By ,,,
Copyright (c) 2005-2009, Joshua Darden &#38; Phil's Fonts, Inc. All rights reserved. Published by Garagefonts USA 301-879-9222 www.garagefonts.com
</metadata>
<defs>
<font id="FreightBigPro-LightItalic" horiz-adv-x="433" >
  <font-face 
    font-family="Freight Big Pro"
    font-weight="300"
    font-style="italic"
    font-stretch="normal"
    units-per-em="1000"
    panose-1="2 0 6 3 9 0 0 9 0 4"
    ascent="800"
    descent="-200"
    x-height="437"
    cap-height="625"
    bbox="-238 -283 1184 974"
    underline-thickness="20"
    underline-position="-113"
    slope="-12"
    unicode-range="U+0020-FB04"
  />
<missing-glyph horiz-adv-x="500" 
 />
    <glyph glyph-name="ff" unicode="ff" horiz-adv-x="454" 
d="M372 548q-8 -2 -13 -2q-24 0 -30.5 21t19.5 48q-21 16 -42 16q-43 0 -72.5 -50t-52.5 -159h150q20 81 41 126zM395 592q9 14 22 27q40 43 101 43q32 0 55.5 -16.5t23.5 -39.5q0 -19 -11 -29.5t-26 -10.5q-24 0 -30.5 21t19.5 49q-21 16 -42 16q-47 0 -72 -46t-53 -184
l96 -1l-9 -27h-93l-54 -230q-51 -219 -114 -282q-31 -32 -78 -32q-36 0 -54.5 14t-18.5 36q0 19 11 29.5t26 10.5q24 0 30.5 -21t-19.5 -48q24 -11 34 -11q32 0 50.5 18t40 84.5t48.5 203.5q3 14 7.5 38t14 74t15.5 83l6 33h-146l-60 -260q-51 -219 -114 -282
q-31 -32 -78 -32q-36 0 -54.5 14t-18.5 36q0 19 11 29.5t26 10.5q24 0 30.5 -21t-19.5 -48q24 -11 34 -11q32 0 50.5 18t40 84.5t48.5 203.5l50 258l-74 1l9 26l74 1q30 118 83 171q48 49 104 49q30 0 52.5 -15t25.5 -35z" />
    <glyph glyph-name="fi" unicode="fi" horiz-adv-x="413" 
d="M-77 -180q-36 0 -54.5 14t-18.5 36q0 19 11 29.5t26 10.5q24 0 30.5 -21t-19.5 -48q24 -11 34 -11q32 0 50.5 18t40 84.5t48.5 203.5l50 258l-74 1l9 26l74 1q36 141 88 193q44 47 109 47q38 0 63.5 -20.5t25.5 -44.5q0 -19 -11 -29.5t-26 -10.5q-24 0 -29.5 21t21.5 48
q-19 26 -55 26q-50 0 -78.5 -45.5t-56.5 -184.5l134 -1q20 17 43 17q13 0 21.5 -20.5t8.5 -45.5q0 -12 -33.5 -98.5t-66.5 -166.5l-34 -80l50 -6l75 114l6 -3q-73 -144 -120 -144q-15 0 -35 14t-20 24q0 5 36 96.5t72 180.5l36 89l-1 2h-178l-60 -260q-51 -219 -114 -282
q-31 -32 -78 -32z" />
    <glyph glyph-name="fl" unicode="fl" horiz-adv-x="422" 
d="M411 630l53 33l-201 -636l48 -6l75 114l6 -3q-73 -144 -120 -144q-15 0 -34.5 14t-19.5 24q0 6 166 538q-21 6 -26 24.5t18 43.5q-20 20 -55 20q-51 0 -81.5 -46t-58.5 -183l97 -2l-9 -27h-94l-60 -260q-51 -219 -114 -283q-31 -32 -78 -32q-73 0 -73 51q0 19 11 29.5
t26 10.5q24 0 30.5 -21t-19.5 -49q24 -11 34 -11q32 0 50.5 18t40 84.5t48.5 204.5l50 258l-74 1l9 26l74 2q33 136 89 192q46 47 113 47q54 0 79 -32z" />
    <glyph glyph-name="ffi" unicode="ffi" horiz-adv-x="614" 
d="M396 587q9 14 23 28q44 47 109 47q38 0 63.5 -20.5t25.5 -44.5q0 -19 -11 -29.5t-26 -10.5q-24 0 -29.5 21t21.5 48q-19 26 -55 26q-50 0 -78.5 -45.5t-56.5 -184.5l135 -1q20 17 43 17q13 0 21.5 -20.5t8.5 -45.5q0 -12 -34 -98.5t-68 -166.5l-33 -80l50 -6l75 114l6 -3
q-73 -144 -120 -144q-15 0 -35 14t-20 24q0 5 36.5 96.5t72.5 180.5l36 89l-1 2h-179l-54 -230q-51 -219 -114 -282q-31 -32 -78 -32q-36 0 -54.5 14t-18.5 36q0 19 11 29.5t26 10.5q24 0 30.5 -21t-19.5 -48q24 -11 34 -11q32 0 50.5 18t40 84.5t48.5 203.5q3 14 7.5 38
t14 74t15.5 83l6 33h-146l-60 -260q-51 -219 -114 -282q-31 -32 -78 -32q-36 0 -54.5 14t-18.5 36q0 19 11 29.5t26 10.5q24 0 30.5 -21t-19.5 -48q24 -11 34 -11q32 0 50.5 18t40 84.5t48.5 203.5l50 258l-74 1l9 26l74 1q30 118 83 171q48 49 104 49q32 0 55 -16t24 -39z
M375 549q-7 -3 -16 -3q-24 0 -30.5 21t19.5 48q-21 16 -42 16q-43 0 -72.5 -50t-52.5 -159h150q21 81 44 127z" />
    <glyph glyph-name="ffl" unicode="ffl" horiz-adv-x="623" 
d="M375 551q-7 -4 -16 -4q-24 0 -30.5 21t19.5 48q-21 16 -42 16q-43 0 -72.5 -50t-52.5 -159h150q18 75 44 128zM611 631l53 32l-201 -636l48 -6l75 114l6 -3q-73 -144 -120 -144q-15 0 -34.5 14t-19.5 24q0 17 164 539q-20 8 -23.5 26t18.5 41q-20 20 -55 20
q-51 0 -81.5 -46t-58.5 -183l97 -2l-9 -27h-94l-54 -229q-51 -220 -114 -283q-30 -33 -78 -33q-36 0 -54.5 14.5t-18.5 36.5q0 19 11 29.5t26 10.5q24 0 30.5 -21t-19.5 -48q24 -11 34 -11q32 0 50.5 18t40 84.5t48.5 204.5q3 14 7.5 37.5t14 73.5t15.5 83l6 33h-146
l-60 -260q-51 -219 -114 -283q-31 -32 -78 -32q-73 0 -73 51q0 19 11 29.5t26 10.5q24 0 30.5 -21t-19.5 -49q24 -11 34 -11q32 0 50.5 18t40 84.5t48.5 204.5l50 258l-74 1l9 26l74 2q30 118 83 171q47 48 104 48q32 0 55.5 -16.5t23.5 -38.5v-1q13 18 24 29q46 47 113 47
q54 0 78 -31z" />
    <glyph glyph-name=".notdef" horiz-adv-x="500" 
 />
    <glyph glyph-name=".null" horiz-adv-x="0" 
 />
    <glyph glyph-name="nonmarkingreturn" horiz-adv-x="333" 
 />
    <glyph glyph-name="space" unicode=" " horiz-adv-x="180" 
 />
    <glyph glyph-name="exclam" unicode="!" horiz-adv-x="220" 
d="M106 186q-1 -6 -6 -2q-1 1 -1 3l54 395q2 15 3.5 21t6.5 17.5t14 15.5t23 3h2q11 -1 17.5 -6t8.5 -10t0.5 -16t-2.5 -15.5t-5 -16.5zM71 -14q-19 0 -32 13t-13 31q0 17 13.5 29.5t32.5 12.5q18 0 30 -12.5t12 -29.5q0 -18 -12.5 -31t-30.5 -13z" />
    <glyph glyph-name="quotedbl" unicode="&#x22;" horiz-adv-x="278" 
d="M163 403l176 243h1l25 -13l-196 -230h-6zM40 403l176 243h2l25 -13l-197 -230h-6z" />
    <glyph glyph-name="numbersign" unicode="#" horiz-adv-x="494" 
d="M92 -5l52 198h-139v8h141l58 221h-139v8h141l53 202h11l-53 -202h163l53 202h11l-53 -202h138v-8h-140l-58 -221h138v-8h-140l-52 -198h-11l52 198h-163l-52 -198h-11zM157 201h163l58 221h-163z" />
    <glyph glyph-name="dollar" unicode="$" horiz-adv-x="434" 
d="M86 1q-52 17 -94 46l13 134l4 -1l8 -40q17 -88 76 -123l141 295l-8 4q-116 60 -116 148q0 70 52.5 124t134.5 54q44 0 85 -16l55 114h12l-56 -118q16 -7 29 -17l48 7l-16 -150l-4 1l-43 129q-10 10 -20 17l-114 -240l5 -3q134 -72 134 -176q0 -81 -63 -143.5t-162 -62.5
q-44 0 -91 14l-77 -162h-12zM103 12q35 -19 86 -19q78 0 124 47.5t46 117.5q0 86 -116 149l-35 -73l-70 -148zM377 614q-37 20 -77 20q-64 0 -102.5 -43t-38.5 -92q0 -39 26.5 -67.5t77.5 -57.5z" />
    <glyph glyph-name="percent" unicode="%" horiz-adv-x="549" 
d="M194 386q-56 0 -90 36.5t-34 89.5t34 90.5t90 37.5q57 0 91 -37.5t34 -90.5t-34 -89.5t-91 -36.5zM-4 -14l584 654h13l-584 -654h-13zM397 -13q-56 0 -90 36.5t-34 88.5q0 54 34 91.5t90 37.5q57 0 91 -37.5t34 -91.5q0 -52 -34 -88.5t-91 -36.5zM194 396q51 0 82 33
t31 83q0 49 -31.5 83.5t-81.5 34.5t-81 -34t-31 -84t30.5 -83t81.5 -33zM397 -3q51 0 82 33t31 83q0 49 -31.5 83.5t-81.5 34.5t-81 -34t-31 -84t30.5 -83t81.5 -33z" />
    <glyph glyph-name="ampersand" unicode="&#x26;" horiz-adv-x="692" 
d="M589 354q43 -10 67.5 -42.5t24.5 -81.5q0 -93 -106 -168t-235 -75q-140 0 -229.5 67.5t-89.5 173.5q0 76 48 136.5t122 81.5q-4 26 -4 40q0 66 37.5 109.5t93.5 43.5q58 0 98.5 -48t30.5 -117l-11 2q3 45 -24.5 85t-73.5 40q-47 0 -74 -31t-27 -86q0 -10 2 -30q6 1 17 1
q53 0 90.5 -26t37.5 -63q0 -23 -17.5 -37t-46.5 -14q-41 0 -76 34.5t-50 84.5q-56 -18 -91.5 -61.5t-35.5 -99.5q0 -113 85.5 -178t235.5 -65q117 0 199 59.5t82 140.5q0 50 -31.5 83.5t-80.5 33.5q-31 0 -63.5 -24.5t-32.5 -47.5q0 -58 68 -64q-11 6 -13 19t6 23.5t23 10.5
q11 0 19.5 -8.5t8.5 -19.5q0 -14 -11.5 -24t-27.5 -10q-43 0 -69 23.5t-26 62.5q0 34 28.5 59t69 40t81 29.5t69 37t28.5 54.5q0 37 -23.5 60.5t-61.5 25.5q13 -4 18 -18t-2.5 -26t-23.5 -12q-12 0 -21.5 8.5t-9.5 19.5q0 17 12.5 27.5t31.5 10.5q41 0 71.5 -38t30.5 -88
q0 -44 -35 -73t-113 -51zM241 442q10 -46 37.5 -73.5t61.5 -27.5q12 0 21 9t9 22q0 27 -34.5 49t-77.5 22q-11 0 -17 -1z" />
    <glyph glyph-name="quotesingle" unicode="'" horiz-adv-x="138" 
d="M40 403l176 243h2l25 -13l-197 -230h-6z" />
    <glyph glyph-name="parenleft" unicode="(" horiz-adv-x="316" 
d="M207 -268q-38 27 -72 71t-62.5 108.5t-35.5 140t10 165.5q18 84 60 158t94.5 125t103 85t98.5 52l5 -10q-48 -18 -98 -52t-100.5 -84.5t-91 -122.5t-57.5 -153q-16 -89 -10 -163t33.5 -136.5t60.5 -105.5t70 -69z" />
    <glyph glyph-name="parenright" unicode=")" horiz-adv-x="316" 
d="M-99 -268l-5 10q48 18 98 52t100.5 84.5t91 122.5t57.5 154q16 88 10 162t-33.5 136.5t-60.5 105.5t-70 69l8 9q38 -27 72 -71t62.5 -108.5t35.5 -139.5t-10 -165q-18 -84 -60 -158.5t-94.5 -125.5t-103 -85t-98.5 -52z" />
    <glyph glyph-name="asterisk" unicode="*" horiz-adv-x="303" 
d="M219 343l-29 45l12 95q0 7 -5 4l-77 -66l-55 -6q-2 0 0 2l35 46l96 26q4 1 2 6l-80 48l-18 49q-1 2 0 3t2 0l53 -17l43 -81q1 -3 4 -2t4 3l32 97l45 34q1 1 1 -1l-3 -53l-74 -78q-5 -7 3 -7l102 14l43 -29q1 -1 1 -2l-54 -19l-92 35q-3 1 -4.5 0t-0.5 -4l35 -90l-18 -52
q-2 -1 -3 0z" />
    <glyph glyph-name="plus" unicode="+" 
d="M211 24v207h-204l2 12h202v203h12v-203h201l2 -12h-203v-207h-12z" />
    <glyph glyph-name="comma" unicode="," horiz-adv-x="147" 
d="M-40 -92l-2 4q34 14 62.5 41t28.5 65q0 23 -16 32.5t-43 -2.5q-5 21 9 37.5t38 16.5q23 0 39 -16.5t16 -41.5q0 -42 -39 -82.5t-93 -53.5z" />
    <glyph glyph-name="hyphen" unicode="-" horiz-adv-x="280" 
d="M23 234l7 20h239l-7 -20h-239z" />
    <glyph glyph-name="period" unicode="." horiz-adv-x="168" 
d="M45 -14q-19 0 -32 13.5t-13 31.5q0 17 13.5 30t32.5 13q18 0 30 -13t12 -30q0 -18 -12.5 -31.5t-30.5 -13.5z" />
    <glyph glyph-name="slash" unicode="/" horiz-adv-x="249" 
d="M16 -247l210 877h10l-210 -877h-10z" />
    <glyph glyph-name="zero" unicode="0" horiz-adv-x="514" 
d="M225 -11q-91 0 -141.5 56t-50.5 147q0 110 71.5 200.5t174.5 90.5q88 0 138.5 -57.5t50.5 -148.5q0 -117 -70.5 -202.5t-172.5 -85.5zM218 -4q81 0 137.5 93t56.5 219q0 73 -33.5 119.5t-93.5 46.5q-83 0 -139 -92.5t-56 -224.5q0 -73 32.5 -117t95.5 -44z" />
    <glyph glyph-name="one" unicode="1" horiz-adv-x="307" 
d="M11 0q-1 0 3 6l34 1q45 1 47 16l87 416l-100 11l3 5l157 24l-98 -458q-2 -7 9 -10q12 -3 44 -4l28 -1l2 -6h-216z" />
    <glyph glyph-name="two" unicode="2" horiz-adv-x="406" 
d="M-26 0l-1 8q206 146 268.5 209.5t62.5 128.5q0 44 -27 70.5t-71 26.5q-73 0 -128 -82l-6 5q36 54 81 85.5t93 31.5q51 0 84 -31.5t33 -75.5q0 -24 -6.5 -45.5t-27 -47.5t-38.5 -45t-62.5 -54t-76.5 -58.5t-101 -73.5v-2h236q25 0 91 110l6 10l4 -1l-73 -169h-341z" />
    <glyph glyph-name="three" unicode="3" horiz-adv-x="387" 
d="M65 -201q-59 0 -93.5 18.5t-34.5 49.5q0 18 14 32.5t31 14.5q31 0 40 -28t-18 -61q48 -16 68 -16q85 0 136.5 56t51.5 142q0 60 -37.5 97t-97.5 37q-34 0 -71 -13l-3 7q127 55 179.5 102t52.5 107q0 45 -27.5 72.5t-72.5 27.5q-36 0 -69.5 -24t-59.5 -65l-6 4
q79 124 179 124q49 0 82 -32.5t33 -80.5q0 -106 -179 -188v-2h6q60 0 103 -44t43 -106q0 -91 -75.5 -161t-174.5 -70z" />
    <glyph glyph-name="four" unicode="4" horiz-adv-x="449" 
d="M182 -184l40 194h-260l1 3l399 460h9l-89 -417l119 -1l-27 -45h-102l-41 -194h-49zM14 56h218l70 332h-2z" />
    <glyph glyph-name="five" unicode="5" horiz-adv-x="365" 
d="M40 -200q-48 0 -75.5 18t-27.5 49q0 18 14 32.5t31 14.5q31 0 40 -28.5t-18 -61.5q36 -12 60 -12q70 0 122.5 65t52.5 146q0 77 -54.5 122.5t-145.5 56.5l95 266h230l-25 -54h-213l-59 -171q95 -10 157.5 -66t62.5 -139q0 -88 -73 -163t-174 -75z" />
    <glyph glyph-name="six" unicode="6" horiz-adv-x="454" 
d="M209 -10q-82 0 -130.5 57t-48.5 147q0 110 68.5 209.5t184 160.5t245.5 61v-7q-145 -7 -251 -90.5t-156 -201.5l2 -1q80 68 163 68q68 0 104 -43.5t36 -109.5q0 -95 -65 -172.5t-152 -77.5zM209 -1q66 0 110.5 68.5t44.5 157.5q0 63 -28 100.5t-87 37.5q-67 0 -134 -54
q-27 -72 -27 -138q0 -77 32 -124.5t89 -47.5z" />
    <glyph glyph-name="seven" unicode="7" horiz-adv-x="397" 
d="M1 -184l398 598l-2 4h-255q-16 0 -27 -4t-22 -17.5t-16.5 -22.5t-20.5 -36l-5 -10l-4 1l45 139h346v-3l-390 -649h-47z" />
    <glyph glyph-name="eight" unicode="8" horiz-adv-x="444" 
d="M196 -15q-78 0 -128.5 46t-50.5 110t52.5 114t138.5 65v2q-98 63 -98 151q0 70 58 119t128 49q66 0 110.5 -41.5t44.5 -100.5q0 -53 -43 -96t-117 -67v-2q110 -79 110 -169q0 -76 -61 -128t-144 -52zM282 339q53 20 87 65t34 103q0 55 -31.5 90t-83.5 35q-53 0 -92 -39.5
t-39 -93.5q0 -46 31.5 -83t93.5 -77zM205 -6q64 0 107 40t43 99q0 89 -139 182q-66 -15 -108.5 -67.5t-42.5 -121.5q0 -59 37.5 -95.5t102.5 -36.5z" />
    <glyph glyph-name="nine" unicode="9" horiz-adv-x="454" 
d="M-66 -147v7q145 7 250.5 90.5t155.5 201.5h-2q-80 -68 -162 -68q-68 0 -104 43.5t-36 110.5q0 94 65 172t152 78q82 0 130.5 -57.5t48.5 -146.5q0 -111 -68.5 -210.5t-184 -160t-245.5 -60.5zM213 114q66 0 134 56q27 72 27 137q0 77 -32 124.5t-89 47.5
q-66 0 -110.5 -68.5t-44.5 -157.5q0 -63 28 -101t87 -38z" />
    <glyph glyph-name="colon" unicode=":" horiz-adv-x="166" 
d="M110 292q-18 0 -31.5 13.5t-13.5 31.5q0 17 13 29.5t32 12.5q18 0 30.5 -12.5t12.5 -29.5q0 -18 -12.5 -31.5t-30.5 -13.5zM45 -14q-19 0 -32 13t-13 31q0 17 13.5 29.5t32.5 12.5q18 0 30 -12.5t12 -29.5q0 -18 -12.5 -31t-30.5 -13z" />
    <glyph glyph-name="semicolon" unicode=";" horiz-adv-x="147" 
d="M102 292q-18 0 -31.5 13t-13.5 31q0 17 13 30t32 13q18 0 30.5 -12.5t12.5 -30.5t-12.5 -31t-30.5 -13zM-40 -91l-2 4q34 14 62.5 40.5t28.5 64.5q0 23 -16 32t-43 -2q-5 20 9 36.5t38 16.5q23 0 39 -16t16 -41q0 -42 -38.5 -82t-93.5 -53z" />
    <glyph glyph-name="less" unicode="&#x3c;" horiz-adv-x="420" 
d="M403 33l-398 197v11l398 196l5 -11l-387 -189v-2l387 -191z" />
    <glyph glyph-name="equal" unicode="=" horiz-adv-x="428" 
d="M18 316l-3 12h398l-3 -12h-392zM15 143l3 12h392l3 -12h-398z" />
    <glyph glyph-name="greater" unicode="&#x3e;" horiz-adv-x="420" 
d="M17 33l-5 11l387 191v2l-387 189l5 11l398 -196v-11z" />
    <glyph glyph-name="question" unicode="?" horiz-adv-x="299" 
d="M144 178q-26 22 -48 52t-22 51q0 33 24 59.5t100 56.5q72 28 95 46t23 46q0 37 -31.5 65.5t-101.5 28.5q-39 0 -73 -10q-5 7 -5 14q0 53 77 53q63 0 104.5 -41t41.5 -102q0 -59 -25.5 -90t-103.5 -61q-51 -19 -75 -36.5t-24 -45.5q0 -36 50 -86h-6zM106 -14
q-18 0 -31.5 13t-13.5 31q0 17 13.5 29.5t32.5 12.5q18 0 30 -12.5t12 -29.5q0 -18 -12.5 -31t-30.5 -13z" />
    <glyph glyph-name="at" unicode="@" horiz-adv-x="766" 
d="M400 -103q-160 0 -261.5 95.5t-101.5 246.5q0 166 114 284.5t274 118.5q142 0 235 -87t93 -221q0 -109 -71.5 -190t-157.5 -81q-47 0 -72.5 23.5t-25.5 66.5q0 46 29 103h-1q-67 -100 -105 -140.5t-73 -40.5q-32 0 -56 24.5t-24 56.5q0 123 160 269q44 41 85 41
q58 0 57 -84h1l37 110l51 -4l-77 -201l-20 -52q-26 -61 -23 -94t20.5 -44.5t53.5 -11.5q74 0 138 73t64 176q0 129 -90 214t-228 85q-156 0 -267 -116t-111 -278q0 -146 98.5 -239.5t254.5 -93.5q106 0 194.5 54t128.5 136l9 -4q-41 -84 -132 -139.5t-200 -55.5zM303 114
q60 0 158 180q24 44 24 67q0 25 -25 52t-48 27q-24 0 -55 -28q-42 -38 -75 -106.5t-33 -127.5q0 -25 17 -44.5t37 -19.5z" />
    <glyph glyph-name="A" unicode="A" horiz-adv-x="606" 
d="M384 274h-190l-88 -161q-40 -66 -35.5 -82.5t67.5 -22.5l20 -2l1 -6h-206l3 6l16 2q48 6 68.5 29.5t92.5 146.5l214 386l-4 24q23 10 46 39h7l72 -556q6 -42 16 -54.5t44 -14.5l27 -2l1 -6h-229l3 6l27 1q60 2 56 33zM200 284h183l-33 270h-2z" />
    <glyph glyph-name="B" unicode="B" horiz-adv-x="542" 
d="M-20 0l3 6l37 4q50 6 52 16l122 576q1 5 -7 7q-7 2 -49 7l-24 3l-1 6h226q83 0 135 -38.5t52 -94.5t-49 -100t-160 -47l-1 -3q91 -14 135 -54.5t44 -97.5q0 -89 -69.5 -139.5t-199.5 -50.5h-246zM224 9l29 1q87 3 130.5 57t43.5 128q0 64 -50 106t-158 42h-17l-69 -323z
M290 348q81 0 123.5 44.5t42.5 116.5q0 105 -138 105h-58l-55 -258q58 -8 85 -8z" />
    <glyph glyph-name="C" unicode="C" horiz-adv-x="658" 
d="M356 -15q-139 0 -223.5 79t-84.5 200q0 154 106.5 264.5t261.5 110.5q125 0 201 -63l44 16l-23 -167h-4l-34 144q-20 22 -71 41.5t-104 19.5q-134 0 -221.5 -115t-87.5 -271q0 -114 62.5 -182.5t175.5 -68.5q69 0 120 31t103 94l32 39l4 -1l-66 -143l-35 -3
q-77 -25 -156 -25z" />
    <glyph glyph-name="D" unicode="D" horiz-adv-x="636" 
d="M-20 0l3 6l37 4q50 6 52 16l122 576q1 5 -7 7q-7 2 -49 7l-24 3l-1 6h242q128 0 202.5 -77t74.5 -193q0 -160 -109 -257.5t-305 -97.5h-238zM245 10q103 0 177 52.5t108.5 134.5t34.5 183q0 236 -222 236h-83l-127 -598z" />
    <glyph glyph-name="E" unicode="E" horiz-adv-x="552" 
d="M-24 0l3 6l41 4q50 4 52 16l122 576q0 3 -1 4.5t-7.5 3t-17 3t-30.5 3.5l-28 3l-1 6h412l16 -160h-4l-5 15q-26 78 -53 107t-75 29h-140l-59 -279l97 1q23 0 38 3.5t23.5 5.5t18 16t12 19.5t14.5 31.5l6 12l4 -1h1l-40 -190l-5 1l1 12q4 54 -7.5 65.5t-73.5 12.5l-91 2
l-67 -315l169 -4q66 1 111.5 39t92.5 112l9 14l6 -1l-83 -173h-461z" />
    <glyph glyph-name="F" unicode="F" horiz-adv-x="523" 
d="M-24 0l3 6l41 4q50 4 52 16l122 576q0 3 -1 4.5t-7 3t-17 3t-31 3.5l-28 3l-1 6h423l15 -169l-7 -1l-3 13q-17 82 -46.5 115t-103.5 33h-127l-61 -285l98 1q55 1 71 13.5t35 62.5l5 12l5 -1l-40 -190l-4 1v12q0 55 -10 66t-70 12l-92 2l-62 -299q-1 -4 2.5 -6t16 -4.5
t37.5 -3.5l47 -3l1 -6h-263z" />
    <glyph glyph-name="G" unicode="G" horiz-adv-x="671" 
d="M350 -15q-134 0 -218 81t-84 202q0 151 105 262.5t262 111.5q126 0 202 -63l49 16l-32 -163l-4 1l-30 139q-23 24 -73 42t-103 18q-90 0 -162 -56t-109 -141t-37 -179q0 -113 65 -187t170 -74q72 0 125 30l47 224q0 3 -1.5 4.5t-8 3.5t-18.5 3t-32 3l-37 3l-1 6h249
l-4 -6l-36 -4q-50 -6 -52 -16l-45 -214l68 9l-1 -4q-163 -52 -254 -52z" />
    <glyph glyph-name="H" unicode="H" horiz-adv-x="694" 
d="M-20 0l3 6l37 4q50 6 52 16l122 576q1 5 -7 7q-7 2 -49 7l-24 3l-1 6h239l-4 -6l-40 -4q-50 -4 -52 -16l-58 -276h343l60 279q0 3 -1 4.5t-7 3t-17 3t-31 3.5l-28 3l-1 6h239l-4 -6l-36 -4q-50 -6 -52 -16l-122 -576q-1 -5 7 -7q7 -2 49 -7l24 -3l1 -6h-239l3 6l41 4
q50 4 52 16l60 287h-343l-62 -290q0 -3 1 -4.5t7 -3t17 -3t31 -3.5l28 -3l1 -6h-239z" />
    <glyph glyph-name="I" unicode="I" horiz-adv-x="307" 
d="M-14 0l3 6l41 4q50 4 52 16l122 576q0 3 -1 4.5t-7 3t-17 3t-31 3.5l-28 3l-1 6h243l-4 -6l-40 -4q-50 -4 -52 -16l-122 -576q0 -3 1 -4.5t7 -3t17 -3t31 -3.5l28 -3l1 -6h-243z" />
    <glyph glyph-name="J" unicode="J" horiz-adv-x="287" 
d="M-66 -168q-68 0 -68 46q0 19 12.5 32.5t30.5 13.5q17 0 29.5 -14t10 -33.5t-25.5 -32.5q45 -11 86 31t60 135l125 592q0 3 -1 4.5t-7 3t-17 3t-31 3.5l-28 3l-1 6h243l-4 -6l-40 -4q-50 -4 -52 -16l-130 -611q-8 -33 -70.5 -94.5t-121.5 -61.5z" />
    <glyph glyph-name="K" unicode="K" horiz-adv-x="643" 
d="M-20 0l3 6l37 4q50 6 52 16l122 576q1 5 -7 7q-7 2 -49 7l-24 3l-1 6h239l-4 -6l-40 -4q-50 -4 -52 -16l-71 -335l216 179q137 116 153 141q13 21 -14 27q-11 2 -40 5l-33 3l-1 6h232l-4 -6l-11 -1q-45 -4 -59 -10q-20 -10 -118 -91q-57 -47 -105 -86l-33 -27l130 -325
q19 -48 31 -58t47 -13l24 -2l1 -6h-233l3 6l29 2q58 4 39 52l-119 304l-136 -112l-50 -229q0 -3 1 -4.5t7 -3t17 -3t31 -3.5l28 -3l1 -6h-239z" />
    <glyph glyph-name="L" unicode="L" horiz-adv-x="527" 
d="M-20 0l3 6l37 4q50 6 52 17l122 575q1 5 -7 7q-7 2 -49 7l-24 3l-1 6h259l-4 -6l-60 -4q-50 -4 -52 -16l-124 -585l149 -4q65 1 105 38.5t83 112.5l7 13l7 -1l-65 -173h-438z" />
    <glyph glyph-name="M" unicode="M" horiz-adv-x="802" 
d="M-24 0l3 6l28 2q74 5 79 28l132 564q-16 13 -68 17l-26 2l-1 6h161l88 -536l2 -1l343 537h147l-4 -6l-36 -4q-50 -6 -52 -16l-122 -576q-1 -5 7 -7q7 -2 49 -7l24 -3l1 -6h-239l3 6l41 4q50 4 52 16l116 556h-2l-372 -582h-4l-93 556q-3 15 -10 31l-126 -553
q-2 -6 7 -11.5t30 -10t50 -5.5l18 -1l1 -6h-227z" />
    <glyph glyph-name="N" unicode="N" horiz-adv-x="673" 
d="M517 -6l-298 583h-1l-115 -543q-4 -23 77 -27l18 -1l1 -6h-207l3 6l20 2q72 6 77 28l120 551q-13 19 -90 30l-12 2l-1 6h154l270 -527h2l104 493q4 23 -76 27l-18 1l-1 6h207l-4 -6l-19 -2q-73 -7 -78 -28l-129 -595h-4z" />
    <glyph glyph-name="O" unicode="O" horiz-adv-x="700" 
d="M341 -13q-131 0 -209 84t-78 210q0 139 100.5 248t245.5 109q128 0 207.5 -85.5t79.5 -210.5q0 -153 -104.5 -254t-241.5 -101zM342 -4q121 0 199 106t78 264q0 117 -59 190t-162 73q-83 0 -147.5 -54.5t-97.5 -139.5t-33 -182q0 -116 57.5 -186.5t164.5 -70.5z" />
    <glyph glyph-name="P" unicode="P" horiz-adv-x="524" 
d="M-34 0l3 6l51 4q50 4 52 16l122 576q0 3 -1 4.5t-7 3.5t-17.5 3.5t-30.5 2.5l-38 3l-1 6h247q93 0 149 -42.5t56 -106.5q0 -74 -61.5 -123t-163.5 -49q-61 0 -129 22l-63 -303q-1 -4 2.5 -6t16 -4.5t37.5 -3.5l48 -3l1 -6h-273zM318 313q78 0 122 48t44 131
q0 57 -36 90.5t-114 33.5h-74l-59 -277q58 -26 117 -26z" />
    <glyph glyph-name="Q" unicode="Q" horiz-adv-x="700" 
d="M568 -179q-39 0 -76.5 7.5t-78 24.5t-70 51.5t-40.5 83.5q-115 13 -182 95t-67 198q0 139 100.5 248t245.5 109q128 0 207.5 -85.5t79.5 -210.5q0 -140 -89 -238t-214 -115q24 -93 84.5 -124.5t173.5 -30.5v-6q-25 -7 -74 -7zM342 -6q120 0 198.5 107t78.5 265
q0 116 -59 189.5t-162 73.5q-83 0 -147.5 -54.5t-97.5 -139.5t-33 -182q0 -117 57.5 -188t164.5 -71z" />
    <glyph glyph-name="R" unicode="R" horiz-adv-x="602" 
d="M-34 0l3 6l51 4q50 5 52 16l122 576q0 3 -1 4.5t-7 3.5t-17.5 3.5t-30.5 2.5l-38 3l-1 6h256q86 0 141 -40t55 -102q0 -68 -59.5 -112.5t-139.5 -49.5l100 -244q18 -43 34.5 -55.5t50.5 -14.5l12 -1l2 -6h-133l-128 319q-42 5 -87 27l-69 -323q-1 -5 16.5 -8.5t39.5 -5.5
l38 -3l1 -6h-263zM318 329q73 0 120 46t47 121q0 56 -37 87.5t-100 31.5h-89l-54 -259q61 -27 113 -27z" />
    <glyph glyph-name="S" unicode="S" horiz-adv-x="463" 
d="M210 -15q-50 0 -106.5 19.5t-91.5 46.5l17 135l3 -1l7 -41q12 -70 58 -110t116 -40q75 0 118 37.5t43 104.5q0 51 -27.5 85.5t-107.5 86.5q-63 41 -95 80t-32 91q0 74 49.5 118.5t132.5 44.5q73 0 122 -39l47 6l-21 -150l-4 1l-37 131q-38 43 -105 43q-66 0 -102 -35
t-36 -89q0 -45 27.5 -77t98.5 -79q68 -45 104 -85.5t36 -95.5q0 -82 -57.5 -135t-156.5 -53z" />
    <glyph glyph-name="T" unicode="T" horiz-adv-x="607" 
d="M126 0l3 6l51 4q50 4 52 16l124 590h-102q-43 -5 -73.5 -35t-68.5 -92l-8 -13h-5l46 149h492l-15 -149h-4l-2 12q-12 76 -33 99.5t-73 28.5h-90l-126 -593q0 -3 1 -4.5t7 -3.5t17.5 -3.5t30.5 -2.5l38 -3l1 -6h-263z" />
    <glyph glyph-name="U" unicode="U" horiz-adv-x="647" 
d="M326 -16q-105 0 -165.5 42.5t-60.5 123.5q0 35 9 77l80 375q0 3 -1 4.5t-7 3.5t-17.5 3.5t-30.5 2.5l-38 3l-1 6h263l-4 -6l-50 -4q-50 -4 -52 -16l-79 -376q-8 -42 -8 -70q0 -69 48 -105t140 -36q80 0 128 48.5t70 151.5l80 379q4 23 -79 27l-18 1l-1 6h208l-4 -6
l-19 -2q-71 -6 -76 -28l-82 -381q-47 -224 -233 -224z" />
    <glyph glyph-name="V" unicode="V" horiz-adv-x="624" 
d="M264 -11l-93 559q-8 43 -17.5 55t-42.5 14l-27 2l-1 6h230l-4 -6l-26 -1q-61 -2 -56 -33l80 -505h1l243 433q40 66 36 82t-67 22l-20 2l-1 6h205l-4 -6l-15 -2q-48 -6 -69.5 -29.5t-87.5 -137.5q-3 -6 -5 -9l-253 -452h-6z" />
    <glyph glyph-name="W" unicode="W" horiz-adv-x="949" 
d="M265 -11l-93 559q-7 43 -16.5 55t-42.5 14l-27 2v6h234l-5 -6l-31 -1q-61 -2 -56 -33l81 -505h2l215 382l-15 86q-7 42 -17 54.5t-43 14.5l-27 2l-1 6h235l-4 -6l-31 -1q-61 -2 -56 -33l78 -503h2l228 433q38 66 32.5 81t-69.5 21l-20 2l-1 6h205l-4 -6l-15 -2
q-47 -6 -66 -28t-90 -149l-236 -451h-7l-75 455h-2l-255 -455h-7z" />
    <glyph glyph-name="X" unicode="X" horiz-adv-x="619" 
d="M305 298l-149 -174q-22 -26 -35.5 -43.5t-20 -30.5t-6.5 -20t8.5 -12t19.5 -7t32 -3l27 -2l1 -6h-235l3 6l18 1q50 3 79 22.5t98 98.5l155 180l-103 237q-17 40 -32 55t-45 17l-20 2l-1 6h235l-4 -5l-37 -1q-34 -1 -41.5 -14.5t7.5 -46.5l88 -199h1l131 153
q42 49 51 70.5t-1 26t-49 7.5q-6 1 -9 1l-27 2l-1 6h235l-4 -6l-17 -1q-50 -3 -75 -18.5t-93 -92.5l-136 -157l118 -270q11 -25 14 -31.5t12 -19t20.5 -16.5t30.5 -5l20 -2l1 -6h-235l3 6l38 1q34 1 41 13.5t-8 46.5z" />
    <glyph glyph-name="Y" unicode="Y" horiz-adv-x="595" 
d="M120 0l3 6l51 4q50 4 52 16l54 256l-94 262q-8 23 -12 32t-12.5 20t-20 15.5t-30.5 5.5l-25 2l-1 6h241l-4 -6l-37 -1q-34 -1 -41 -13t5 -46l91 -256h2l145 197q39 54 48 76t-3.5 30t-56.5 11l-25 2l-1 6h225l-4 -6l-17 -1q-47 -2 -70 -20t-86 -101l-153 -207l-56 -267
q0 -3 1 -4.5t7 -3.5t17.5 -3.5t30.5 -2.5l38 -3l1 -6h-263z" />
    <glyph glyph-name="Z" unicode="Z" horiz-adv-x="549" 
d="M-9 0l1 4l517 609v2l-222 1q-46 0 -82.5 -37t-79.5 -120l-7 -14h-5l48 180h428l-1 -3l-516 -610l-1 -2l224 -1q66 0 113 44.5t91 134.5l7 15h7l-73 -203h-449z" />
    <glyph glyph-name="bracketleft" unicode="[" horiz-adv-x="306" 
d="M-46 -247l186 872h244l-2 -10h-233l-181 -852h233l-3 -10h-244z" />
    <glyph glyph-name="backslash" unicode="\" horiz-adv-x="232" 
d="M204 -247l-210 877h10l210 -877h-10z" />
    <glyph glyph-name="bracketright" unicode="]" horiz-adv-x="306" 
d="M-90 -247l3 10h233l181 852h-233l2 10h244l-186 -872h-244z" />
    <glyph glyph-name="asciicircum" unicode="^" horiz-adv-x="370" 
d="M122 481l155 177h3l82 -177h-4l-89 114h-3l-140 -114h-4z" />
    <glyph glyph-name="underscore" unicode="_" horiz-adv-x="446" 
d="M-32 -28l9 29h400l-3 -29h-406z" />
    <glyph glyph-name="grave" unicode="`" horiz-adv-x="370" 
d="M280 491l-140 187h57l87 -187h-4z" />
    <glyph glyph-name="a" unicode="a" horiz-adv-x="406" 
d="M251 -13q-13 0 -21.5 20.5t-8.5 45.5q0 24 41 129h-2q-61 -105 -98.5 -149t-73.5 -44q-33 0 -56 24.5t-23 64.5q0 74 51.5 162.5t112.5 149.5q42 42 83 42q58 0 57 -90h1l29 96l50 -4l-75 -217l-60 -191l45 -5l73 114l6 -3q-72 -145 -131 -145zM115 30q59 0 161 205
q24 48 24 84q0 29 -20 57t-52 28q-27 0 -54 -27q-41 -41 -76 -126.5t-35 -150.5q0 -35 15.5 -52.5t36.5 -17.5z" />
    <glyph glyph-name="b" unicode="b" horiz-adv-x="393" 
d="M125 -15q-46 0 -79 33t-18 82l153 514q6 23 -5 23l-80 3l2 6l150 17l-20 -64q-59 -193 -131 -409q-3 -9 -1.5 -9.5t5.5 6.5q60 137 105.5 193t86.5 56q37 0 60.5 -29.5t23.5 -76.5q0 -69 -37.5 -146.5t-92.5 -132.5q-64 -66 -122 -66zM136 -1q38 0 79 39q46 46 77 124
t31 152q0 81 -55 81q-37 0 -82 -65t-83 -161q-30 -73 -30 -112q0 -27 21.5 -42.5t41.5 -15.5z" />
    <glyph glyph-name="c" unicode="c" horiz-adv-x="321" 
d="M126 -12q-52 0 -82 40t-30 98q0 110 77 210.5t159 100.5q37 0 62.5 -20t25.5 -48q0 -18 -10 -30t-25 -12q-13 0 -23.5 9.5t-10.5 23.5q0 27 35 40q-22 28 -54 28q-46 0 -86 -40q-39 -40 -68 -110.5t-29 -133.5q0 -54 21.5 -87t59.5 -33q37 0 67.5 25t65.5 84l7 -3
q-81 -142 -162 -142z" />
    <glyph glyph-name="d" unicode="d" horiz-adv-x="406" 
d="M251 -13q-13 0 -21.5 20.5t-8.5 45.5q0 5 0.5 9t1.5 9.5t1.5 9t3 11l4 12t5.5 15t6.5 17t8.5 21.5l10 25h-2q-61 -105 -98.5 -149t-73.5 -44q-33 0 -56 24.5t-23 64.5q0 74 52 165t112 151q42 42 83 42q54 0 53 -99h2l79 277q7 23 -4 23l-101 3l2 6l171 17l-108 -341
l-92 -296l45 -5l73 113l6 -3q-72 -144 -131 -144zM115 30q31 0 71.5 52.5t78.5 130.5q35 70 35 106q0 29 -20 59t-52 30q-27 0 -54 -27q-41 -41 -76 -128.5t-35 -152.5q0 -35 15.5 -52.5t36.5 -17.5z" />
    <glyph glyph-name="e" unicode="e" horiz-adv-x="322" 
d="M126 -12q-52 0 -82 40t-30 98q0 74 34 146.5t87.5 118.5t107.5 46q38 0 64 -18t26 -45q0 -48 -61 -79t-189 -51q-16 -53 -16 -100q0 -54 21.5 -87t59.5 -33q37 0 67.5 25t65.5 84l7 -3q-81 -142 -162 -142zM89 254q111 18 151.5 45t40.5 78q0 22 -13 36.5t-36 14.5
q-29 0 -68 -37q-47 -47 -77 -136z" />
    <glyph glyph-name="f" unicode="f" horiz-adv-x="233" 
d="M-77 -180q-36 0 -54.5 14t-18.5 36q0 19 11 29.5t26 10.5q24 0 30.5 -21t-19.5 -48q24 -11 34 -11q32 0 50.5 18t40 84.5t48.5 203.5l50 258l-74 1l9 26l74 1q36 147 86 197q40 43 101 43q32 0 55.5 -16.5t23.5 -39.5q0 -19 -11 -29.5t-26 -10.5q-24 0 -30.5 21t19.5 49
q-21 16 -42 16q-47 0 -72 -46t-53 -184l96 -1l-9 -27h-93l-60 -260q-51 -219 -114 -282q-31 -32 -78 -32z" />
    <glyph glyph-name="g" unicode="g" horiz-adv-x="358" 
d="M108 -232q-79 0 -140 32.5t-61 75.5q0 36 49 72.5t113 55.5v2q-42 17 -59 32t-17 37q0 27 32.5 50t70.5 28l1 2q-47 42 -47 113q0 65 47 117t108 52q38 0 69 -34l116 24l-11 -41l-98 11v-2q30 -38 30 -96q0 -61 -51.5 -113t-111.5 -52q-23 0 -41 13q-30 -4 -53.5 -19
t-23.5 -30t20.5 -28.5t80.5 -31.5l16 -5q158 -50 158 -125q0 -55 -59.5 -97.5t-137.5 -42.5zM126 -220q61 0 102.5 27.5t41.5 67.5q0 63 -138 107l-51 18q-65 -20 -98.5 -49.5t-33.5 -64.5q0 -48 49 -77t128 -29zM149 141q28 0 57 29q59 61 59 183q0 30 -17 53t-38 23
q-22 0 -49 -25q-29 -29 -47.5 -81t-18.5 -104q0 -41 22 -65q13 -13 32 -13z" />
    <glyph glyph-name="h" unicode="h" horiz-adv-x="406" 
d="M265 -12q-15 0 -36 14t-21 24q0 5 11 33.5t31.5 78t32.5 81.5q52 136 52 150q0 15 -11.5 25t-28.5 10q-25 0 -91.5 -90t-128.5 -222l-36 -95l-50 5l57 164q25 76 59 188t55 186l21 74q6 23 -5 23l-80 3l2 6l149 17l-19 -64q-98 -336 -146 -454l6 -2q40 77 92.5 154
t81.5 106q32 33 67 33q18 0 37.5 -20.5t19.5 -44.5q0 -21 -53 -152l-77 -192l48 -6l75 114l6 -3q-73 -144 -120 -144z" />
    <glyph glyph-name="i" unicode="i" horiz-adv-x="223" 
d="M227 538q-15 0 -23.5 9.5t-8.5 24.5q0 19 12 35t26 16q15 0 24 -9.5t9 -23.5q0 -19 -12.5 -35.5t-26.5 -16.5zM74 -12q-15 0 -35 14t-20 24q0 5 36.5 98.5t72.5 184.5l36 91l-50 4l-72 -113l-6 3q72 144 131 144q13 0 21.5 -20.5t8.5 -45.5q0 -12 -33.5 -98.5
t-67.5 -166.5l-33 -80l50 -6l75 114l6 -3q-73 -144 -120 -144z" />
    <glyph glyph-name="j" unicode="j" horiz-adv-x="205" 
d="M227 537q-15 0 -23.5 9.5t-8.5 24.5q0 19 12 35t26 16q15 0 24 -9.5t9 -23.5q0 -19 -12.5 -35.5t-26.5 -16.5zM-118 -249q-21 0 -36 13t-15 32q0 13 9.5 23.5t25.5 10.5q23 0 31 -20.5t-17 -48.5l46 17q53 53 98 197l131 425l-47 4l-72 -113l-6 3q72 144 131 144
q13 0 21.5 -20.5t8.5 -45.5q0 -21 -40.5 -143t-76.5 -213q-72 -180 -112 -220q-17 -18 -40 -31.5t-40 -13.5z" />
    <glyph glyph-name="k" unicode="k" horiz-adv-x="394" 
d="M264 -13q-34 0 -55 18q-5 171 -10 195q-7 36 -32 40q-6 1 -13 1q-19 0 -37 -10l-79 -234l-50 5l57 164q25 76 59 188t55 186l21 74q6 23 -5 23l-80 3l2 6l149 17l-19 -64q-83 -287 -106 -357q3 1 11 2t12 2q103 39 137.5 63.5t46.5 54.5l-1 2q-14 1 -25 11.5t-11 24.5
q0 13 10.5 23.5t23.5 10.5q14 0 24 -10.5t10 -25.5q0 -77 -148 -135l-43 -17q45 -2 64.5 -52.5t26.5 -171.5l36 -2l66 122l6 -2q-27 -69 -55.5 -112t-47.5 -43z" />
    <glyph glyph-name="l" unicode="l" horiz-adv-x="203" 
d="M56 -12q-15 0 -34.5 14t-19.5 24l179 588q6 23 -5 23l-80 3l2 6l150 17l-201 -636l48 -6l75 114l6 -3q-73 -144 -120 -144z" />
    <glyph glyph-name="m" unicode="m" horiz-adv-x="651" 
d="M510 -12q-15 0 -35 14t-20 24q0 5 11 33t31.5 78.5t32.5 81.5q51 134 51 148t-17.5 26t-34.5 12q-24 0 -85 -89t-125 -224l-35 -95l-50 5l46 137q11 34 32.5 92t34 93.5t12.5 42.5q0 14 -15 26t-32 12q-24 0 -85 -89t-125 -224l-36 -95l-50 5l57 165l71 234l-45 4
l-72 -114l-6 3q72 145 131 145q13 0 21.5 -20.5t8.5 -45.5q0 -48 -74 -226l6 -2q43 82 90 156t73 100q36 36 69 36q18 0 39.5 -23t21.5 -47q0 -23 -82 -220l6 -2q43 82 90 156t73 100q36 36 70 36q19 0 42 -23t23 -47q0 -22 -51 -148l-77 -192l48 -6l75 115l6 -3
q-37 -74 -68 -109.5t-52 -35.5z" />
    <glyph glyph-name="n" unicode="n" 
d="M292 -12q-15 0 -36 14t-21 24q0 5 11 33t31.5 78.5t32.5 81.5q52 136 52 151t-11.5 25t-28.5 10q-25 0 -91.5 -90.5t-128.5 -222.5l-36 -95l-50 5l57 165l71 234l-45 4l-72 -114l-6 3q72 145 131 145q13 0 21.5 -20.5t8.5 -45.5q0 -51 -73 -227l6 -2q40 77 92.5 154
t81.5 106q32 33 67 33q18 0 37.5 -20.5t19.5 -44.5q0 -22 -53 -153l-77 -192l48 -6l75 115l6 -3q-37 -74 -68 -109.5t-52 -35.5z" />
    <glyph glyph-name="o" unicode="o" horiz-adv-x="355" 
d="M127 -12q-56 0 -81 46.5t-25 113.5q0 100 65 194.5t136 94.5q51 0 82 -47t31 -125q0 -103 -65.5 -190t-142.5 -87zM115 -2q44 0 86.5 50.5t66.5 125.5q21 65 21 143q0 109 -55 109q-41 0 -82 -60.5t-67 -141.5q-21 -65 -21 -127q0 -45 13.5 -72t37.5 -27z" />
    <glyph glyph-name="p" unicode="p" horiz-adv-x="404" 
d="M-112 -253l3 6l19 1q25 2 33.5 4t10.5 10l190 632l-45 4l-72 -113l-6 3q68 144 131 144q13 0 21.5 -20.5t8.5 -45.5q0 -29 -16 -65h3q19 47 52.5 88t76.5 41q40 0 63.5 -38.5t23.5 -105.5q0 -114 -65.5 -209.5t-151.5 -95.5q-56 0 -75 79h-2l-89 -300q-2 -6 12 -9
q13 -2 44 -3l31 -1l1 -6h-202zM168 -5q33 0 69 36q47 47 71.5 120.5t24.5 144.5q0 50 -16.5 78.5t-44.5 28.5q-45 0 -89.5 -84t-74.5 -197q-5 -22 -5 -43q0 -26 18 -55t47 -29z" />
    <glyph glyph-name="q" unicode="q" horiz-adv-x="391" 
d="M47 -253l3 6l33 1q47 1 52 17q2 5 32 109.5t51 167.5q7 22 12 41t11.5 38t20.5 55h-2q-61 -105 -98.5 -149t-73.5 -44q-33 0 -56 24.5t-23 64.5q0 74 52 165t112 151q42 42 83 42q54 0 53 -99h2l29 90l50 -4l-72 -206l-137 -449q-2 -7 10 -9.5t40 -4.5l17 -1l3 -6h-204z
M115 30q31 0 71.5 52.5t78.5 130.5q35 70 35 106q0 29 -20 59t-52 30q-27 0 -54 -27q-41 -41 -76 -128.5t-35 -152.5q0 -35 15.5 -52.5t36.5 -17.5z" />
    <glyph glyph-name="r" unicode="r" horiz-adv-x="354" 
d="M67 -3l-51 5l62 165l66 234l-45 4l-72 -114l-6 3q72 145 131 145q13 0 21.5 -20.5t8.5 -45.5q0 -45 -55 -192h3q102 194 143 235q23 23 52 23q23 0 38 -16t15 -36q0 -17 -12 -28.5t-27 -11.5q-21 0 -29.5 19.5t14.5 41.5l-26 12q-21 -10 -53 -58t-119 -209z" />
    <glyph glyph-name="s" unicode="s" horiz-adv-x="292" 
d="M117 -12q-51 0 -86 23t-35 61q0 18 10 30t23 12q14 0 23 -9.5t9 -23.5q0 -13 -10 -24t-24 -16q40 -46 90 -46q45 0 67.5 28.5t21.5 62.5q0 9 -2 18t-7.5 18.5t-9 15.5t-13 16.5t-12 13.5t-14 15t-12.5 13q-27 27 -39.5 41t-24.5 37t-12 46q-1 47 39 82t85 35q47 0 73 -21
t27 -57q1 -18 -9.5 -29t-24.5 -11t-22.5 9t-8.5 24q0 29 33 39q-28 38 -68 38q-39 0 -62 -25.5t-22 -61.5q1 -39 64 -100q54 -52 69 -80q16 -28 16 -54q1 -49 -41 -84.5t-91 -35.5z" />
    <glyph glyph-name="t" unicode="t" horiz-adv-x="238" 
d="M78 -12q-16 0 -40.5 15t-20.5 26l110 365l-71 1l9 26l71 1l42 136h49l-42 -136l87 -1l-8 -27h-88l-111 -367l53 -6l72 114l6 -3q-71 -144 -118 -144z" />
    <glyph glyph-name="u" unicode="u" 
d="M281 -13q-13 0 -21.5 20.5t-8.5 45.5q0 22 20.5 88t51.5 140l-6 2q-40 -78 -92.5 -155.5t-80.5 -105.5q-32 -33 -67 -33q-18 0 -37.5 20.5t-19.5 44.5q0 22 53 153l76 193l-48 5l-74 -115l-6 3q73 145 120 145q15 0 36 -14t21 -24q0 -5 -11 -33t-31.5 -78.5t-32.5 -81.5
q-52 -136 -52 -151t11.5 -25t28.5 -10q25 0 91.5 90t128.5 222l36 96l50 -5l-57 -165l-72 -233l45 -5l73 114l6 -3q-72 -145 -131 -145z" />
    <glyph glyph-name="v" unicode="v" horiz-adv-x="356" 
d="M120 -12q-35 0 -61.5 33t-26.5 80q0 21 4 39.5t7.5 31.5t18.5 39.5t24 41t38 58.5t46 71l-78 25l-67 -117l-5 3q38 81 62 115t44 34q18 0 45.5 -6t27.5 -10q0 -9 -29.5 -56t-59.5 -112.5t-30 -120.5q0 -50 23 -78.5t51 -28.5q39 0 79.5 57t68 135t36.5 151
q-23 -12 -41.5 -2t-18.5 33q0 14 11 24.5t26 10.5q21 0 32.5 -17t11.5 -47q0 -39 -43.5 -152.5t-98.5 -174.5q-53 -60 -97 -60z" />
    <glyph glyph-name="w" unicode="w" horiz-adv-x="546" 
d="M88 -12q-25 0 -42.5 24.5t-17.5 59.5q0 36 27.5 88.5t70.5 118t59 98.5l-90 30l-70 -117l-5 3q70 149 117 149q18 0 51.5 -6.5t33.5 -9.5q0 -10 -35 -68t-70.5 -128.5t-35.5 -111.5q0 -76 49 -76q22 0 53 32.5t64 85.5t57 98t48 93l-8 5q-9 6 -18.5 17.5t-9.5 25.5
q0 17 10.5 27.5t28.5 10.5q14 0 24.5 -11.5t10.5 -26.5q0 -20 -31 -67t-45 -86q-26 -71 -26 -125q0 -79 65 -79q37 0 76 53.5t63 129.5t24 140q-22 -5 -36.5 7t-14.5 28q0 15 11.5 27t25.5 12q17 0 29 -13.5t12 -32.5q0 -56 -43 -179.5t-98 -179.5q-23 -24 -40 -35t-39 -11
q-24 0 -44.5 23.5t-20.5 53.5q0 16 2 31t7.5 35.5t8 28.5t12.5 36t11 32q-28 -48 -43.5 -74t-40.5 -63t-43 -55.5t-40.5 -33t-43.5 -14.5z" />
    <glyph glyph-name="x" unicode="x" horiz-adv-x="410" 
d="M36 -13q-20 0 -35 14t-15 33q0 16 9.5 27t23.5 11q17 0 22.5 -16t-7.5 -28q0 -16 26 -16q30 0 59 48t66 138q-30 202 -63 202h-24l-44 -89l-8 3q23 59 48.5 91t40.5 32q59 0 90 -180h2q44 104 71.5 142t72.5 38q20 0 35 -14t15 -33q0 -16 -9.5 -27t-23.5 -11
q-17 0 -22.5 16t7.5 28q0 16 -26 16q-30 0 -56 -41t-62 -131q27 -167 46 -200q9 -16 19 -16l23 1l45 87l8 -3q-23 -58 -48.5 -90t-40.5 -32q-61 0 -93 193h-2q-49 -114 -77 -153.5t-73 -39.5z" />
    <glyph glyph-name="y" unicode="y" horiz-adv-x="401" 
d="M262 55l1 -3q54 107 73.5 187.5t16.5 156.5q-27 -21 -46.5 -12.5t-19.5 27.5q0 15 10.5 25t26.5 10q21 0 33 -18t12 -48q0 -112 -58.5 -251t-145.5 -226q-85 -85 -171 -85q-39 0 -61 14t-21 40q1 16 12 27.5t28 11.5q24 0 31 -23.5t-12 -49.5q26 -6 39 -8q111 11 214 161
q-19 221 -45 319.5t-68 98.5h-21l-62 -118l-7 3q50 105 69 127q18 20 41 20q39 0 63.5 -35t41.5 -119.5t26 -231.5z" />
    <glyph glyph-name="z" unicode="z" horiz-adv-x="339" 
d="M201 -21q-29 6 -58.5 30t-54 44.5t-45.5 20.5h-7l-23 -85q-14 2 -25 12t-11 22q0 17 14.5 31.5t31.5 18.5l248 268q-25 -4 -50 9.5t-52 37t-32 27.5q-3 1 -16.5 -10t-24 -23t-6.5 -12q30 -3 30 -32q0 -14 -10 -24t-25 -10q-29 0 -29 33q0 28 39.5 60.5t77.5 41.5
q31 -6 51.5 -27t31.5 -40.5t18 -21.5l6 1l21 90q36 -11 36 -32q0 -17 -16.5 -37t-30.5 -23l-246 -267q44 10 96.5 -14t97.5 -65q2 -2 14 8t22.5 21.5t7.5 11.5q-14 1 -23.5 12.5t-9.5 24.5q0 14 10 23.5t26 9.5q13 0 21.5 -11t8.5 -26q0 -30 -38 -60.5t-76 -37.5z" />
    <glyph glyph-name="braceleft" unicode="{" horiz-adv-x="311" 
d="M200 -253q-82 13 -123.5 57.5t-27.5 109.5q9 44 44 111.5t42 98.5q9 38 -24.5 61t-107.5 36l-2 5l5 4q152 -2 166 66q6 30 1.5 102.5t5.5 115.5q15 65 73 98.5t143 28.5v-5q-80 -1 -116.5 -23t-47.5 -70q-7 -32 -2.5 -104.5t-4.5 -113.5q-21 -92 -170 -102l-1 -5
q139 -38 119 -133q-9 -41 -44 -109.5t-42 -100.5q-11 -48 15.5 -76.5t101.5 -47.5z" />
    <glyph glyph-name="bar" unicode="|" horiz-adv-x="153" 
d="M72 -207v877h9v-877h-9z" />
    <glyph glyph-name="braceright" unicode="}" horiz-adv-x="311" 
d="M-92 -247v5q80 1 116.5 23t47.5 71q7 32 2.5 104.5t4.5 113.5q21 94 169 102l1 5q-138 38 -118 133q9 41 44 109.5t42 100.5q11 48 -15.5 76.5t-101.5 46.5l3 4q82 -13 123.5 -57t27.5 -109q-9 -44 -44 -111.5t-42 -98.5q-9 -38 25 -61.5t107 -36.5l2 -4l-5 -4
q-152 2 -166 -66q-6 -30 -1.5 -102.5t-5.5 -115.5q-15 -65 -73 -99t-143 -29z" />
    <glyph glyph-name="asciitilde" unicode="~" horiz-adv-x="370" 
d="M244 151q-22 0 -72.5 29t-70.5 29q-41 0 -55 -50h-5q14 46 32 68t45 22q22 0 72.5 -29t70.5 -29q41 0 55 50h5q-15 -47 -32.5 -68.5t-44.5 -21.5z" />
    <glyph glyph-name="nbspace" unicode="&#xa0;" horiz-adv-x="130" 
 />
    <glyph glyph-name="exclamdown" unicode="&#xa1;" horiz-adv-x="220" 
d="M187 547q-18 0 -30 12.5t-12 29.5q0 18 12.5 31t30.5 13t31.5 -13.5t13.5 -30.5t-13.5 -29.5t-32.5 -12.5zM57 -20q-11 1 -17.5 6t-8.5 10t-0.5 16t2.5 15.5t5 16.5l115 389q1 6 6 2q1 -1 1 -3l-54 -395q-2 -15 -3.5 -21t-6.5 -17.5t-14 -15.5t-23 -3h-2z" />
    <glyph glyph-name="cent" unicode="&#xa2;" horiz-adv-x="321" 
d="M86 -5q-34 14 -53 49.5t-19 80.5q0 111 77 211t159 100q26 0 44 -9l86 177h12l-88 -182q34 -21 34 -54q0 -18 -10 -29.5t-25 -11.5q-11 0 -20.5 6.5t-12.5 17.5l-38 -79l-78 -160l-38 -80q14 -8 32 -8q37 0 67.5 25t65.5 83l7 -3q-38 -65 -76.5 -103t-85.5 -38
q-17 0 -29 4l-72 -149h-12zM288 414q-16 13 -38 13q-46 0 -86 -40q-39 -39 -68 -109.5t-29 -134.5q0 -75 39 -106zM290 393l14 6l-7 8z" />
    <glyph glyph-name="sterling" unicode="&#xa3;" horiz-adv-x="503" 
d="M189 291h-112l4 10h107v33q0 124 65.5 210.5t163.5 86.5q50 0 82.5 -19.5t32.5 -49.5q0 -16 -11 -28t-27 -12q-27 0 -31.5 25t21.5 48q-27 27 -71 27q-55 0 -96 -38t-54 -99q-8 -36 -15 -184h127l2 -10h-130q-3 -42 -10 -78q-15 -68 -69 -140q121 -39 168 -39
q88 0 114 113l5 -1q-11 -74 -53 -115t-94 -41q-14 0 -27 1.5t-26.5 6l-22.5 7.5t-23 10.5t-20 10.5t-21.5 13t-19.5 12q-59 -62 -114 -62q-26 0 -41.5 14t-15.5 34q0 24 20.5 42.5t54.5 18.5t101 -20q39 60 39 111q0 12 -3 102zM137 57q-54 28 -96 28q-26 0 -40 -13.5
t-14 -35.5q0 -16 13 -27t33 -11q54 0 104 59z" />
    <glyph glyph-name="currency" unicode="&#xa4;" 
d="M370 213l-8 -8l-57 56q-38 -35 -89 -35t-89 35l-57 -56l-8 8l56 57q-34 38 -34 89t34 89l-56 57l8 8l57 -56q37 35 88.5 35t89.5 -35l57 56l8 -8l-56 -57q34 -38 34 -89t-34 -89zM131 274q35 -35 85 -35t85 35t35 85t-35 85t-85 35t-85 -35t-35 -85t35 -85z" />
    <glyph glyph-name="yen" unicode="&#xa5;" horiz-adv-x="585" 
d="M282 289h-191l-3 10h191l-93 245q-11 30 -16.5 41t-19.5 20.5t-39 11.5l-25 2l-1 6h241l-4 -6l-37 -1q-34 -1 -41 -13t5 -46l91 -252l2 -1l146 196q40 55 48.5 76t-3 28.5t-56.5 10.5l-25 2l-1 6h223l-4 -6l-17 -1q-47 -2 -70.5 -20t-85.5 -101l-149 -198h180l-3 -10
h-180l-26 -120h179l3 -10h-184l-29 -136q0 -3 1 -4.5t7 -3.5t17.5 -3.5t30.5 -2.5l38 -3l1 -6h-263l3 6l51 4q50 4 52 16l28 133h-193l3 10h192z" />
    <glyph glyph-name="brokenbar" unicode="&#xa6;" horiz-adv-x="153" 
d="M72 292v335h9v-335h-9zM72 -154v335h9v-335h-9z" />
    <glyph glyph-name="section" unicode="&#xa7;" horiz-adv-x="396" 
d="M147 -45q-48 0 -79.5 23.5t-31.5 51.5q0 14 9.5 25.5t25.5 11.5t24 -13.5t1.5 -29t-25.5 -19.5q29 -42 76 -42q43 0 71.5 25.5t28.5 53.5q0 66 -100 135q-98 65 -98 134q0 43 38.5 81.5t85.5 56.5q-26 31 -26 74t36.5 81t90.5 38q46 0 75.5 -23.5t29.5 -51.5
q0 -14 -9.5 -25.5t-25.5 -11.5t-24 13t-2 28t25 21q-15 22 -30 32t-44 10q-38 0 -61 -26.5t-23 -59.5q0 -25 16 -48t31 -34.5t49 -35.5q102 -70 102 -139q0 -42 -38.5 -78.5t-91.5 -60.5q29 -36 29 -80q0 -42 -40 -79.5t-95 -37.5zM247 158q38 13 68 42.5t30 67.5
q0 61 -95 122q-50 32 -70 53q-37 -11 -65 -41.5t-28 -68.5q0 -32 23 -58.5t67 -56.5q48 -33 70 -60z" />
    <glyph glyph-name="dieresis" unicode="&#xa8;" horiz-adv-x="370" 
d="M325 509q-17 0 -27 12t-10 25q0 14 9.5 27.5t27.5 13.5t27.5 -13.5t9.5 -27.5q0 -13 -10 -25t-27 -12zM185 509q-17 0 -27 12t-10 25q0 14 9.5 27.5t27.5 13.5t27.5 -13.5t9.5 -27.5q0 -13 -10 -25t-27 -12z" />
    <glyph glyph-name="copyright" unicode="&#xa9;" horiz-adv-x="704" 
d="M364 -14q-136 0 -231.5 95.5t-95.5 231.5t95.5 232t231.5 96t231.5 -96t95.5 -232t-95.5 -231.5t-231.5 -95.5zM364 -5q131 0 224 93.5t93 224.5t-93 225t-224 94t-224 -94t-93 -225t93 -224.5t224 -93.5zM373 115q-89 0 -146.5 55t-57.5 141t57.5 142t148.5 56
q56 0 101 -29l30 14l8 -102h-2l-46 80q-44 31 -93 31q-72 0 -116.5 -52.5t-44.5 -134.5q0 -86 46.5 -140.5t118.5 -54.5q48 0 77 21.5t56 67.5l15 26h2l-22 -91l-20 -5q-53 -25 -112 -25z" />
    <glyph glyph-name="ordfeminine" unicode="&#xaa;" horiz-adv-x="317" 
d="M130 285q-26 0 -43.5 19t-17.5 50q0 58 40 126t88 117q35 35 65 35q45 0 44 -71l2 5l22 71l38 -3l-58 -170l-47 -149l35 -4l57 88l5 -2q-57 -112 -102 -112q-11 0 -17 15.5t-6 35.5q0 18 32 99l-1 1q-49 -82 -78.5 -116.5t-57.5 -34.5zM151 316q48 0 126 163q19 40 19 65
q0 22 -15.5 44t-40.5 22q-17 0 -43 -23q-32 -32 -59 -98t-27 -116q0 -27 12 -42t28 -15z" />
    <glyph glyph-name="guillemotleft" unicode="&#xab;" horiz-adv-x="359" 
d="M307 57l-141 166l1 4l210 160l3 -2l-154 -166l86 -159zM154 67l-143 156l1 4l208 150l3 -2l-152 -157l87 -149z" />
    <glyph glyph-name="logicalnot" unicode="&#xac;" 
d="M406 307v-170h-12v158h-387l3 12h396z" />
    <glyph glyph-name="uni00AD" unicode="&#xad;" horiz-adv-x="280" 
d="M23 234l7 20h239l-7 -20h-239z" />
    <glyph glyph-name="registered" unicode="&#xae;" horiz-adv-x="704" 
d="M364 -14q-136 0 -231.5 95.5t-95.5 231.5t95.5 232t231.5 96t231.5 -96t95.5 -232t-95.5 -231.5t-231.5 -95.5zM364 -5q131 0 224 93.5t93 224.5t-93 225t-224 94t-224 -94t-93 -225t93 -224.5t224 -93.5zM199 127l2 4l30 3q9 1 19 4.5t10 6.5v342q0 7 -32 9l-25 2l-3 4
h147q66 0 103 -25t37 -69q0 -34 -27.5 -60.5t-66.5 -34.5l90 -141q11 -17 21 -25.5t17 -10t23 -4.5l6 -1l3 -4h-85l-4 8l-110 175q-36 6 -55 11v-180q0 -5 35 -8l23 -2l2 -4h-160zM354 319q42 0 66.5 23.5t24.5 65.5q0 41 -30 64.5t-83 22.5l-33 -1v-164q26 -11 55 -11z" />
    <glyph glyph-name="macron" unicode="&#xaf;" horiz-adv-x="370" 
d="M122 521l11 25h250l-11 -25h-250z" />
    <glyph glyph-name="degree" unicode="&#xb0;" horiz-adv-x="283" 
d="M205 380q-58 0 -93 38t-35 92t35 92t92 38t92 -38t35 -92t-35 -92t-91 -38zM205 392q51 0 81.5 34t30.5 84q0 49 -31 83.5t-82 34.5t-82 -34.5t-31 -83.5q0 -50 31.5 -84t82.5 -34z" />
    <glyph glyph-name="plusminus" unicode="&#xb1;" 
d="M211 84v167h-204l2 12h202v173h12v-173h201l2 -12h-203v-167h-12zM416 37h-399l2 12h395z" />
    <glyph glyph-name="twosuperior" unicode="&#xb2;" horiz-adv-x="257" 
d="M-14 253l-1 4q46 38 66 55t52 45.5t45.5 44.5t30 38.5t23.5 42.5t9 42q4 39 -15 62t-51 23q-41 0 -80 -52l-4 3q51 79 116 79q38 0 62 -27t20 -66q-1 -19 -7 -36t-19.5 -36t-24 -32t-35 -35.5t-38.5 -34t-48.5 -39.5t-50.5 -42v-1h153q8 0 24.5 18t34.5 51l3 6l3 -1
l-48 -112h-220z" />
    <glyph glyph-name="threesuperior" unicode="&#xb3;" horiz-adv-x="238" 
d="M85 230q-87 0 -87 44q0 11 9 19.5t21 8.5q18 0 26 -16.5t-7 -37.5q22 -12 43 -12q44 0 73 32.5t29 80.5q0 38 -23.5 60.5t-65.5 22.5q-18 0 -38 -5l-1 4q80 34 111 59.5t31 62.5q0 26 -16.5 43t-44.5 17q-22 0 -43 -15t-35 -39l-4 3q44 78 112 78q33 0 55 -20.5t22 -49.5
q0 -67 -114 -109v-2h3q41 -2 67.5 -29.5t26.5 -65.5q0 -52 -45.5 -93t-104.5 -41z" />
    <glyph glyph-name="acute" unicode="&#xb4;" horiz-adv-x="370" 
d="M204 491l158 187h64l-218 -187h-4z" />
    <glyph glyph-name="mu" unicode="&#xb5;" horiz-adv-x="498" 
d="M192 -213h-182l3 6l18 1q38 3 41 8q1 2 1 5v596q0 4 -2 5.5t-13 3t-36 3.5l-14 1l-3 6h123l1 -326q0 -28 27 -48t70 -20q68 0 121 59v276q0 31 -9.5 40.5t-40.5 11.5l-14 1l-3 6h124v-368q0 -18 6.5 -26t28.5 -10l29 -1l-1 -6l-120 -26l4 91h-1q-32 -44 -60.5 -66
t-62.5 -22q-68 0 -96 68h-2v-249q0 -8 7.5 -9.5t34.5 -3.5l18 -1z" />
    <glyph glyph-name="mu" unicode="&#x3bc;" horiz-adv-x="498" 
d="M192 -213h-182l3 6l18 1q38 3 41 8q1 2 1 5v596q0 4 -2 5.5t-13 3t-36 3.5l-14 1l-3 6h123l1 -326q0 -28 27 -48t70 -20q68 0 121 59v276q0 31 -9.5 40.5t-40.5 11.5l-14 1l-3 6h124v-368q0 -18 6.5 -26t28.5 -10l29 -1l-1 -6l-120 -26l4 91h-1q-32 -44 -60.5 -66
t-62.5 -22q-68 0 -96 68h-2v-249q0 -8 7.5 -9.5t34.5 -3.5l18 -1z" />
    <glyph glyph-name="paragraph" unicode="&#xb6;" horiz-adv-x="396" 
d="M282 -31l70 334h-13q-118 0 -188.5 37t-70.5 111q0 84 63.5 129.5t186.5 45.5h102l-140 -657h-10z" />
    <glyph glyph-name="periodcentered" unicode="&#xb7;" horiz-adv-x="168" 
d="M82 162q-19 0 -32 13.5t-13 31.5q0 17 13.5 30t32.5 13q18 0 30 -13t12 -30q0 -18 -12.5 -31.5t-30.5 -13.5z" />
    <glyph glyph-name="cedilla" unicode="&#xb8;" horiz-adv-x="370" 
d="M-5 -234l-1 5q74 0 117.5 21.5t43.5 57.5q0 20 -19 32.5t-51 12.5q-18 0 -60 -9l2 6l110 99h9l-73 -66q55 7 86.5 -10.5t31.5 -49.5q0 -50 -56 -75.5t-140 -23.5z" />
    <glyph glyph-name="onesuperior" unicode="&#xb9;" horiz-adv-x="214" 
d="M20 253l3 4l20 1q30 1 31 10l71 340l-60 9l2 3l111 14l-79 -368q-1 -2 1 -4t10 -3.5t22 -1.5h17l1 -4h-150z" />
    <glyph glyph-name="ordmasculine" unicode="&#xba;" horiz-adv-x="277" 
d="M162 286q-43 0 -63 36t-20 88q0 79 50.5 152.5t106.5 73.5q40 0 64 -37t24 -97q0 -80 -51.5 -148t-110.5 -68zM152 294q35 0 68.5 39t51.5 97q16 51 16 113q0 85 -43 85q-32 0 -64 -47t-52 -111q-16 -50 -16 -99q0 -77 39 -77z" />
    <glyph glyph-name="guillemotright" unicode="&#xbb;" horiz-adv-x="359" 
d="M141 67l-2 2l151 156l-88 148l4 3l145 -155l-1 -3zM-16 57l-2 2l153 166l-87 159l5 3l143 -166l-1 -3z" />
    <glyph glyph-name="onequarter" unicode="&#xbc;" horiz-adv-x="577" 
d="M419 -123l22 106h-156v2l244 279h15l-52 -247h66l-14 -34h-60l-23 -106h-42zM322 17h126l40 188h-1zM20 253l3 4l20 1q30 1 31 10l71 340l-60 9l2 3l111 14l-79 -368q-1 -2 1 -4t10 -3.5t22 -1.5h17l1 -4h-150zM-61 -123l698 755h16l-698 -755h-16z" />
    <glyph glyph-name="onehalf" unicode="&#xbd;" horiz-adv-x="595" 
d="M304 -123l-1 4q46 38 66 55t52 45.5t45.5 44.5t30 38.5t23.5 42.5t9 42q4 39 -15 62t-51 23q-41 0 -80 -52l-4 3q51 79 116 79q38 0 62 -27t20 -66q-1 -19 -7 -36t-19.5 -36t-24 -32t-35 -35.5t-38.5 -34t-48.5 -39.5t-50.5 -42v-1h153q8 0 24.5 18t34.5 51l3 6l3 -1
l-48 -112h-220zM20 253l3 4l20 1q30 1 31 10l71 340l-60 9l2 3l111 14l-79 -368q-1 -2 1 -4t10 -3.5t22 -1.5h17l1 -4h-150zM-61 -123l698 755h16l-698 -755h-16z" />
    <glyph glyph-name="threequarters" unicode="&#xbe;" horiz-adv-x="561" 
d="M403 -123l22 106h-156v2l244 279h15l-52 -247h66l-14 -34h-60l-23 -106h-42zM85 230q-87 0 -87 44q0 11 9 19.5t21 8.5q18 0 26 -16.5t-7 -37.5q22 -12 43 -12q44 0 73 32.5t29 80.5q0 38 -23.5 60.5t-65.5 22.5q-18 0 -38 -5l-1 4q80 34 111 59.5t31 62.5q0 26 -16.5 43
t-44.5 17q-22 0 -43 -15t-35 -39l-4 3q44 78 112 78q33 0 55 -20.5t22 -49.5q0 -67 -114 -109v-2h3q41 -2 67.5 -29.5t26.5 -65.5q0 -52 -45.5 -93t-104.5 -41zM-77 -123l698 755h16l-698 -755h-16zM306 17h126l40 188h-1z" />
    <glyph glyph-name="questiondown" unicode="&#xbf;" horiz-adv-x="299" 
d="M232 554q-18 0 -30 12.5t-12 29.5q0 18 12.5 31t30.5 13q19 0 32 -13t13 -31q0 -17 -13.5 -29.5t-32.5 -12.5zM157 -14q-63 0 -104.5 41t-41.5 102q0 59 25.5 90t103.5 61q51 19 75 36.5t24 45.5q0 36 -50 86h6q26 -22 48 -52t22 -51q0 -33 -24 -59.5t-100 -56.5
q-72 -28 -95 -46.5t-23 -46.5q0 -36 31.5 -64.5t101.5 -28.5q39 0 73 10q5 -7 5 -14q0 -53 -77 -53z" />
    <glyph glyph-name="Agrave" unicode="&#xc0;" horiz-adv-x="606" 
d="M384 274h-190l-88 -161q-40 -66 -35.5 -82.5t67.5 -22.5l20 -2l1 -6h-206l3 6l16 2q48 6 68.5 29.5t92.5 146.5l214 386l-4 24q23 10 46 39h7l72 -556q6 -42 16 -54.5t44 -14.5l27 -2l1 -6h-229l3 6l27 1q60 2 56 33zM200 284h183l-33 270h-2zM401 658l-140 187h57
l87 -187h-4z" />
    <glyph glyph-name="Aacute" unicode="&#xc1;" horiz-adv-x="606" 
d="M384 274h-190l-88 -161q-40 -66 -35.5 -82.5t67.5 -22.5l20 -2l1 -6h-206l3 6l16 2q48 6 68.5 29.5t92.5 146.5l214 386l-4 24q23 10 46 39h7l72 -556q6 -42 16 -54.5t44 -14.5l27 -2l1 -6h-229l3 6l27 1q60 2 56 33zM200 284h183l-33 270h-2zM345 658l158 187h64
l-218 -187h-4z" />
    <glyph glyph-name="Acircumflex" unicode="&#xc2;" horiz-adv-x="606" 
d="M384 274h-190l-88 -161q-40 -66 -35.5 -82.5t67.5 -22.5l20 -2l1 -6h-206l3 6l16 2q48 6 68.5 29.5t92.5 146.5l214 386l-4 24q23 10 46 39h7l72 -556q6 -42 16 -54.5t44 -14.5l27 -2l1 -6h-229l3 6l27 1q60 2 56 33zM200 284h183l-33 270h-2zM266 648l155 177h3l82 -177
h-4l-89 114h-3l-140 -114h-4z" />
    <glyph glyph-name="Atilde" unicode="&#xc3;" horiz-adv-x="606" 
d="M384 274h-190l-88 -161q-40 -66 -35.5 -82.5t67.5 -22.5l20 -2l1 -6h-206l3 6l16 2q48 6 68.5 29.5t92.5 146.5l214 386l-4 24q23 10 46 39h7l72 -556q6 -42 16 -54.5t44 -14.5l27 -2l1 -6h-229l3 6l27 1q60 2 56 33zM200 284h183l-33 270h-2zM455 665q-22 0 -72.5 29
t-70.5 29q-41 0 -55 -50h-5q14 46 32 68t45 22q22 0 72.5 -29t70.5 -29q41 0 55 50h5q-15 -47 -32.5 -68.5t-44.5 -21.5z" />
    <glyph glyph-name="Adieresis" unicode="&#xc4;" horiz-adv-x="606" 
d="M384 274h-190l-88 -161q-40 -66 -35.5 -82.5t67.5 -22.5l20 -2l1 -6h-206l3 6l16 2q48 6 68.5 29.5t92.5 146.5l214 386l-4 24q23 10 46 39h7l72 -556q6 -42 16 -54.5t44 -14.5l27 -2l1 -6h-229l3 6l27 1q60 2 56 33zM200 284h183l-33 270h-2zM461 676q-17 0 -27 12
t-10 25q0 14 9.5 27.5t27.5 13.5t27.5 -13.5t9.5 -27.5q0 -13 -10 -25t-27 -12zM321 676q-17 0 -27 12t-10 25q0 14 9.5 27.5t27.5 13.5t27.5 -13.5t9.5 -27.5q0 -13 -10 -25t-27 -12z" />
    <glyph glyph-name="Aring" unicode="&#xc5;" horiz-adv-x="606" 
d="M384 275h-189l-90 -162q-15 -25 -21.5 -38t-11 -26.5t-2.5 -18.5t10.5 -10.5t21.5 -7.5t36 -4l20 -2l1 -6h-206l3 6l16 2q28 3 40.5 7t32 25.5t35 48t54.5 94.5l238 434q-28 8 -44.5 32t-16.5 54q0 37 24.5 63.5t64.5 26.5t64.5 -26.5t24.5 -63.5q0 -38 -25 -64t-66 -26
l70 -536q6 -42 16 -54.5t44 -14.5l27 -2l1 -6h-229l3 6l27 1q60 2 56 33zM400 622q36 0 57.5 23.5t21.5 57.5t-21.5 57.5t-57.5 23.5t-57.5 -23.5t-21.5 -57.5t21.5 -57.5t57.5 -23.5zM199 284h184l-33 268h-2q-148 -268 -149 -268z" />
    <glyph glyph-name="AE" unicode="&#xc6;" horiz-adv-x="828" 
d="M410 275h-192l-105 -132q-66 -83 -73 -101q-9 -23 22 -30q11 -3 29 -4l37 -3l2 -5h-227l3 6l43 4q29 2 58 27.5t103 116.5l350 439q11 12 -18 18q-18 4 -49 6l-38 2l-1 6h453l16 -160h-4l-5 15q-26 78 -53 107t-75 29h-140l-59 -279l98 1q35 0 53 7t26 18t21 40q3 7 5 11
l6 12l4 -1h1l-40 -190l-5 1l1 12q4 54 -8 65.5t-74 12.5l-90 2l-67 -314l169 -4q66 1 111.5 39t92.5 111l9 14l6 -1l-83 -173h-471l1 2l2 4l1 3l50 4q50 4 52 16zM224 284h187l67 317h-3q-250 -317 -251 -317z" />
    <glyph glyph-name="Ccedilla" unicode="&#xc7;" horiz-adv-x="658" 
d="M339 -15q-132 5 -211.5 83t-79.5 196q0 154 106.5 264.5t261.5 110.5q125 0 201 -63l44 16l-23 -167h-4l-34 144q-20 22 -71 41.5t-104 19.5q-134 0 -221.5 -115t-87.5 -271q0 -114 62.5 -182.5t175.5 -68.5q69 0 120 31t103 94l32 39l4 -1l-66 -143l-35 -3
q-77 -25 -156 -25h-8l-66 -60q55 7 86.5 -10.5t31.5 -49.5q0 -50 -56 -75.5t-140 -23.5l-1 5q74 0 117.5 21.5t43.5 57.5q0 20 -19 32.5t-51 12.5q-18 0 -60 -9l2 6q7 6 17.5 15.5t33 30t37.5 34.5z" />
    <glyph glyph-name="Egrave" unicode="&#xc8;" horiz-adv-x="552" 
d="M-24 0l3 6l41 4q50 4 52 16l122 576q0 3 -1 4.5t-7.5 3t-17 3t-30.5 3.5l-28 3l-1 6h412l16 -160h-4l-5 15q-26 78 -53 107t-75 29h-140l-59 -279l97 1q23 0 38 3.5t23.5 5.5t18 16t12 19.5t14.5 31.5l6 12l4 -1h1l-40 -190l-5 1l1 12q4 54 -7.5 65.5t-73.5 12.5l-91 2
l-67 -315l169 -4q66 1 111.5 39t92.5 112l9 14l6 -1l-83 -173h-461zM355 658l-140 187h57l87 -187h-4z" />
    <glyph glyph-name="Eacute" unicode="&#xc9;" horiz-adv-x="552" 
d="M-24 0l3 6l41 4q50 4 52 16l122 576q0 3 -1 4.5t-7.5 3t-17 3t-30.5 3.5l-28 3l-1 6h412l16 -160h-4l-5 15q-26 78 -53 107t-75 29h-140l-59 -279l97 1q23 0 38 3.5t23.5 5.5t18 16t12 19.5t14.5 31.5l6 12l4 -1h1l-40 -190l-5 1l1 12q4 54 -7.5 65.5t-73.5 12.5l-91 2
l-67 -315l169 -4q66 1 111.5 39t92.5 112l9 14l6 -1l-83 -173h-461zM332 658l158 187h64l-218 -187h-4z" />
    <glyph glyph-name="Ecircumflex" unicode="&#xca;" horiz-adv-x="552" 
d="M-24 0l3 6l41 4q50 4 52 16l122 576q0 3 -1 4.5t-7.5 3t-17 3t-30.5 3.5l-28 3l-1 6h412l16 -160h-4l-5 15q-26 78 -53 107t-75 29h-140l-59 -279l97 1q23 0 38 3.5t23.5 5.5t18 16t12 19.5t14.5 31.5l6 12l4 -1h1l-40 -190l-5 1l1 12q4 54 -7.5 65.5t-73.5 12.5l-91 2
l-67 -315l169 -4q66 1 111.5 39t92.5 112l9 14l6 -1l-83 -173h-461zM225 648l155 177h3l82 -177h-4l-89 114h-3l-140 -114h-4z" />
    <glyph glyph-name="Edieresis" unicode="&#xcb;" horiz-adv-x="552" 
d="M-24 0l3 6l41 4q50 4 52 16l122 576q0 3 -1 4.5t-7.5 3t-17 3t-30.5 3.5l-28 3l-1 6h412l16 -160h-4l-5 15q-26 78 -53 107t-75 29h-140l-59 -279l97 1q23 0 38 3.5t23.5 5.5t18 16t12 19.5t14.5 31.5l6 12l4 -1h1l-40 -190l-5 1l1 12q4 54 -7.5 65.5t-73.5 12.5l-91 2
l-67 -315l169 -4q66 1 111.5 39t92.5 112l9 14l6 -1l-83 -173h-461zM413 676q-17 0 -27 12t-10 25q0 14 9.5 27.5t27.5 13.5t27.5 -13.5t9.5 -27.5q0 -13 -10 -25t-27 -12zM273 676q-17 0 -27 12t-10 25q0 14 9.5 27.5t27.5 13.5t27.5 -13.5t9.5 -27.5q0 -13 -10 -25
t-27 -12z" />
    <glyph glyph-name="Igrave" unicode="&#xcc;" horiz-adv-x="307" 
d="M-14 0l3 6l41 4q50 4 52 16l122 576q0 3 -1 4.5t-7 3t-17 3t-31 3.5l-28 3l-1 6h243l-4 -6l-40 -4q-50 -4 -52 -16l-122 -576q0 -3 1 -4.5t7 -3t17 -3t31 -3.5l28 -3l1 -6h-243zM266 658l-140 187h57l87 -187h-4z" />
    <glyph glyph-name="Iacute" unicode="&#xcd;" horiz-adv-x="307" 
d="M-14 0l3 6l41 4q50 4 52 16l122 576q0 3 -1 4.5t-7 3t-17 3t-31 3.5l-28 3l-1 6h243l-4 -6l-40 -4q-50 -4 -52 -16l-122 -576q0 -3 1 -4.5t7 -3t17 -3t31 -3.5l28 -3l1 -6h-243zM210 658l158 187h64l-218 -187h-4z" />
    <glyph glyph-name="Icircumflex" unicode="&#xce;" horiz-adv-x="307" 
d="M-14 0l3 6l41 4q50 4 52 16l122 576q0 3 -1 4.5t-7 3t-17 3t-31 3.5l-28 3l-1 6h243l-4 -6l-40 -4q-50 -4 -52 -16l-122 -576q0 -3 1 -4.5t7 -3t17 -3t31 -3.5l28 -3l1 -6h-243zM118 648l155 177h3l82 -177h-4l-89 114h-3l-140 -114h-4z" />
    <glyph glyph-name="Idieresis" unicode="&#xcf;" horiz-adv-x="307" 
d="M-14 0l3 6l41 4q50 4 52 16l122 576q0 3 -1 4.5t-7 3t-17 3t-31 3.5l-28 3l-1 6h243l-4 -6l-40 -4q-50 -4 -52 -16l-122 -576q0 -3 1 -4.5t7 -3t17 -3t31 -3.5l28 -3l1 -6h-243zM311 676q-17 0 -27 12t-10 25q0 14 9.5 27.5t27.5 13.5t27.5 -13.5t9.5 -27.5
q0 -13 -10 -25t-27 -12zM171 676q-17 0 -27 12t-10 25q0 14 9.5 27.5t27.5 13.5t27.5 -13.5t9.5 -27.5q0 -13 -10 -25t-27 -12z" />
    <glyph glyph-name="Eth" unicode="&#xd0;" horiz-adv-x="666" 
d="M132 308h-77l6 12h73l60 282q1 5 -7 7q-7 2 -49 7l-24 3l-1 6h242q128 0 202.5 -77t74.5 -193q0 -160 -109 -257.5t-305 -97.5h-238l3 6l37 4q50 6 52 16zM197 320h154v-12h-157l-60 -285l111 -13q103 0 177 52.5t108.5 134.5t34.5 183q0 236 -222 236h-83z" />
    <glyph glyph-name="Ntilde" unicode="&#xd1;" horiz-adv-x="673" 
d="M517 -6l-298 583h-1l-115 -543q-4 -23 77 -27l18 -1l1 -6h-207l3 6l20 2q72 6 77 28l120 551q-13 19 -90 30l-12 2l-1 6h154l270 -527h2l104 493q4 23 -76 27l-18 1l-1 6h207l-4 -6l-19 -2q-73 -7 -78 -28l-129 -595h-4zM503 665q-22 0 -72.5 29t-70.5 29q-41 0 -55 -50
h-5q14 46 32 68t45 22q22 0 72.5 -29t70.5 -29q41 0 55 50h5q-15 -47 -32.5 -68.5t-44.5 -21.5z" />
    <glyph glyph-name="Ograve" unicode="&#xd2;" horiz-adv-x="700" 
d="M341 -13q-131 0 -209 84t-78 210q0 139 100.5 248t245.5 109q128 0 207.5 -85.5t79.5 -210.5q0 -153 -104.5 -254t-241.5 -101zM342 -4q121 0 199 106t78 264q0 117 -59 190t-162 73q-83 0 -147.5 -54.5t-97.5 -139.5t-33 -182q0 -116 57.5 -186.5t164.5 -70.5zM422 658
l-140 187h57l87 -187h-4z" />
    <glyph glyph-name="Oacute" unicode="&#xd3;" horiz-adv-x="700" 
d="M341 -13q-131 0 -209 84t-78 210q0 139 100.5 248t245.5 109q128 0 207.5 -85.5t79.5 -210.5q0 -153 -104.5 -254t-241.5 -101zM342 -4q121 0 199 106t78 264q0 117 -59 190t-162 73q-83 0 -147.5 -54.5t-97.5 -139.5t-33 -182q0 -116 57.5 -186.5t164.5 -70.5zM386 658
l158 187h64l-218 -187h-4z" />
    <glyph glyph-name="Ocircumflex" unicode="&#xd4;" horiz-adv-x="700" 
d="M341 -13q-131 0 -209 84t-78 210q0 139 100.5 248t245.5 109q128 0 207.5 -85.5t79.5 -210.5q0 -153 -104.5 -254t-241.5 -101zM342 -4q121 0 199 106t78 264q0 117 -59 190t-162 73q-83 0 -147.5 -54.5t-97.5 -139.5t-33 -182q0 -116 57.5 -186.5t164.5 -70.5zM284 648
l155 177h3l82 -177h-4l-89 114h-3l-140 -114h-4z" />
    <glyph glyph-name="Otilde" unicode="&#xd5;" horiz-adv-x="700" 
d="M341 -13q-131 0 -209 84t-78 210q0 139 100.5 248t245.5 109q128 0 207.5 -85.5t79.5 -210.5q0 -153 -104.5 -254t-241.5 -101zM342 -4q121 0 199 106t78 264q0 117 -59 190t-162 73q-83 0 -147.5 -54.5t-97.5 -139.5t-33 -182q0 -116 57.5 -186.5t164.5 -70.5zM501 665
q-22 0 -72.5 29t-70.5 29q-41 0 -55 -50h-5q14 46 32 68t45 22q22 0 72.5 -29t70.5 -29q41 0 55 50h5q-15 -47 -32.5 -68.5t-44.5 -21.5z" />
    <glyph glyph-name="Odieresis" unicode="&#xd6;" horiz-adv-x="700" 
d="M341 -13q-131 0 -209 84t-78 210q0 139 100.5 248t245.5 109q128 0 207.5 -85.5t79.5 -210.5q0 -153 -104.5 -254t-241.5 -101zM342 -4q121 0 199 106t78 264q0 117 -59 190t-162 73q-83 0 -147.5 -54.5t-97.5 -139.5t-33 -182q0 -116 57.5 -186.5t164.5 -70.5zM507 676
q-17 0 -27 12t-10 25q0 14 9.5 27.5t27.5 13.5t27.5 -13.5t9.5 -27.5q0 -13 -10 -25t-27 -12zM367 676q-17 0 -27 12t-10 25q0 14 9.5 27.5t27.5 13.5t27.5 -13.5t9.5 -27.5q0 -13 -10 -25t-27 -12z" />
    <glyph glyph-name="multiply" unicode="&#xd7;" 
d="M390 56l-173 173l-173 -173l-8 8l173 173l-173 173l8 8l173 -173l173 173l8 -8l-173 -173l173 -173z" />
    <glyph glyph-name="Oslash" unicode="&#xd8;" horiz-adv-x="700" 
d="M585 574q102 -86 102 -231q0 -153 -105 -255t-241 -102q-103 0 -175 55l-89 -114h-13l94 120q-104 84 -104 235q0 139 100.5 248t245.5 109q102 0 177 -59l85 109h13q-58 -74 -90 -115zM175 69q24 31 64 81.5t124 157.5t140 178l56 71q-59 73 -161 73q-83 0 -147.5 -54.5
t-97.5 -139.5t-33 -182q0 -117 55 -185zM566 549l-96 -122l-192 -244l-96 -122q59 -67 160 -67q120 0 198.5 107.5t78.5 265.5q0 112 -53 182z" />
    <glyph glyph-name="Ugrave" unicode="&#xd9;" horiz-adv-x="647" 
d="M326 -16q-105 0 -165.5 42.5t-60.5 123.5q0 35 9 77l80 375q0 3 -1 4.5t-7 3.5t-17.5 3.5t-30.5 2.5l-38 3l-1 6h263l-4 -6l-50 -4q-50 -4 -52 -16l-79 -376q-8 -42 -8 -70q0 -69 48 -105t140 -36q80 0 128 48.5t70 151.5l80 379q4 23 -79 27l-18 1l-1 6h208l-4 -6
l-19 -2q-71 -6 -76 -28l-82 -381q-47 -224 -233 -224zM467 658l-140 187h57l87 -187h-4z" />
    <glyph glyph-name="Uacute" unicode="&#xda;" horiz-adv-x="647" 
d="M326 -16q-105 0 -165.5 42.5t-60.5 123.5q0 35 9 77l80 375q0 3 -1 4.5t-7 3.5t-17.5 3.5t-30.5 2.5l-38 3l-1 6h263l-4 -6l-50 -4q-50 -4 -52 -16l-79 -376q-8 -42 -8 -70q0 -69 48 -105t140 -36q80 0 128 48.5t70 151.5l80 379q4 23 -79 27l-18 1l-1 6h208l-4 -6
l-19 -2q-71 -6 -76 -28l-82 -381q-47 -224 -233 -224zM391 658l158 187h64l-218 -187h-4z" />
    <glyph glyph-name="Ucircumflex" unicode="&#xdb;" horiz-adv-x="647" 
d="M326 -16q-105 0 -165.5 42.5t-60.5 123.5q0 35 9 77l80 375q0 3 -1 4.5t-7 3.5t-17.5 3.5t-30.5 2.5l-38 3l-1 6h263l-4 -6l-50 -4q-50 -4 -52 -16l-79 -376q-8 -42 -8 -70q0 -69 48 -105t140 -36q80 0 128 48.5t70 151.5l80 379q4 23 -79 27l-18 1l-1 6h208l-4 -6
l-19 -2q-71 -6 -76 -28l-82 -381q-47 -224 -233 -224zM309 648l155 177h3l82 -177h-4l-89 114h-3l-140 -114h-4z" />
    <glyph glyph-name="Udieresis" unicode="&#xdc;" horiz-adv-x="647" 
d="M326 -16q-105 0 -165.5 42.5t-60.5 123.5q0 35 9 77l80 375q0 3 -1 4.5t-7 3.5t-17.5 3.5t-30.5 2.5l-38 3l-1 6h263l-4 -6l-50 -4q-50 -4 -52 -16l-79 -376q-8 -42 -8 -70q0 -69 48 -105t140 -36q80 0 128 48.5t70 151.5l80 379q4 23 -79 27l-18 1l-1 6h208l-4 -6
l-19 -2q-71 -6 -76 -28l-82 -381q-47 -224 -233 -224zM510 676q-17 0 -27 12t-10 25q0 14 9.5 27.5t27.5 13.5t27.5 -13.5t9.5 -27.5q0 -13 -10 -25t-27 -12zM370 676q-17 0 -27 12t-10 25q0 14 9.5 27.5t27.5 13.5t27.5 -13.5t9.5 -27.5q0 -13 -10 -25t-27 -12z" />
    <glyph glyph-name="Yacute" unicode="&#xdd;" horiz-adv-x="595" 
d="M120 0l3 6l51 4q50 4 52 16l54 256l-94 262q-8 23 -12 32t-12.5 20t-20 15.5t-30.5 5.5l-25 2l-1 6h241l-4 -6l-37 -1q-34 -1 -41 -13t5 -46l91 -256h2l145 197q39 54 48 76t-3.5 30t-56.5 11l-25 2l-1 6h225l-4 -6l-17 -1q-47 -2 -70 -20t-86 -101l-153 -207l-56 -267
q0 -3 1 -4.5t7 -3.5t17.5 -3.5t30.5 -2.5l38 -3l1 -6h-263zM375 658l158 187h64l-218 -187h-4z" />
    <glyph glyph-name="Thorn" unicode="&#xde;" horiz-adv-x="524" 
d="M-34 0l3 6l51 4q50 4 52 16l122 576q0 3 -1 4.5t-7 3.5t-17.5 3.5t-30.5 2.5l-38 3l-1 6h263l-4 -6l-50 -4q-50 -4 -52 -16l-24 -114h84q93 0 149 -43t56 -107q0 -73 -61.5 -122t-163.5 -49q-67 0 -129 20l-33 -161q-1 -4 2.5 -6t16 -4.5t37.5 -3.5l48 -3l1 -6h-273z
M288 173q78 0 122 48t44 130q0 57 -36.5 90t-114.5 33h-74l-58 -275q58 -26 117 -26z" />
    <glyph glyph-name="germandbls" unicode="&#xdf;" horiz-adv-x="441" 
d="M284 407q51 -34 91.5 -105.5t40.5 -133.5q0 -74 -44 -125t-108 -51q-41 0 -74 23t-33 55q0 23 12.5 38t33.5 15q25 0 30 -25q6 -27 -16 -40q-13 -8 -31 -4q7 -23 27 -38.5t51 -15.5q47 0 72.5 41.5t25.5 110.5q0 62 -36.5 130.5t-102.5 120.5l1 5q73 0 118 42t45 101
q0 43 -19 71.5t-55 28.5q-54 0 -79 -44.5t-53 -184.5l-66 -288q-51 -219 -114 -282q-31 -32 -78 -32q-36 0 -54.5 14t-18.5 36q0 19 11 29.5t26 10.5q24 0 30.5 -21t-19.5 -48q24 -11 34 -11q32 0 50.5 18t40 84.5t48.5 203.5l50 258l-74 1l9 26l74 1q30 121 71.5 180
t110.5 59q57 0 92.5 -31t35.5 -83q0 -56 -43 -92t-113 -48z" />
    <glyph glyph-name="agrave" unicode="&#xe0;" horiz-adv-x="406" 
d="M251 -13q-13 0 -21.5 20.5t-8.5 45.5q0 24 41 129h-2q-61 -105 -98.5 -149t-73.5 -44q-33 0 -56 24.5t-23 64.5q0 74 51.5 162.5t112.5 149.5q42 42 83 42q58 0 57 -90h1l29 96l50 -4l-75 -217l-60 -191l45 -5l73 114l6 -3q-72 -145 -131 -145zM115 30q59 0 161 205
q24 48 24 84q0 29 -20 57t-52 28q-27 0 -54 -27q-41 -41 -76 -126.5t-35 -150.5q0 -35 15.5 -52.5t36.5 -17.5zM261 491l-140 187h57l87 -187h-4z" />
    <glyph glyph-name="aacute" unicode="&#xe1;" horiz-adv-x="406" 
d="M251 -13q-13 0 -21.5 20.5t-8.5 45.5q0 24 41 129h-2q-61 -105 -98.5 -149t-73.5 -44q-33 0 -56 24.5t-23 64.5q0 74 51.5 162.5t112.5 149.5q42 42 83 42q58 0 57 -90h1l29 96l50 -4l-75 -217l-60 -191l45 -5l73 114l6 -3q-72 -145 -131 -145zM115 30q59 0 161 205
q24 48 24 84q0 29 -20 57t-52 28q-27 0 -54 -27q-41 -41 -76 -126.5t-35 -150.5q0 -35 15.5 -52.5t36.5 -17.5zM223 491l158 187h64l-218 -187h-4z" />
    <glyph glyph-name="acircumflex" unicode="&#xe2;" horiz-adv-x="406" 
d="M251 -13q-13 0 -21.5 20.5t-8.5 45.5q0 24 41 129h-2q-61 -105 -98.5 -149t-73.5 -44q-33 0 -56 24.5t-23 64.5q0 74 51.5 162.5t112.5 149.5q42 42 83 42q58 0 57 -90h1l29 96l50 -4l-75 -217l-60 -191l45 -5l73 114l6 -3q-72 -145 -131 -145zM115 30q59 0 161 205
q24 48 24 84q0 29 -20 57t-52 28q-27 0 -54 -27q-41 -41 -76 -126.5t-35 -150.5q0 -35 15.5 -52.5t36.5 -17.5zM131 481l155 177h3l82 -177h-4l-89 114h-3l-140 -114h-4z" />
    <glyph glyph-name="atilde" unicode="&#xe3;" horiz-adv-x="406" 
d="M251 -13q-13 0 -21.5 20.5t-8.5 45.5q0 24 41 129h-2q-61 -105 -98.5 -149t-73.5 -44q-33 0 -56 24.5t-23 64.5q0 74 51.5 162.5t112.5 149.5q42 42 83 42q58 0 57 -90h1l29 96l50 -4l-75 -217l-60 -191l45 -5l73 114l6 -3q-72 -145 -131 -145zM115 30q59 0 161 205
q24 48 24 84q0 29 -20 57t-52 28q-27 0 -54 -27q-41 -41 -76 -126.5t-35 -150.5q0 -35 15.5 -52.5t36.5 -17.5zM358 498q-22 0 -72.5 29t-70.5 29q-41 0 -55 -50h-5q14 46 32 68t45 22q22 0 72.5 -29t70.5 -29q41 0 55 50h5q-15 -47 -32.5 -68.5t-44.5 -21.5z" />
    <glyph glyph-name="adieresis" unicode="&#xe4;" horiz-adv-x="406" 
d="M251 -13q-13 0 -21.5 20.5t-8.5 45.5q0 24 41 129h-2q-61 -105 -98.5 -149t-73.5 -44q-33 0 -56 24.5t-23 64.5q0 74 51.5 162.5t112.5 149.5q42 42 83 42q58 0 57 -90h1l29 96l50 -4l-75 -217l-60 -191l45 -5l73 114l6 -3q-72 -145 -131 -145zM115 30q59 0 161 205
q24 48 24 84q0 29 -20 57t-52 28q-27 0 -54 -27q-41 -41 -76 -126.5t-35 -150.5q0 -35 15.5 -52.5t36.5 -17.5zM334 509q-17 0 -27 12t-10 25q0 14 9.5 27.5t27.5 13.5t27.5 -13.5t9.5 -27.5q0 -13 -10 -25t-27 -12zM194 509q-17 0 -27 12t-10 25q0 14 9.5 27.5t27.5 13.5
t27.5 -13.5t9.5 -27.5q0 -13 -10 -25t-27 -12z" />
    <glyph glyph-name="aring" unicode="&#xe5;" horiz-adv-x="406" 
d="M275 498q-40 0 -64.5 26t-24.5 64q0 37 24.5 63.5t64.5 26.5t64.5 -26.5t24.5 -63.5q0 -38 -24.5 -64t-64.5 -26zM251 -13q-13 0 -21.5 20.5t-8.5 45.5q0 24 41 129h-2q-61 -105 -98.5 -149t-73.5 -44q-33 0 -56 24.5t-23 64.5q0 74 51.5 162.5t112.5 149.5q42 42 83 42
q58 0 57 -90h1l29 96l50 -4l-75 -217l-60 -191l45 -5l73 114l6 -3q-72 -145 -131 -145zM275 507q36 0 57.5 23.5t21.5 57.5t-21.5 57.5t-57.5 23.5t-57.5 -23.5t-21.5 -57.5t21.5 -57.5t57.5 -23.5zM115 30q59 0 161 205q24 48 24 84q0 29 -20 57t-52 28q-27 0 -54 -27
q-41 -41 -76 -126.5t-35 -150.5q0 -35 15.5 -52.5t36.5 -17.5z" />
    <glyph glyph-name="ae" unicode="&#xe6;" horiz-adv-x="567" 
d="M88 -11q-33 0 -56 24t-23 63q0 74 51.5 162t112.5 150q46 44 83 44q61 0 57 -120q35 57 82 91t93 34q38 0 64 -18t26 -45q0 -48 -61 -79t-189 -51q-16 -53 -16 -100q0 -54 21.5 -86t59.5 -32t68.5 24.5t64.5 82.5l7 -3q-80 -140 -162 -140q-53 0 -82.5 39t-29.5 97
q0 37 5 63q-64 -110 -102 -155t-74 -45zM334 254q111 18 151.5 45t40.5 78q0 22 -13 36.5t-36 14.5q-29 0 -68 -37q-47 -47 -77 -136zM115 30q59 0 161 205q24 48 24 84q0 29 -20 57t-52 28q-23 0 -54 -29q-41 -42 -76 -126.5t-35 -148.5q0 -35 15.5 -52.5t36.5 -17.5z" />
    <glyph glyph-name="ccedilla" unicode="&#xe7;" horiz-adv-x="321" 
d="M114 -11q-47 4 -73.5 43.5t-26.5 93.5q0 110 77 210.5t159 100.5q37 0 62.5 -20t25.5 -48q0 -18 -10 -30t-25 -12q-13 0 -23.5 9.5t-10.5 23.5q0 27 35 40q-22 28 -54 28q-46 0 -86 -40q-39 -40 -68 -110.5t-29 -133.5q0 -54 21.5 -87t59.5 -33q37 0 67.5 25t65.5 84
l7 -3q-81 -142 -162 -142h-3l-70 -63q55 7 86.5 -10.5t31.5 -49.5q0 -50 -56 -75.5t-140 -23.5l-1 5q74 0 117.5 21.5t43.5 57.5q0 20 -19 32.5t-51 12.5q-18 0 -60 -9l2 6z" />
    <glyph glyph-name="egrave" unicode="&#xe8;" horiz-adv-x="322" 
d="M126 -12q-52 0 -82 40t-30 98q0 74 34 146.5t87.5 118.5t107.5 46q38 0 64 -18t26 -45q0 -48 -61 -79t-189 -51q-16 -53 -16 -100q0 -54 21.5 -87t59.5 -33q37 0 67.5 25t65.5 84l7 -3q-81 -142 -162 -142zM89 254q111 18 151.5 45t40.5 78q0 22 -13 36.5t-36 14.5
q-29 0 -68 -37q-47 -47 -77 -136zM264 491l-140 187h57l87 -187h-4z" />
    <glyph glyph-name="eacute" unicode="&#xe9;" horiz-adv-x="322" 
d="M126 -12q-52 0 -82 40t-30 98q0 74 34 146.5t87.5 118.5t107.5 46q38 0 64 -18t26 -45q0 -48 -61 -79t-189 -51q-16 -53 -16 -100q0 -54 21.5 -87t59.5 -33q37 0 67.5 25t65.5 84l7 -3q-81 -142 -162 -142zM89 254q111 18 151.5 45t40.5 78q0 22 -13 36.5t-36 14.5
q-29 0 -68 -37q-47 -47 -77 -136zM203 491l158 187h64l-218 -187h-4z" />
    <glyph glyph-name="ecircumflex" unicode="&#xea;" horiz-adv-x="322" 
d="M126 -12q-52 0 -82 40t-30 98q0 74 34 146.5t87.5 118.5t107.5 46q38 0 64 -18t26 -45q0 -48 -61 -79t-189 -51q-16 -53 -16 -100q0 -54 21.5 -87t59.5 -33q37 0 67.5 25t65.5 84l7 -3q-81 -142 -162 -142zM89 254q111 18 151.5 45t40.5 78q0 22 -13 36.5t-36 14.5
q-29 0 -68 -37q-47 -47 -77 -136zM111 481l155 177h3l82 -177h-4l-89 114h-3l-140 -114h-4z" />
    <glyph glyph-name="edieresis" unicode="&#xeb;" horiz-adv-x="322" 
d="M126 -12q-52 0 -82 40t-30 98q0 74 34 146.5t87.5 118.5t107.5 46q38 0 64 -18t26 -45q0 -48 -61 -79t-189 -51q-16 -53 -16 -100q0 -54 21.5 -87t59.5 -33q37 0 67.5 25t65.5 84l7 -3q-81 -142 -162 -142zM89 254q111 18 151.5 45t40.5 78q0 22 -13 36.5t-36 14.5
q-29 0 -68 -37q-47 -47 -77 -136zM304 509q-17 0 -27 12t-10 25q0 14 9.5 27.5t27.5 13.5t27.5 -13.5t9.5 -27.5q0 -13 -10 -25t-27 -12zM164 509q-17 0 -27 12t-10 25q0 14 9.5 27.5t27.5 13.5t27.5 -13.5t9.5 -27.5q0 -13 -10 -25t-27 -12z" />
    <glyph glyph-name="igrave" unicode="&#xec;" horiz-adv-x="223" 
d="M74 -12q-15 0 -35 14t-20 24q0 5 36.5 98.5t72.5 184.5l36 91l-50 4l-72 -113l-6 3q72 144 131 144q13 0 21.5 -20.5t8.5 -45.5q0 -12 -33.5 -98.5t-67.5 -166.5l-33 -80l50 -6l75 114l6 -3q-73 -144 -120 -144zM218 491l-140 187h57l87 -187h-4z" />
    <glyph glyph-name="iacute" unicode="&#xed;" horiz-adv-x="223" 
d="M74 -12q-15 0 -35 14t-20 24q0 5 36.5 98.5t72.5 184.5l36 91l-50 4l-72 -113l-6 3q72 144 131 144q13 0 21.5 -20.5t8.5 -45.5q0 -12 -33.5 -98.5t-67.5 -166.5l-33 -80l50 -6l75 114l6 -3q-73 -144 -120 -144zM172 491l158 187h64l-218 -187h-4z" />
    <glyph glyph-name="icircumflex" unicode="&#xee;" horiz-adv-x="223" 
d="M64 483l145 175h3l72 -175h-5l-78 113h-3l-131 -113h-3zM74 -12q-15 0 -35 14t-20 24q0 5 36.5 98.5t72.5 184.5l36 91l-50 4l-72 -113l-6 3q72 144 131 144q13 0 21.5 -20.5t8.5 -45.5q0 -12 -33.5 -98.5t-67.5 -166.5l-33 -80l50 -6l75 114l6 -3q-73 -144 -120 -144z
" />
    <glyph glyph-name="idieresis" unicode="&#xef;" horiz-adv-x="223" 
d="M74 -12q-15 0 -35 14t-20 24q0 5 36.5 98.5t72.5 184.5l36 91l-50 4l-72 -113l-6 3q72 144 131 144q13 0 21.5 -20.5t8.5 -45.5q0 -12 -33.5 -98.5t-67.5 -166.5l-33 -80l50 -6l75 114l6 -3q-73 -144 -120 -144zM273 509q-17 0 -27 12t-10 25q0 14 9.5 27.5t27.5 13.5
t27.5 -13.5t9.5 -27.5q0 -13 -10 -25t-27 -12zM133 509q-17 0 -27 12t-10 25q0 14 9.5 27.5t27.5 13.5t27.5 -13.5t9.5 -27.5q0 -13 -10 -25t-27 -12z" />
    <glyph glyph-name="eth" unicode="&#xf0;" horiz-adv-x="355" 
d="M127 -12q-56 0 -81 46t-25 113q0 101 65 195t136 94q26 0 47 -12q-29 74 -88 132l-29 -9q-28 -9 -57 -19l-29 -9l1 11l106 35q-42 39 -96 70l3 7q70 -28 121 -68l121 40l2 -11l-113 -37q124 -106 124 -285q0 -113 -65 -203t-143 -90zM115 -2q44 0 86.5 50.5t66.5 125.5
q21 65 21 143q0 108 -55 108q-41 0 -82 -60t-67 -141q-21 -65 -21 -127q0 -45 13.5 -72t37.5 -27z" />
    <glyph glyph-name="ntilde" unicode="&#xf1;" 
d="M292 -12q-15 0 -36 14t-21 24q0 5 11 33t31.5 78.5t32.5 81.5q52 136 52 151t-11.5 25t-28.5 10q-25 0 -91.5 -90.5t-128.5 -222.5l-36 -95l-50 5l57 165l71 234l-45 4l-72 -114l-6 3q72 145 131 145q13 0 21.5 -20.5t8.5 -45.5q0 -51 -73 -227l6 -2q40 77 92.5 154
t81.5 106q32 33 67 33q18 0 37.5 -20.5t19.5 -44.5q0 -22 -53 -153l-77 -192l48 -6l75 115l6 -3q-37 -74 -68 -109.5t-52 -35.5zM345 498q-22 0 -72.5 29t-70.5 29q-41 0 -55 -50h-5q14 46 32 68t45 22q22 0 72.5 -29t70.5 -29q41 0 55 50h5q-15 -47 -32.5 -68.5
t-44.5 -21.5z" />
    <glyph glyph-name="ograve" unicode="&#xf2;" horiz-adv-x="355" 
d="M127 -12q-56 0 -81 46.5t-25 113.5q0 100 65 194.5t136 94.5q51 0 82 -47t31 -125q0 -103 -65.5 -190t-142.5 -87zM115 -2q44 0 86.5 50.5t66.5 125.5q21 65 21 143q0 109 -55 109q-41 0 -82 -60.5t-67 -141.5q-21 -65 -21 -127q0 -45 13.5 -72t37.5 -27zM259 491
l-140 187h57l87 -187h-4z" />
    <glyph glyph-name="oacute" unicode="&#xf3;" horiz-adv-x="355" 
d="M127 -12q-56 0 -81 46.5t-25 113.5q0 100 65 194.5t136 94.5q51 0 82 -47t31 -125q0 -103 -65.5 -190t-142.5 -87zM115 -2q44 0 86.5 50.5t66.5 125.5q21 65 21 143q0 109 -55 109q-41 0 -82 -60.5t-67 -141.5q-21 -65 -21 -127q0 -45 13.5 -72t37.5 -27zM221 491
l158 187h64l-218 -187h-4z" />
    <glyph glyph-name="ocircumflex" unicode="&#xf4;" horiz-adv-x="355" 
d="M127 -12q-56 0 -81 46.5t-25 113.5q0 100 65 194.5t136 94.5q51 0 82 -47t31 -125q0 -103 -65.5 -190t-142.5 -87zM115 -2q44 0 86.5 50.5t66.5 125.5q21 65 21 143q0 109 -55 109q-41 0 -82 -60.5t-67 -141.5q-21 -65 -21 -127q0 -45 13.5 -72t37.5 -27zM119 481
l155 177h3l82 -177h-4l-89 114h-3l-140 -114h-4z" />
    <glyph glyph-name="otilde" unicode="&#xf5;" horiz-adv-x="355" 
d="M127 -12q-56 0 -81 46.5t-25 113.5q0 100 65 194.5t136 94.5q51 0 82 -47t31 -125q0 -103 -65.5 -190t-142.5 -87zM115 -2q44 0 86.5 50.5t66.5 125.5q21 65 21 143q0 109 -55 109q-41 0 -82 -60.5t-67 -141.5q-21 -65 -21 -127q0 -45 13.5 -72t37.5 -27zM316 498
q-22 0 -72.5 29t-70.5 29q-41 0 -55 -50h-5q14 46 32 68t45 22q22 0 72.5 -29t70.5 -29q41 0 55 50h5q-15 -47 -32.5 -68.5t-44.5 -21.5z" />
    <glyph glyph-name="odieresis" unicode="&#xf6;" horiz-adv-x="355" 
d="M127 -12q-56 0 -81 46.5t-25 113.5q0 100 65 194.5t136 94.5q51 0 82 -47t31 -125q0 -103 -65.5 -190t-142.5 -87zM115 -2q44 0 86.5 50.5t66.5 125.5q21 65 21 143q0 109 -55 109q-41 0 -82 -60.5t-67 -141.5q-21 -65 -21 -127q0 -45 13.5 -72t37.5 -27zM322 509
q-17 0 -27 12t-10 25q0 14 9.5 27.5t27.5 13.5t27.5 -13.5t9.5 -27.5q0 -13 -10 -25t-27 -12zM182 509q-17 0 -27 12t-10 25q0 14 9.5 27.5t27.5 13.5t27.5 -13.5t9.5 -27.5q0 -13 -10 -25t-27 -12z" />
    <glyph glyph-name="divide" unicode="&#xf7;" 
d="M264 378q0 -19 -14 -34t-34 -15t-34.5 15t-14.5 34q0 18 14 32t35 14q20 0 34 -14t14 -32zM416 231h-399l2 12h395zM264 95q0 -19 -14 -33.5t-34 -14.5q-21 0 -35 14.5t-14 33.5q0 18 14 32t35 14q20 0 34 -13.5t14 -32.5z" />
    <glyph glyph-name="oslash" unicode="&#xf8;" horiz-adv-x="355" 
d="M314 372q21 -47 21 -107q0 -103 -65.5 -190t-142.5 -87q-52 0 -80 45l-126 -161h-13l134 170q-21 42 -21 105q0 101 65 195t136 94q55 0 87 -54l153 195h13zM65 72l222 282q-9 71 -53 71q-41 0 -82 -60t-67 -141q-21 -65 -21 -127q0 -17 1 -25zM288 339l-221 -281
q11 -60 48 -60q44 0 86.5 50t66.5 125q21 66 21 144q0 15 -1 22z" />
    <glyph glyph-name="ugrave" unicode="&#xf9;" 
d="M281 -13q-13 0 -21.5 20.5t-8.5 45.5q0 22 20.5 88t51.5 140l-6 2q-40 -78 -92.5 -155.5t-80.5 -105.5q-32 -33 -67 -33q-18 0 -37.5 20.5t-19.5 44.5q0 22 53 153l76 193l-48 5l-74 -115l-6 3q73 145 120 145q15 0 36 -14t21 -24q0 -5 -11 -33t-31.5 -78.5t-32.5 -81.5
q-52 -136 -52 -151t11.5 -25t28.5 -10q25 0 91.5 90t128.5 222l36 96l50 -5l-57 -165l-72 -233l45 -5l73 114l6 -3q-72 -145 -131 -145zM280 491l-140 187h57l87 -187h-4z" />
    <glyph glyph-name="uacute" unicode="&#xfa;" 
d="M281 -13q-13 0 -21.5 20.5t-8.5 45.5q0 22 20.5 88t51.5 140l-6 2q-40 -78 -92.5 -155.5t-80.5 -105.5q-32 -33 -67 -33q-18 0 -37.5 20.5t-19.5 44.5q0 22 53 153l76 193l-48 5l-74 -115l-6 3q73 145 120 145q15 0 36 -14t21 -24q0 -5 -11 -33t-31.5 -78.5t-32.5 -81.5
q-52 -136 -52 -151t11.5 -25t28.5 -10q25 0 91.5 90t128.5 222l36 96l50 -5l-57 -165l-72 -233l45 -5l73 114l6 -3q-72 -145 -131 -145zM247 491l158 187h64l-218 -187h-4z" />
    <glyph glyph-name="ucircumflex" unicode="&#xfb;" 
d="M281 -13q-13 0 -21.5 20.5t-8.5 45.5q0 22 20.5 88t51.5 140l-6 2q-40 -78 -92.5 -155.5t-80.5 -105.5q-32 -33 -67 -33q-18 0 -37.5 20.5t-19.5 44.5q0 22 53 153l76 193l-48 5l-74 -115l-6 3q73 145 120 145q15 0 36 -14t21 -24q0 -5 -11 -33t-31.5 -78.5t-32.5 -81.5
q-52 -136 -52 -151t11.5 -25t28.5 -10q25 0 91.5 90t128.5 222l36 96l50 -5l-57 -165l-72 -233l45 -5l73 114l6 -3q-72 -145 -131 -145zM165 481l155 177h3l82 -177h-4l-89 114h-3l-140 -114h-4z" />
    <glyph glyph-name="udieresis" unicode="&#xfc;" 
d="M281 -13q-13 0 -21.5 20.5t-8.5 45.5q0 22 20.5 88t51.5 140l-6 2q-40 -78 -92.5 -155.5t-80.5 -105.5q-32 -33 -67 -33q-18 0 -37.5 20.5t-19.5 44.5q0 22 53 153l76 193l-48 5l-74 -115l-6 3q73 145 120 145q15 0 36 -14t21 -24q0 -5 -11 -33t-31.5 -78.5t-32.5 -81.5
q-52 -136 -52 -151t11.5 -25t28.5 -10q25 0 91.5 90t128.5 222l36 96l50 -5l-57 -165l-72 -233l45 -5l73 114l6 -3q-72 -145 -131 -145zM368 509q-17 0 -27 12t-10 25q0 14 9.5 27.5t27.5 13.5t27.5 -13.5t9.5 -27.5q0 -13 -10 -25t-27 -12zM228 509q-17 0 -27 12t-10 25
q0 14 9.5 27.5t27.5 13.5t27.5 -13.5t9.5 -27.5q0 -13 -10 -25t-27 -12z" />
    <glyph glyph-name="yacute" unicode="&#xfd;" horiz-adv-x="401" 
d="M262 55l1 -3q54 107 73.5 187.5t16.5 156.5q-27 -21 -46.5 -12.5t-19.5 27.5q0 15 10.5 25t26.5 10q21 0 33 -18t12 -48q0 -112 -58.5 -251t-145.5 -226q-85 -85 -171 -85q-39 0 -61 14t-21 40q1 16 12 27.5t28 11.5q24 0 31 -23.5t-12 -49.5q26 -6 39 -8q111 11 214 161
q-19 221 -45 319.5t-68 98.5h-21l-62 -118l-7 3q50 105 69 127q18 20 41 20q39 0 63.5 -35t41.5 -119.5t26 -231.5zM219 491l158 187h64l-218 -187h-4z" />
    <glyph glyph-name="thorn" unicode="&#xfe;" horiz-adv-x="396" 
d="M-139 -253l3 6l19 1q41 2 44 14l254 845q6 23 -5 23l-80 3l2 6l150 17l-20 -64q-47 -155 -131 -409q-3 -9 -1.5 -9.5t5.5 6.5q60 138 105.5 194t86.5 56q37 0 60.5 -29.5t23.5 -76.5q0 -76 -30.5 -155t-86.5 -133.5t-118 -54.5q-57 0 -76 79h-2l-89 -300q-2 -6 12 -9
q13 -2 44 -3l31 -1l1 -6h-202zM142 -5q32 0 68 36q50 50 81.5 128.5t31.5 154.5q0 81 -55 81q-37 0 -82 -65t-83 -161q-27 -65 -27 -90q0 -26 18.5 -55t47.5 -29z" />
    <glyph glyph-name="ydieresis" unicode="&#xff;" horiz-adv-x="401" 
d="M262 55l1 -3q54 107 73.5 187.5t16.5 156.5q-27 -21 -46.5 -12.5t-19.5 27.5q0 15 10.5 25t26.5 10q21 0 33 -18t12 -48q0 -112 -58.5 -251t-145.5 -226q-85 -85 -171 -85q-39 0 -61 14t-21 40q1 16 12 27.5t28 11.5q24 0 31 -23.5t-12 -49.5q26 -6 39 -8q111 11 214 161
q-19 221 -45 319.5t-68 98.5h-21l-62 -118l-7 3q50 105 69 127q18 20 41 20q39 0 63.5 -35t41.5 -119.5t26 -231.5zM166 509q-17 0 -27 12t-10 25q0 14 9.5 27.5t27.5 13.5t27.5 -13.5t9.5 -27.5q0 -13 -10 -25t-27 -12zM306 509q-17 0 -27 12t-10 25q0 14 9.5 27.5
t27.5 13.5t27.5 -13.5t9.5 -27.5q0 -13 -10 -25t-27 -12z" />
    <glyph glyph-name="Amacron" unicode="&#x100;" horiz-adv-x="606" 
d="M384 274h-190l-88 -161q-40 -66 -35.5 -82.5t67.5 -22.5l20 -2l1 -6h-206l3 6l16 2q48 6 68.5 29.5t92.5 146.5l214 386l-4 24q23 10 46 39h7l72 -556q6 -42 16 -54.5t44 -14.5l27 -2l1 -6h-229l3 6l27 1q60 2 56 33zM200 284h183l-33 270h-2zM251 709l11 25h250l-11 -25
h-250z" />
    <glyph glyph-name="amacron" unicode="&#x101;" horiz-adv-x="406" 
d="M251 -13q-13 0 -21.5 20.5t-8.5 45.5q0 24 41 129h-2q-61 -105 -98.5 -149t-73.5 -44q-33 0 -56 24.5t-23 64.5q0 74 51.5 162.5t112.5 149.5q42 42 83 42q58 0 57 -90h1l29 96l50 -4l-75 -217l-60 -191l45 -5l73 114l6 -3q-72 -145 -131 -145zM115 30q59 0 161 205
q24 48 24 84q0 29 -20 57t-52 28q-27 0 -54 -27q-41 -41 -76 -126.5t-35 -150.5q0 -35 15.5 -52.5t36.5 -17.5zM153 521l11 25h250l-11 -25h-250z" />
    <glyph glyph-name="Abreve" unicode="&#x102;" horiz-adv-x="606" 
d="M384 274h-190l-88 -161q-40 -66 -35.5 -82.5t67.5 -22.5l20 -2l1 -6h-206l3 6l16 2q48 6 68.5 29.5t92.5 146.5l214 386l-4 24q23 10 46 39h7l72 -556q6 -42 16 -54.5t44 -14.5l27 -2l1 -6h-229l3 6l27 1q60 2 56 33zM200 284h183l-33 270h-2zM372 673q-26 0 -43 12
t-24.5 37t-9.5 43t-4 50h4q12 -51 30 -77.5t54 -26.5q64 0 133 104h4q-39 -78 -62 -104q-35 -38 -82 -38z" />
    <glyph glyph-name="abreve" unicode="&#x103;" horiz-adv-x="406" 
d="M251 -13q-13 0 -21.5 20.5t-8.5 45.5q0 24 41 129h-2q-61 -105 -98.5 -149t-73.5 -44q-33 0 -56 24.5t-23 64.5q0 74 51.5 162.5t112.5 149.5q42 42 83 42q58 0 57 -90h1l29 96l50 -4l-75 -217l-60 -191l45 -5l73 114l6 -3q-72 -145 -131 -145zM115 30q59 0 161 205
q24 48 24 84q0 29 -20 57t-52 28q-27 0 -54 -27q-41 -41 -76 -126.5t-35 -150.5q0 -35 15.5 -52.5t36.5 -17.5zM282 485q-26 0 -43 12t-24.5 37t-9.5 43t-4 50h4q12 -51 30 -77.5t54 -26.5q64 0 133 104h4q-39 -78 -62 -104q-35 -38 -82 -38z" />
    <glyph glyph-name="Aogonek" unicode="&#x104;" horiz-adv-x="606" 
d="M461 -213q-29 0 -48.5 20.5t-19.5 51.5q0 75 140 141h-206l3 6l27 1q60 2 56 33l-29 234h-190l-88 -161q-40 -66 -35.5 -82.5t67.5 -22.5l20 -2l1 -6h-206l3 6l16 2q48 6 68.5 29.5t92.5 146.5l214 386l-4 24q23 10 46 39h7l72 -556q6 -42 16 -54.5t44 -14.5l27 -2l1 -6
q-53 -19 -86 -54t-33 -74q0 -26 14 -42.5t36 -16.5q33 0 62 35l3 -2q-46 -59 -91 -59zM200 284h183l-33 270h-2z" />
    <glyph glyph-name="aogonek" unicode="&#x105;" horiz-adv-x="406" 
d="M203 -213q-29 0 -48.5 20.5t-19.5 51.5q0 67 116 128q-13 0 -21.5 20.5t-8.5 45.5q0 24 41 129h-2q-61 -105 -98.5 -149t-73.5 -44q-33 0 -56 24.5t-23 64.5q0 74 51.5 162.5t112.5 149.5q42 42 83 42q58 0 57 -90h1l29 96l50 -4l-75 -217l-60 -191l45 -5l73 114l6 -3
q-54 -114 -101 -137q-102 -50 -102 -123q0 -26 14 -42.5t36 -16.5q33 0 62 35l3 -2q-46 -59 -91 -59zM115 30q59 0 161 205q24 48 24 84q0 29 -20 57t-52 28q-27 0 -54 -27q-41 -41 -76 -126.5t-35 -150.5q0 -35 15.5 -52.5t36.5 -17.5z" />
    <glyph glyph-name="Cacute" unicode="&#x106;" horiz-adv-x="658" 
d="M356 -15q-139 0 -223.5 79t-84.5 200q0 154 106.5 264.5t261.5 110.5q125 0 201 -63l44 16l-23 -167h-4l-34 144q-20 22 -71 41.5t-104 19.5q-134 0 -221.5 -115t-87.5 -271q0 -114 62.5 -182.5t175.5 -68.5q69 0 120 31t103 94l32 39l4 -1l-66 -143l-35 -3
q-77 -25 -156 -25zM382 679l158 187h64l-218 -187h-4z" />
    <glyph glyph-name="cacute" unicode="&#x107;" horiz-adv-x="321" 
d="M126 -12q-52 0 -82 40t-30 98q0 110 77 210.5t159 100.5q37 0 62.5 -20t25.5 -48q0 -18 -10 -30t-25 -12q-13 0 -23.5 9.5t-10.5 23.5q0 27 35 40q-22 28 -54 28q-46 0 -86 -40q-39 -40 -68 -110.5t-29 -133.5q0 -54 21.5 -87t59.5 -33q37 0 67.5 25t65.5 84l7 -3
q-81 -142 -162 -142zM189 491l158 187h64l-218 -187h-4z" />
    <glyph glyph-name="Ccircumflex" unicode="&#x108;" horiz-adv-x="658" 
d="M356 -15q-139 0 -223.5 79t-84.5 200q0 154 106.5 264.5t261.5 110.5q125 0 201 -63l44 16l-23 -167h-4l-34 144q-20 22 -71 41.5t-104 19.5q-134 0 -221.5 -115t-87.5 -271q0 -114 62.5 -182.5t175.5 -68.5q69 0 120 31t103 94l32 39l4 -1l-66 -143l-35 -3
q-77 -25 -156 -25zM297 669l155 177h3l82 -177h-4l-89 114h-3l-140 -114h-4z" />
    <glyph glyph-name="ccircumflex" unicode="&#x109;" horiz-adv-x="321" 
d="M126 -12q-52 0 -82 40t-30 98q0 110 77 210.5t159 100.5q37 0 62.5 -20t25.5 -48q0 -18 -10 -30t-25 -12q-13 0 -23.5 9.5t-10.5 23.5q0 27 35 40q-22 28 -54 28q-46 0 -86 -40q-39 -40 -68 -110.5t-29 -133.5q0 -54 21.5 -87t59.5 -33q37 0 67.5 25t65.5 84l7 -3
q-81 -142 -162 -142zM120 481l155 177h3l82 -177h-4l-89 114h-3l-140 -114h-4z" />
    <glyph glyph-name="Cdotaccent" unicode="&#x10a;" horiz-adv-x="658" 
d="M356 -15q-139 0 -223.5 79t-84.5 200q0 154 106.5 264.5t261.5 110.5q125 0 201 -63l44 16l-23 -167h-4l-34 144q-20 22 -71 41.5t-104 19.5q-134 0 -221.5 -115t-87.5 -271q0 -114 62.5 -182.5t175.5 -68.5q69 0 120 31t103 94l32 39l4 -1l-66 -143l-35 -3
q-77 -25 -156 -25zM443 713q-17 0 -27 12t-10 25q0 15 9 28t27 13t28 -13.5t10 -27.5q0 -13 -10 -25t-27 -12z" />
    <glyph glyph-name="cdotaccent" unicode="&#x10b;" horiz-adv-x="321" 
d="M126 -12q-52 0 -82 40t-30 98q0 110 77 210.5t159 100.5q37 0 62.5 -20t25.5 -48q0 -18 -10 -30t-25 -12q-13 0 -23.5 9.5t-10.5 23.5q0 27 35 40q-22 28 -54 28q-46 0 -86 -40q-39 -40 -68 -110.5t-29 -133.5q0 -54 21.5 -87t59.5 -33q37 0 67.5 25t65.5 84l7 -3
q-81 -142 -162 -142zM244 525q-17 0 -27 12t-10 25q0 15 9 28t27 13t28 -13.5t10 -27.5q0 -13 -10 -25t-27 -12z" />
    <glyph glyph-name="Ccaron" unicode="&#x10c;" horiz-adv-x="658" 
d="M356 -15q-139 0 -223.5 79t-84.5 200q0 154 106.5 264.5t261.5 110.5q125 0 201 -63l44 16l-23 -167h-4l-34 144q-20 22 -71 41.5t-104 19.5q-134 0 -221.5 -115t-87.5 -271q0 -114 62.5 -182.5t175.5 -68.5q69 0 120 31t103 94l32 39l4 -1l-66 -143l-35 -3
q-77 -25 -156 -25zM416 669l-82 177h4l89 -114h3l140 114h4l-155 -177h-3z" />
    <glyph glyph-name="ccaron" unicode="&#x10d;" horiz-adv-x="321" 
d="M126 -12q-52 0 -82 40t-30 98q0 110 77 210.5t159 100.5q37 0 62.5 -20t25.5 -48q0 -18 -10 -30t-25 -12q-13 0 -23.5 9.5t-10.5 23.5q0 27 35 40q-22 28 -54 28q-46 0 -86 -40q-39 -40 -68 -110.5t-29 -133.5q0 -54 21.5 -87t59.5 -33q37 0 67.5 25t65.5 84l7 -3
q-81 -142 -162 -142zM235 481l-82 177h4l89 -114h3l140 114h4l-155 -177h-3z" />
    <glyph glyph-name="Dcaron" unicode="&#x10e;" horiz-adv-x="636" 
d="M-20 0l3 6l37 4q50 6 52 16l122 576q1 5 -7 7q-7 2 -49 7l-24 3l-1 6h242q128 0 202.5 -77t74.5 -193q0 -160 -109 -257.5t-305 -97.5h-238zM245 10q103 0 177 52.5t108.5 134.5t34.5 183q0 236 -222 236h-83l-127 -598zM333 669l-82 177h4l89 -114h3l140 114h4
l-155 -177h-3z" />
    <glyph glyph-name="dcaron" unicode="&#x10f;" horiz-adv-x="557" 
d="M251 -13q-13 0 -21.5 20.5t-8.5 45.5q0 5 0.5 9t1.5 9.5t1.5 9t3 11l4 12t5.5 15t6.5 17t8.5 21.5l10 25h-2q-61 -105 -98.5 -149t-73.5 -44q-33 0 -56 24.5t-23 64.5q0 74 52 165t112 151q42 42 83 42q54 0 53 -99h2l79 277q7 23 -4 23l-101 3l2 6l171 17l-108 -341
l-92 -296l45 -5l73 113l6 -3q-72 -144 -131 -144zM115 30q31 0 71.5 52.5t78.5 130.5q35 70 35 106q0 29 -20 59t-52 30q-27 0 -54 -27q-41 -41 -76 -128.5t-35 -152.5q0 -35 15.5 -52.5t36.5 -17.5zM479 444l-2 4q97 44 97 105q0 21 -17 31.5t-47 6.5q-5 14 9 31t37 17
q24 0 40 -16.5t16 -43.5q0 -42 -41 -80.5t-92 -54.5z" />
    <glyph glyph-name="Dcroat" unicode="&#x110;" horiz-adv-x="666" 
d="M132 308h-77l6 12h73l60 282q1 5 -7 7q-7 2 -49 7l-24 3l-1 6h242q128 0 202.5 -77t74.5 -193q0 -160 -109 -257.5t-305 -97.5h-238l3 6l37 4q50 6 52 16zM197 320h154v-12h-157l-60 -285l111 -13q103 0 177 52.5t108.5 134.5t34.5 183q0 236 -222 236h-83z" />
    <glyph glyph-name="dcroat" unicode="&#x111;" horiz-adv-x="406" 
d="M251 -13q-13 0 -21.5 20.5t-8.5 45.5q0 5 0.5 9t1.5 9.5t1.5 9t3 11l4 12t5.5 15t6.5 17t8.5 21.5l10 25h-2q-61 -105 -98.5 -149t-73.5 -44q-33 0 -56 24.5t-23 64.5q0 74 52 165t112 151q42 42 83 42q54 0 53 -99h2l52 184h-99l10 25h96l20 68q7 23 -4 23l-101 3l2 6
l171 17l-37 -117h68l-10 -25h-66l-63 -199l-92 -296l45 -5l73 113l6 -3q-72 -144 -131 -144zM115 30q31 0 71.5 52.5t78.5 130.5q35 70 35 106q0 29 -20 59t-52 30q-27 0 -54 -27q-41 -41 -76 -128.5t-35 -152.5q0 -35 15.5 -52.5t36.5 -17.5z" />
    <glyph glyph-name="Emacron" unicode="&#x112;" horiz-adv-x="552" 
d="M-24 0l3 6l41 4q50 4 52 16l122 576q0 3 -1 4.5t-7.5 3t-17 3t-30.5 3.5l-28 3l-1 6h412l16 -160h-4l-5 15q-26 78 -53 107t-75 29h-140l-59 -279l97 1q23 0 38 3.5t23.5 5.5t18 16t12 19.5t14.5 31.5l6 12l4 -1h1l-40 -190l-5 1l1 12q4 54 -7.5 65.5t-73.5 12.5l-91 2
l-67 -315l169 -4q66 1 111.5 39t92.5 112l9 14l6 -1l-83 -173h-461zM224 709l11 25h250l-11 -25h-250z" />
    <glyph glyph-name="emacron" unicode="&#x113;" horiz-adv-x="322" 
d="M126 -12q-52 0 -82 40t-30 98q0 74 34 146.5t87.5 118.5t107.5 46q38 0 64 -18t26 -45q0 -48 -61 -79t-189 -51q-16 -53 -16 -100q0 -54 21.5 -87t59.5 -33q37 0 67.5 25t65.5 84l7 -3q-81 -142 -162 -142zM89 254q111 18 151.5 45t40.5 78q0 22 -13 36.5t-36 14.5
q-29 0 -68 -37q-47 -47 -77 -136zM88 521l11 25h250l-11 -25h-250z" />
    <glyph glyph-name="Ebreve" unicode="&#x114;" horiz-adv-x="552" 
d="M-24 0l3 6l41 4q50 4 52 16l122 576q0 3 -1 4.5t-7.5 3t-17 3t-30.5 3.5l-28 3l-1 6h412l16 -160h-4l-5 15q-26 78 -53 107t-75 29h-140l-59 -279l97 1q23 0 38 3.5t23.5 5.5t18 16t12 19.5t14.5 31.5l6 12l4 -1h1l-40 -190l-5 1l1 12q4 54 -7.5 65.5t-73.5 12.5l-91 2
l-67 -315l169 -4q66 1 111.5 39t92.5 112l9 14l6 -1l-83 -173h-461zM351 673q-26 0 -43 12t-24.5 37t-9.5 43t-4 50h4q12 -51 30 -77.5t54 -26.5q64 0 133 104h4q-39 -78 -62 -104q-35 -38 -82 -38z" />
    <glyph glyph-name="ebreve" unicode="&#x115;" horiz-adv-x="322" 
d="M126 -12q-52 0 -82 40t-30 98q0 74 34 146.5t87.5 118.5t107.5 46q38 0 64 -18t26 -45q0 -48 -61 -79t-189 -51q-16 -53 -16 -100q0 -54 21.5 -87t59.5 -33q37 0 67.5 25t65.5 84l7 -3q-81 -142 -162 -142zM89 254q111 18 151.5 45t40.5 78q0 22 -13 36.5t-36 14.5
q-29 0 -68 -37q-47 -47 -77 -136zM238 485q-26 0 -43 12t-24.5 37t-9.5 43t-4 50h4q12 -51 30 -77.5t54 -26.5q64 0 133 104h4q-39 -78 -62 -104q-35 -38 -82 -38z" />
    <glyph glyph-name="Edotaccent" unicode="&#x116;" horiz-adv-x="552" 
d="M-24 0l3 6l41 4q50 4 52 16l122 576q0 3 -1 4.5t-7.5 3t-17 3t-30.5 3.5l-28 3l-1 6h412l16 -160h-4l-5 15q-26 78 -53 107t-75 29h-140l-59 -279l97 1q23 0 38 3.5t23.5 5.5t18 16t12 19.5t14.5 31.5l6 12l4 -1h1l-40 -190l-5 1l1 12q4 54 -7.5 65.5t-73.5 12.5l-91 2
l-67 -315l169 -4q66 1 111.5 39t92.5 112l9 14l6 -1l-83 -173h-461zM356 713q-17 0 -27 12t-10 25q0 15 9 28t27 13t28 -13.5t10 -27.5q0 -13 -10 -25t-27 -12z" />
    <glyph glyph-name="edotaccent" unicode="&#x117;" horiz-adv-x="322" 
d="M126 -12q-52 0 -82 40t-30 98q0 74 34 146.5t87.5 118.5t107.5 46q38 0 64 -18t26 -45q0 -48 -61 -79t-189 -51q-16 -53 -16 -100q0 -54 21.5 -87t59.5 -33q37 0 67.5 25t65.5 84l7 -3q-81 -142 -162 -142zM89 254q111 18 151.5 45t40.5 78q0 22 -13 36.5t-36 14.5
q-29 0 -68 -37q-47 -47 -77 -136zM250 525q-17 0 -27 12t-10 25q0 15 9 28t27 13t28 -13.5t10 -27.5q0 -13 -10 -25t-27 -12z" />
    <glyph glyph-name="Eogonek" unicode="&#x118;" horiz-adv-x="552" 
d="M318 -213q-29 0 -48.5 20.5t-19.5 51.5q0 42 41 78t100 63h-415l3 6l41 4q50 4 52 16l122 576q0 3 -1 4.5t-7.5 3t-17 3t-30.5 3.5l-28 3l-1 6h412l16 -160h-4l-5 15q-26 78 -53 107t-75 29h-140l-59 -279l97 1q23 0 38 3.5t23.5 5.5t18 16t12 19.5t14.5 31.5l6 12l4 -1
h1l-40 -190l-5 1l1 12q4 54 -7.5 65.5t-73.5 12.5l-91 2l-67 -315l169 -4q66 1 111.5 39t92.5 112l9 14l6 -1l-83 -173h-34q-109 -55 -109 -128q0 -26 14 -42.5t36 -16.5q33 0 62 35l3 -2q-46 -59 -91 -59z" />
    <glyph glyph-name="eogonek" unicode="&#x119;" horiz-adv-x="322" 
d="M89 -213q-29 0 -48.5 20.5t-19.5 51.5q0 70 120 130q-3 0 -8 -0.5t-7 -0.5q-52 0 -82 40t-30 98q0 74 34 146.5t87.5 118.5t107.5 46q38 0 64 -18t26 -45q0 -48 -61 -79t-189 -51q-16 -53 -16 -100q0 -54 21.5 -87t59.5 -33q37 0 67.5 25t65.5 84l7 -3q-19 -39 -50 -76.5
t-61 -52.5q-50 -25 -81 -58.5t-31 -70.5q0 -26 14 -42.5t36 -16.5q33 0 62 35l3 -2q-46 -59 -91 -59zM89 254q111 18 151.5 45t40.5 78q0 22 -13 36.5t-36 14.5q-29 0 -68 -37q-47 -47 -77 -136z" />
    <glyph glyph-name="Ecaron" unicode="&#x11a;" horiz-adv-x="552" 
d="M-24 0l3 6l41 4q50 4 52 16l122 576q0 3 -1 4.5t-7.5 3t-17 3t-30.5 3.5l-28 3l-1 6h412l16 -160h-4l-5 15q-26 78 -53 107t-75 29h-140l-59 -279l97 1q23 0 38 3.5t23.5 5.5t18 16t12 19.5t14.5 31.5l6 12l4 -1h1l-40 -190l-5 1l1 12q4 54 -7.5 65.5t-73.5 12.5l-91 2
l-67 -315l169 -4q66 1 111.5 39t92.5 112l9 14l6 -1l-83 -173h-461zM349 669l-82 177h4l89 -114h3l140 114h4l-155 -177h-3z" />
    <glyph glyph-name="ecaron" unicode="&#x11b;" horiz-adv-x="322" 
d="M126 -12q-52 0 -82 40t-30 98q0 74 34 146.5t87.5 118.5t107.5 46q38 0 64 -18t26 -45q0 -48 -61 -79t-189 -51q-16 -53 -16 -100q0 -54 21.5 -87t59.5 -33q37 0 67.5 25t65.5 84l7 -3q-81 -142 -162 -142zM89 254q111 18 151.5 45t40.5 78q0 22 -13 36.5t-36 14.5
q-29 0 -68 -37q-47 -47 -77 -136zM235 481l-82 177h4l89 -114h3l140 114h4l-155 -177h-3z" />
    <glyph glyph-name="Gcircumflex" unicode="&#x11c;" horiz-adv-x="671" 
d="M350 -15q-134 0 -218 81t-84 202q0 151 105 262.5t262 111.5q126 0 202 -63l49 16l-32 -163l-4 1l-30 139q-23 24 -73 42t-103 18q-90 0 -162 -56t-109 -141t-37 -179q0 -113 65 -187t170 -74q72 0 125 30l47 224q0 3 -1.5 4.5t-8 3.5t-18.5 3t-32 3l-37 3l-1 6h249
l-4 -6l-36 -4q-50 -6 -52 -16l-45 -214l68 9l-1 -4q-163 -52 -254 -52zM313 669l155 177h3l82 -177h-4l-89 114h-3l-140 -114h-4z" />
    <glyph glyph-name="gcircumflex" unicode="&#x11d;" horiz-adv-x="358" 
d="M108 -232q-79 0 -140 32.5t-61 75.5q0 36 49 72.5t113 55.5v2q-42 17 -59 32t-17 37q0 27 32.5 50t70.5 28l1 2q-47 42 -47 113q0 65 47 117t108 52q38 0 69 -34l116 24l-11 -41l-98 11v-2q30 -38 30 -96q0 -61 -51.5 -113t-111.5 -52q-23 0 -41 13q-30 -4 -53.5 -19
t-23.5 -30t20.5 -28.5t80.5 -31.5l16 -5q158 -50 158 -125q0 -55 -59.5 -97.5t-137.5 -42.5zM126 -220q61 0 102.5 27.5t41.5 67.5q0 63 -138 107l-51 18q-65 -20 -98.5 -49.5t-33.5 -64.5q0 -48 49 -77t128 -29zM149 141q28 0 57 29q59 61 59 183q0 30 -17 53t-38 23
q-22 0 -49 -25q-29 -29 -47.5 -81t-18.5 -104q0 -41 22 -65q13 -13 32 -13zM105 481l155 177h3l82 -177h-4l-89 114h-3l-140 -114h-4z" />
    <glyph glyph-name="Gbreve" unicode="&#x11e;" horiz-adv-x="671" 
d="M350 -15q-134 0 -218 81t-84 202q0 151 105 262.5t262 111.5q126 0 202 -63l49 16l-32 -163l-4 1l-30 139q-23 24 -73 42t-103 18q-90 0 -162 -56t-109 -141t-37 -179q0 -113 65 -187t170 -74q72 0 125 30l47 224q0 3 -1.5 4.5t-8 3.5t-18.5 3t-32 3l-37 3l-1 6h249
l-4 -6l-36 -4q-50 -6 -52 -16l-45 -214l68 9l-1 -4q-163 -52 -254 -52zM422 673q-26 0 -43 12t-24.5 37t-9.5 43t-4 50h4q12 -51 30 -77.5t54 -26.5q64 0 133 104h4q-39 -78 -62 -104q-35 -38 -82 -38z" />
    <glyph glyph-name="gbreve" unicode="&#x11f;" horiz-adv-x="358" 
d="M108 -232q-79 0 -140 32.5t-61 75.5q0 36 49 72.5t113 55.5v2q-42 17 -59 32t-17 37q0 27 32.5 50t70.5 28l1 2q-47 42 -47 113q0 65 47 117t108 52q38 0 69 -34l116 24l-11 -41l-98 11v-2q30 -38 30 -96q0 -61 -51.5 -113t-111.5 -52q-23 0 -41 13q-30 -4 -53.5 -19
t-23.5 -30t20.5 -28.5t80.5 -31.5l16 -5q158 -50 158 -125q0 -55 -59.5 -97.5t-137.5 -42.5zM126 -220q61 0 102.5 27.5t41.5 67.5q0 63 -138 107l-51 18q-65 -20 -98.5 -49.5t-33.5 -64.5q0 -48 49 -77t128 -29zM149 141q28 0 57 29q59 61 59 183q0 30 -17 53t-38 23
q-22 0 -49 -25q-29 -29 -47.5 -81t-18.5 -104q0 -41 22 -65q13 -13 32 -13zM218 485q-26 0 -43 12t-24.5 37t-9.5 43t-4 50h4q12 -51 30 -77.5t54 -26.5q64 0 133 104h4q-39 -78 -62 -104q-35 -38 -82 -38z" />
    <glyph glyph-name="Gdotaccent" unicode="&#x120;" horiz-adv-x="671" 
d="M350 -15q-134 0 -218 81t-84 202q0 151 105 262.5t262 111.5q126 0 202 -63l49 16l-32 -163l-4 1l-30 139q-23 24 -73 42t-103 18q-90 0 -162 -56t-109 -141t-37 -179q0 -113 65 -187t170 -74q72 0 125 30l47 224q0 3 -1.5 4.5t-8 3.5t-18.5 3t-32 3l-37 3l-1 6h249
l-4 -6l-36 -4q-50 -6 -52 -16l-45 -214l68 9l-1 -4q-163 -52 -254 -52zM442 713q-17 0 -27 12t-10 25q0 15 9 28t27 13t28 -13.5t10 -27.5q0 -13 -10 -25t-27 -12z" />
    <glyph glyph-name="gdotaccent" unicode="&#x121;" horiz-adv-x="358" 
d="M108 -232q-79 0 -140 32.5t-61 75.5q0 36 49 72.5t113 55.5v2q-42 17 -59 32t-17 37q0 27 32.5 50t70.5 28l1 2q-47 42 -47 113q0 65 47 117t108 52q38 0 69 -34l116 24l-11 -41l-98 11v-2q30 -38 30 -96q0 -61 -51.5 -113t-111.5 -52q-23 0 -41 13q-30 -4 -53.5 -19
t-23.5 -30t20.5 -28.5t80.5 -31.5l16 -5q158 -50 158 -125q0 -55 -59.5 -97.5t-137.5 -42.5zM126 -220q61 0 102.5 27.5t41.5 67.5q0 63 -138 107l-51 18q-65 -20 -98.5 -49.5t-33.5 -64.5q0 -48 49 -77t128 -29zM149 141q28 0 57 29q59 61 59 183q0 30 -17 53t-38 23
q-22 0 -49 -25q-29 -29 -47.5 -81t-18.5 -104q0 -41 22 -65q13 -13 32 -13zM243 525q-17 0 -27 12t-10 25q0 15 9 28t27 13t28 -13.5t10 -27.5q0 -13 -10 -25t-27 -12z" />
    <glyph glyph-name="Gcommaaccent" unicode="&#x122;" horiz-adv-x="671" 
d="M350 -15q-134 0 -218 81t-84 202q0 151 105 262.5t262 111.5q126 0 202 -63l49 16l-32 -163l-4 1l-30 139q-23 24 -73 42t-103 18q-90 0 -162 -56t-109 -141t-37 -179q0 -113 65 -187t170 -74q72 0 125 30l47 224q0 3 -1.5 4.5t-8 3.5t-18.5 3t-32 3l-37 3l-1 6h249
l-4 -6l-36 -4q-50 -6 -52 -16l-45 -214l68 9l-1 -4q-163 -52 -254 -52zM225 -263l-3 5q78 29 91 92q6 29 -11.5 43t-45.5 3q-7 21 9 39t44 15q27 -3 41.5 -24.5t7.5 -53.5q-8 -39 -46.5 -73.5t-86.5 -45.5z" />
    <glyph glyph-name="gcommaaccent" unicode="&#x123;" horiz-adv-x="358" 
d="M108 -232q-79 0 -140 32.5t-61 75.5q0 36 49 72.5t113 55.5v2q-42 17 -59 32t-17 37q0 27 32.5 50t70.5 28l1 2q-47 42 -47 113q0 65 47 117t108 52q38 0 69 -34l116 24l-11 -41l-98 11v-2q30 -38 30 -96q0 -61 -51.5 -113t-111.5 -52q-23 0 -41 13q-30 -4 -53.5 -19
t-23.5 -30t20.5 -28.5t80.5 -31.5l16 -5q158 -50 158 -125q0 -55 -59.5 -97.5t-137.5 -42.5zM126 -220q61 0 102.5 27.5t41.5 67.5q0 63 -138 107l-51 18q-65 -20 -98.5 -49.5t-33.5 -64.5q0 -48 49 -77t128 -29zM149 141q28 0 57 29q59 61 59 183q0 30 -17 53t-38 23
q-22 0 -49 -25q-29 -29 -47.5 -81t-18.5 -104q0 -41 22 -65q13 -13 32 -13zM342 695l3 -5q-78 -29 -91 -92q-6 -29 11.5 -43t45.5 -3q7 -21 -9 -39t-44 -15q-27 3 -41.5 24.5t-7.5 53.5q8 39 46.5 73.5t86.5 45.5z" />
    <glyph glyph-name="Hcircumflex" unicode="&#x124;" horiz-adv-x="694" 
d="M-20 0l3 6l37 4q50 6 52 16l122 576q1 5 -7 7q-7 2 -49 7l-24 3l-1 6h239l-4 -6l-40 -4q-50 -4 -52 -16l-58 -276h343l60 279q0 3 -1 4.5t-7 3t-17 3t-31 3.5l-28 3l-1 6h239l-4 -6l-36 -4q-50 -6 -52 -16l-122 -576q-1 -5 7 -7q7 -2 49 -7l24 -3l1 -6h-239l3 6l41 4
q50 4 52 16l60 287h-343l-62 -290q0 -3 1 -4.5t7 -3t17 -3t31 -3.5l28 -3l1 -6h-239zM312 669l155 177h3l82 -177h-4l-89 114h-3l-140 -114h-4z" />
    <glyph glyph-name="hcircumflex" unicode="&#x125;" horiz-adv-x="406" 
d="M265 -12q-15 0 -36 14t-21 24q0 5 11 33.5t31.5 78t32.5 81.5q52 136 52 150q0 15 -11.5 25t-28.5 10q-25 0 -91.5 -90t-128.5 -222l-36 -95l-50 5l57 164q25 76 59 188t55 186l21 74q6 23 -5 23l-80 3l2 6l149 17l-19 -64q-98 -336 -146 -454l6 -2q40 77 92.5 154
t81.5 106q32 33 67 33q18 0 37.5 -20.5t19.5 -44.5q0 -21 -53 -152l-77 -192l48 -6l75 114l6 -3q-73 -144 -120 -144zM81 669l155 177h3l82 -177h-4l-89 114h-3l-140 -114h-4z" />
    <glyph glyph-name="Hbar" unicode="&#x126;" horiz-adv-x="694" 
d="M70 470l11 25h90l23 107q1 5 -7 7q-7 2 -49 7l-24 3l-1 6h239l-4 -6l-40 -4q-50 -4 -52 -16l-22 -104h344l23 107q0 3 -1 4.5t-7 3t-17 3t-31 3.5l-28 3l-1 6h239l-4 -6l-36 -4q-50 -6 -52 -16l-22 -104h104l-11 -25h-99l-94 -447q-1 -5 7 -7q7 -2 49 -7l24 -3l1 -6h-239
l3 6l41 4q50 4 52 16l60 287h-343l-62 -290q0 -3 1 -4.5t7 -3t17 -3t31 -3.5l28 -3l1 -6h-239l3 6l37 4q50 6 52 16l94 444h-96zM198 323h343l31 147h-343z" />
    <glyph glyph-name="hbar" unicode="&#x127;" horiz-adv-x="406" 
d="M82 521l11 25h68l20 68q6 23 -5 23l-80 3l2 6l149 17l-19 -64l-16 -53h96l-11 -25h-92q-77 -263 -123 -376l6 -2q40 77 92.5 154t81.5 106q32 33 67 33q18 0 37.5 -20.5t19.5 -44.5q0 -21 -53 -152l-77 -192l48 -6l75 114l6 -3q-73 -144 -120 -144q-15 0 -36 14t-21 24
q0 5 11 33.5t31.5 78t32.5 81.5q52 136 52 150q0 15 -11.5 25t-28.5 10q-25 0 -91.5 -90t-128.5 -222l-36 -95l-50 5l57 164q38 115 108 355h-72z" />
    <glyph glyph-name="Imacron" unicode="&#x12a;" horiz-adv-x="307" 
d="M-14 0l3 6l41 4q50 4 52 16l122 576q0 3 -1 4.5t-7 3t-17 3t-31 3.5l-28 3l-1 6h243l-4 -6l-40 -4q-50 -4 -52 -16l-122 -576q0 -3 1 -4.5t7 -3t17 -3t31 -3.5l28 -3l1 -6h-243zM130 709l11 25h250l-11 -25h-250z" />
    <glyph glyph-name="imacron" unicode="&#x12b;" horiz-adv-x="223" 
d="M74 -12q-15 0 -35 14t-20 24q0 5 36.5 98.5t72.5 184.5l36 91l-50 4l-72 -113l-6 3q72 144 131 144q13 0 21.5 -20.5t8.5 -45.5q0 -12 -33.5 -98.5t-67.5 -166.5l-33 -80l50 -6l75 114l6 -3q-73 -144 -120 -144zM48 521l11 25h250l-11 -25h-250z" />
    <glyph glyph-name="Ibreve" unicode="&#x12c;" horiz-adv-x="307" 
d="M-14 0l3 6l41 4q50 4 52 16l122 576q0 3 -1 4.5t-7 3t-17 3t-31 3.5l-28 3l-1 6h243l-4 -6l-40 -4q-50 -4 -52 -16l-122 -576q0 -3 1 -4.5t7 -3t17 -3t31 -3.5l28 -3l1 -6h-243zM256 673q-26 0 -43 12t-24.5 37t-9.5 43t-4 50h4q12 -51 30 -77.5t54 -26.5q64 0 133 104h4
q-39 -78 -62 -104q-35 -38 -82 -38z" />
    <glyph glyph-name="ibreve" unicode="&#x12d;" horiz-adv-x="223" 
d="M74 -12q-15 0 -35 14t-20 24q0 5 36.5 98.5t72.5 184.5l36 91l-50 4l-72 -113l-6 3q72 144 131 144q13 0 21.5 -20.5t8.5 -45.5q0 -12 -33.5 -98.5t-67.5 -166.5l-33 -80l50 -6l75 114l6 -3q-73 -144 -120 -144zM170 485q-26 0 -43 12t-24.5 37t-9.5 43t-4 50h4
q12 -51 30 -77.5t54 -26.5q64 0 133 104h4q-39 -78 -62 -104q-35 -38 -82 -38z" />
    <glyph glyph-name="Iogonek" unicode="&#x12e;" horiz-adv-x="307" 
d="M129 -213q-29 0 -48.5 20.5t-19.5 51.5q0 42 41 78t101 63h-217l3 6l41 4q50 4 52 16l122 576q0 3 -1 4.5t-7 3t-17 3t-31 3.5l-28 3l-1 6h243l-4 -6l-40 -4q-50 -4 -52 -16l-122 -576q0 -3 1 -4.5t7 -3t17 -3t31 -3.5l28 -3l1 -6q-51 -17 -87.5 -50.5t-36.5 -77.5
q0 -26 14 -42.5t36 -16.5q33 0 62 35l3 -2q-46 -59 -91 -59z" />
    <glyph glyph-name="iogonek" unicode="&#x12f;" horiz-adv-x="223" 
d="M18 -213q-29 0 -48.5 20.5t-19.5 51.5q0 69 119 130q-16 2 -33 15t-17 22q0 5 36.5 98.5t72.5 184.5l36 91l-50 4l-72 -113l-6 3q72 144 131 144q13 0 21.5 -20.5t8.5 -45.5q0 -12 -33.5 -98.5t-67.5 -166.5l-33 -80l50 -6l75 114l6 -3q-21 -43 -50.5 -86t-51.5 -54
q-98 -49 -98 -120q0 -26 14 -42.5t36 -16.5q33 0 62 35l3 -2q-46 -59 -91 -59zM227 538q-15 0 -23.5 9.5t-8.5 24.5q0 19 12 35t26 16q15 0 24 -9.5t9 -23.5q0 -19 -12.5 -35.5t-26.5 -16.5z" />
    <glyph glyph-name="Idotaccent" unicode="&#x130;" horiz-adv-x="307" 
d="M-14 0l3 6l41 4q50 4 52 16l122 576q0 3 -1 4.5t-7 3t-17 3t-31 3.5l-28 3l-1 6h243l-4 -6l-40 -4q-50 -4 -52 -16l-122 -576q0 -3 1 -4.5t7 -3t17 -3t31 -3.5l28 -3l1 -6h-243zM265 713q-17 0 -27 12t-10 25q0 15 9 28t27 13t28 -13.5t10 -27.5q0 -13 -10 -25t-27 -12z
" />
    <glyph glyph-name="dotlessi" unicode="&#x131;" horiz-adv-x="223" 
d="M74 -12q-15 0 -35 14t-20 24q0 5 36.5 98.5t72.5 184.5l36 91l-50 4l-72 -113l-6 3q72 144 131 144q13 0 21.5 -20.5t8.5 -45.5q0 -12 -33.5 -98.5t-67.5 -166.5l-33 -80l50 -6l75 114l6 -3q-73 -144 -120 -144z" />
    <glyph glyph-name="Jcircumflex" unicode="&#x134;" horiz-adv-x="287" 
d="M-66 -168q-68 0 -68 46q0 19 12.5 32.5t30.5 13.5q17 0 29.5 -14t10 -33.5t-25.5 -32.5q45 -11 86 31t60 135l125 592q0 3 -1 4.5t-7 3t-17 3t-31 3.5l-28 3l-1 6h243l-4 -6l-40 -4q-50 -4 -52 -16l-130 -611q-8 -33 -70.5 -94.5t-121.5 -61.5zM120 669l155 177h3
l82 -177h-4l-89 114h-3l-140 -114h-4z" />
    <glyph glyph-name="jcircumflex" unicode="&#x135;" horiz-adv-x="205" 
d="M-118 -249q-21 0 -36 13t-15 32q0 13 9.5 23.5t25.5 10.5q23 0 31 -20.5t-17 -48.5l46 17q53 53 98 197l131 425l-47 4l-72 -113l-6 3q72 144 131 144q13 0 21.5 -20.5t8.5 -45.5q0 -21 -40.5 -143t-76.5 -213q-72 -180 -112 -220q-17 -18 -40 -31.5t-40 -13.5zM39 481
l155 177h3l82 -177h-4l-89 114h-3l-140 -114h-4z" />
    <glyph glyph-name="Kcommaaccent" unicode="&#x136;" horiz-adv-x="643" 
d="M-20 0l3 6l37 4q50 6 52 16l122 576q1 5 -7 7q-7 2 -49 7l-24 3l-1 6h239l-4 -6l-40 -4q-50 -4 -52 -16l-71 -335l216 179q137 116 153 141q13 21 -14 27q-11 2 -40 5l-33 3l-1 6h232l-4 -6l-11 -1q-45 -4 -59 -10q-20 -10 -118 -91q-57 -47 -105 -86l-33 -27l130 -325
q19 -48 31 -58t47 -13l24 -2l1 -6h-233l3 6l29 2q58 4 39 52l-119 304l-136 -112l-50 -229q0 -3 1 -4.5t7 -3t17 -3t31 -3.5l28 -3l1 -6h-239zM183 -263l-3 5q78 29 91 92q6 29 -11.5 43t-45.5 3q-7 21 9 39t44 15q27 -3 41.5 -24.5t7.5 -53.5q-8 -39 -46.5 -73.5
t-86.5 -45.5z" />
    <glyph glyph-name="kcommaaccent" unicode="&#x137;" horiz-adv-x="394" 
d="M264 -13q-34 0 -55 18q-5 171 -10 195q-7 36 -32 40q-6 1 -13 1q-19 0 -37 -10l-79 -234l-50 5l57 164q25 76 59 188t55 186l21 74q6 23 -5 23l-80 3l2 6l149 17l-19 -64q-83 -287 -106 -357q3 1 11 2t12 2q103 39 137.5 63.5t46.5 54.5l-1 2q-14 1 -25 11.5t-11 24.5
q0 13 10.5 23.5t23.5 10.5q14 0 24 -10.5t10 -25.5q0 -77 -148 -135l-43 -17q45 -2 64.5 -52.5t26.5 -171.5l36 -2l66 122l6 -2q-27 -69 -55.5 -112t-47.5 -43zM45 -263l-3 5q78 29 91 92q6 29 -11.5 43t-45.5 3q-7 21 9 39t44 15q27 -3 41.5 -24.5t7.5 -53.5
q-8 -39 -46.5 -73.5t-86.5 -45.5z" />
    <glyph glyph-name="Lacute" unicode="&#x139;" horiz-adv-x="527" 
d="M-20 0l3 6l37 4q50 6 52 17l122 575q1 5 -7 7q-7 2 -49 7l-24 3l-1 6h259l-4 -6l-60 -4q-50 -4 -52 -16l-124 -585l149 -4q65 1 105 38.5t83 112.5l7 13l7 -1l-65 -173h-438zM200 679l158 187h64l-218 -187h-4z" />
    <glyph glyph-name="lacute" unicode="&#x13a;" horiz-adv-x="203" 
d="M56 -12q-15 0 -34.5 14t-19.5 24l179 588q6 23 -5 23l-80 3l2 6l150 17l-201 -636l48 -6l75 114l6 -3q-73 -144 -120 -144zM120 679l158 187h64l-218 -187h-4z" />
    <glyph glyph-name="Lcommaaccent" unicode="&#x13b;" horiz-adv-x="527" 
d="M-20 0l3 6l37 4q50 6 52 17l122 575q1 5 -7 7q-7 2 -49 7l-24 3l-1 6h259l-4 -6l-60 -4q-50 -4 -52 -16l-124 -585l149 -4q65 1 105 38.5t83 112.5l7 13l7 -1l-65 -173h-438zM123 -263l-3 5q78 29 91 92q6 29 -11.5 43t-45.5 3q-7 21 9 39t44 15q27 -3 41.5 -24.5
t7.5 -53.5q-8 -39 -46.5 -73.5t-86.5 -45.5z" />
    <glyph glyph-name="lcommaaccent" unicode="&#x13c;" horiz-adv-x="203" 
d="M56 -12q-15 0 -34.5 14t-19.5 24l179 588q6 23 -5 23l-80 3l2 6l150 17l-201 -636l48 -6l75 114l6 -3q-73 -144 -120 -144zM-53 -263l-3 5q78 29 91 92q6 29 -11.5 43t-45.5 3q-7 21 9 39t44 15q27 -3 41.5 -24.5t7.5 -53.5q-8 -39 -46.5 -73.5t-86.5 -45.5z" />
    <glyph glyph-name="Lcaron" unicode="&#x13d;" horiz-adv-x="603" 
d="M-20 0l3 6l37 4q50 6 52 17l122 575q1 5 -7 7q-7 2 -49 7l-24 3l-1 6h259l-4 -6l-60 -4q-50 -4 -52 -16l-124 -585l149 -4q65 1 105 38.5t83 112.5l7 13l7 -1l-65 -173h-438zM565 452l-2 4q97 44 97 105q0 21 -17 31.5t-47 6.5q-5 14 9 31t37 17q24 0 40 -16.5t16 -43.5
q0 -42 -41 -80.5t-92 -54.5z" />
    <glyph glyph-name="lcaron" unicode="&#x13e;" horiz-adv-x="354" 
d="M56 -12q-15 0 -34.5 14t-19.5 24l179 588q6 23 -5 23l-80 3l2 6l150 17l-201 -636l48 -6l75 114l6 -3q-73 -144 -120 -144zM276 444l-2 4q97 44 97 105q0 21 -17 31.5t-47 6.5q-5 14 9 31t37 17q24 0 40 -16.5t16 -43.5q0 -42 -41 -80.5t-92 -54.5z" />
    <glyph glyph-name="Ldot" unicode="&#x13f;" horiz-adv-x="584" 
d="M-20 0l3 6l37 4q50 6 52 17l122 575q1 5 -7 7q-7 2 -49 7l-24 3l-1 6h259l-4 -6l-60 -4q-50 -4 -52 -16l-124 -585l149 -4q65 1 105 38.5t83 112.5l7 13l7 -1l-65 -173h-438zM593 268q-19 0 -32 13.5t-13 31.5q0 17 13.5 30t32.5 13q18 0 30 -13t12 -30
q0 -18 -12.5 -31.5t-30.5 -13.5z" />
    <glyph glyph-name="ldotaccent" unicode="&#x140;" horiz-adv-x="334" 
d="M56 -12q-15 0 -34.5 14t-19.5 24l179 588q6 23 -5 23l-80 3l2 6l150 17l-201 -636l48 -6l75 114l6 -3q-73 -144 -120 -144zM298 267q-19 0 -32 13.5t-13 31.5q0 17 13.5 30t32.5 13q18 0 30 -13t12 -30q0 -18 -12.5 -31.5t-30.5 -13.5z" />
    <glyph glyph-name="Lslash" unicode="&#x141;" horiz-adv-x="536" 
d="M127 284l-27 -8l-54 -16l-27 -8l1 11l109 33l65 306q1 5 -7 7q-7 2 -49 7l-24 3l-1 6h259l-4 -6l-60 -4q-50 -4 -52 -16l-60 -282l109 33l-1 -12q-110 -33 -111 -33l-61 -291l149 -4q65 1 105 38.5t83 112.5l7 13l7 -1l-65 -173h-438l3 6l37 4q50 6 52 17z" />
    <glyph glyph-name="lslash" unicode="&#x142;" horiz-adv-x="191" 
d="M90 268l-82 -25l4 11l81 25l104 335q6 23 -5 23l-80 3l2 6l150 17q-110 -350 -117 -368l61 19l-1 -11l-63 -19l-81 -257l48 -6l75 114l6 -3q-73 -144 -120 -144q-15 0 -34.5 14t-19.5 24q0 5 72 242z" />
    <glyph glyph-name="Nacute" unicode="&#x143;" horiz-adv-x="673" 
d="M517 -6l-298 583h-1l-115 -543q-4 -23 77 -27l18 -1l1 -6h-207l3 6l20 2q72 6 77 28l120 551q-13 19 -90 30l-12 2l-1 6h154l270 -527h2l104 493q4 23 -76 27l-18 1l-1 6h207l-4 -6l-19 -2q-73 -7 -78 -28l-129 -595h-4zM409 679l158 187h64l-218 -187h-4z" />
    <glyph glyph-name="nacute" unicode="&#x144;" 
d="M292 -12q-15 0 -36 14t-21 24q0 5 11 33t31.5 78.5t32.5 81.5q52 136 52 151t-11.5 25t-28.5 10q-25 0 -91.5 -90.5t-128.5 -222.5l-36 -95l-50 5l57 165l71 234l-45 4l-72 -114l-6 3q72 145 131 145q13 0 21.5 -20.5t8.5 -45.5q0 -51 -73 -227l6 -2q40 77 92.5 154
t81.5 106q32 33 67 33q18 0 37.5 -20.5t19.5 -44.5q0 -22 -53 -153l-77 -192l48 -6l75 115l6 -3q-37 -74 -68 -109.5t-52 -35.5zM225 491l158 187h64l-218 -187h-4z" />
    <glyph glyph-name="Ncommaaccent" unicode="&#x145;" horiz-adv-x="673" 
d="M517 -6l-298 583h-1l-115 -543q-4 -23 77 -27l18 -1l1 -6h-207l3 6l20 2q72 6 77 28l120 551q-13 19 -90 30l-12 2l-1 6h154l270 -527h2l104 493q4 23 -76 27l-18 1l-1 6h207l-4 -6l-19 -2q-73 -7 -78 -28l-129 -595h-4zM223 -263l-3 5q78 29 91 92q6 29 -11.5 43
t-45.5 3q-7 21 9 39t44 15q27 -3 41.5 -24.5t7.5 -53.5q-8 -39 -46.5 -73.5t-86.5 -45.5z" />
    <glyph glyph-name="ncommaaccent" unicode="&#x146;" 
d="M292 -12q-15 0 -36 14t-21 24q0 5 11 33t31.5 78.5t32.5 81.5q52 136 52 151t-11.5 25t-28.5 10q-25 0 -91.5 -90.5t-128.5 -222.5l-36 -95l-50 5l57 165l71 234l-45 4l-72 -114l-6 3q72 145 131 145q13 0 21.5 -20.5t8.5 -45.5q0 -51 -73 -227l6 -2q40 77 92.5 154
t81.5 106q32 33 67 33q18 0 37.5 -20.5t19.5 -44.5q0 -22 -53 -153l-77 -192l48 -6l75 115l6 -3q-37 -74 -68 -109.5t-52 -35.5zM63 -263l-3 5q78 29 91 92q6 29 -11.5 43t-45.5 3q-7 21 9 39t44 15q27 -3 41.5 -24.5t7.5 -53.5q-8 -39 -46.5 -73.5t-86.5 -45.5z" />
    <glyph glyph-name="Ncaron" unicode="&#x147;" horiz-adv-x="673" 
d="M517 -6l-298 583h-1l-115 -543q-4 -23 77 -27l18 -1l1 -6h-207l3 6l20 2q72 6 77 28l120 551q-13 19 -90 30l-12 2l-1 6h154l270 -527h2l104 493q4 23 -76 27l-18 1l-1 6h207l-4 -6l-19 -2q-73 -7 -78 -28l-129 -595h-4zM440 669l-82 177h4l89 -114h3l140 114h4
l-155 -177h-3z" />
    <glyph glyph-name="ncaron" unicode="&#x148;" 
d="M292 -12q-15 0 -36 14t-21 24q0 5 11 33t31.5 78.5t32.5 81.5q52 136 52 151t-11.5 25t-28.5 10q-25 0 -91.5 -90.5t-128.5 -222.5l-36 -95l-50 5l57 165l71 234l-45 4l-72 -114l-6 3q72 145 131 145q13 0 21.5 -20.5t8.5 -45.5q0 -51 -73 -227l6 -2q40 77 92.5 154
t81.5 106q32 33 67 33q18 0 37.5 -20.5t19.5 -44.5q0 -22 -53 -153l-77 -192l48 -6l75 115l6 -3q-37 -74 -68 -109.5t-52 -35.5zM271 481l-82 177h4l89 -114h3l140 114h4l-155 -177h-3z" />
    <glyph glyph-name="Omacron" unicode="&#x14c;" horiz-adv-x="700" 
d="M341 -13q-131 0 -209 84t-78 210q0 139 100.5 248t245.5 109q128 0 207.5 -85.5t79.5 -210.5q0 -153 -104.5 -254t-241.5 -101zM342 -4q121 0 199 106t78 264q0 117 -59 190t-162 73q-83 0 -147.5 -54.5t-97.5 -139.5t-33 -182q0 -116 57.5 -186.5t164.5 -70.5zM294 709
l11 25h250l-11 -25h-250z" />
    <glyph glyph-name="omacron" unicode="&#x14d;" horiz-adv-x="355" 
d="M127 -12q-56 0 -81 46.5t-25 113.5q0 100 65 194.5t136 94.5q51 0 82 -47t31 -125q0 -103 -65.5 -190t-142.5 -87zM115 -2q44 0 86.5 50.5t66.5 125.5q21 65 21 143q0 109 -55 109q-41 0 -82 -60.5t-67 -141.5q-21 -65 -21 -127q0 -45 13.5 -72t37.5 -27zM124 521l11 25
h250l-11 -25h-250z" />
    <glyph glyph-name="Obreve" unicode="&#x14e;" horiz-adv-x="700" 
d="M341 -13q-131 0 -209 84t-78 210q0 139 100.5 248t245.5 109q128 0 207.5 -85.5t79.5 -210.5q0 -153 -104.5 -254t-241.5 -101zM342 -4q121 0 199 106t78 264q0 117 -59 190t-162 73q-83 0 -147.5 -54.5t-97.5 -139.5t-33 -182q0 -116 57.5 -186.5t164.5 -70.5zM429 673
q-26 0 -43 12t-24.5 37t-9.5 43t-4 50h4q12 -51 30 -77.5t54 -26.5q64 0 133 104h4q-39 -78 -62 -104q-35 -38 -82 -38z" />
    <glyph glyph-name="obreve" unicode="&#x14f;" horiz-adv-x="355" 
d="M127 -12q-56 0 -81 46.5t-25 113.5q0 100 65 194.5t136 94.5q51 0 82 -47t31 -125q0 -103 -65.5 -190t-142.5 -87zM115 -2q44 0 86.5 50.5t66.5 125.5q21 65 21 143q0 109 -55 109q-41 0 -82 -60.5t-67 -141.5q-21 -65 -21 -127q0 -45 13.5 -72t37.5 -27zM238 485
q-26 0 -43 12t-24.5 37t-9.5 43t-4 50h4q12 -51 30 -77.5t54 -26.5q64 0 133 104h4q-39 -78 -62 -104q-35 -38 -82 -38z" />
    <glyph glyph-name="Ohungarumlaut" unicode="&#x150;" horiz-adv-x="700" 
d="M341 -13q-131 0 -209 84t-78 210q0 139 100.5 248t245.5 109q128 0 207.5 -85.5t79.5 -210.5q0 -153 -104.5 -254t-241.5 -101zM342 -4q121 0 199 106t78 264q0 117 -59 190t-162 73q-83 0 -147.5 -54.5t-97.5 -139.5t-33 -182q0 -116 57.5 -186.5t164.5 -70.5zM444 679
l155 187h58l-209 -187h-4zM312 679l155 187h58l-209 -187h-4z" />
    <glyph glyph-name="ohungarumlaut" unicode="&#x151;" horiz-adv-x="355" 
d="M127 -12q-56 0 -81 46.5t-25 113.5q0 100 65 194.5t136 94.5q51 0 82 -47t31 -125q0 -103 -65.5 -190t-142.5 -87zM115 -2q44 0 86.5 50.5t66.5 125.5q21 65 21 143q0 109 -55 109q-41 0 -82 -60.5t-67 -141.5q-21 -65 -21 -127q0 -45 13.5 -72t37.5 -27zM271 491
l155 187h58l-209 -187h-4zM139 491l155 187h58l-209 -187h-4z" />
    <glyph glyph-name="OE" unicode="&#x152;" horiz-adv-x="893" 
d="M324 0q-128 0 -202.5 77t-74.5 193q0 160 109 257.5t305 97.5h411l16 -160h-4l-5 15q-26 78 -53 107t-75 29h-140l-59 -279l97 1q23 0 38 3.5t23.5 5.5t18 16t12 19.5t14.5 31.5l6 12l4 -1h1l-40 -190l-5 1l1 12q4 54 -7.5 65.5t-73.5 12.5l-91 2l-67 -314l169 -4
q66 1 111.5 39t92.5 111l9 14l6 -1l-83 -173h-464zM336 9l82 1l126 593l-110 12q-103 0 -177 -52.5t-108.5 -134.5t-34.5 -183q0 -236 222 -236z" />
    <glyph glyph-name="oe" unicode="&#x153;" horiz-adv-x="575" 
d="M127 -12q-56 0 -81 46.5t-25 113.5q0 100 65 194.5t136 94.5q42 0 69.5 -32t36.5 -88q34 55 78.5 87.5t89.5 32.5q38 0 64 -18t26 -45q0 -48 -61 -79t-189 -51q-16 -53 -16 -100q0 -54 21.5 -87t59.5 -33q37 0 67.5 25t65.5 84l7 -3q-81 -142 -162 -142q-42 0 -68.5 27
t-35.5 70q-30 -44 -69 -70.5t-79 -26.5zM342 254q111 18 151.5 45t40.5 78q0 22 -13 36.5t-36 14.5q-29 0 -68 -37q-47 -47 -77 -136zM115 -2q44 0 86.5 50.5t66.5 125.5q21 65 21 143q0 109 -55 109q-41 0 -82 -60.5t-67 -141.5q-21 -65 -21 -127q0 -45 13.5 -72t37.5 -27z
" />
    <glyph glyph-name="Racute" unicode="&#x154;" horiz-adv-x="602" 
d="M-34 0l3 6l51 4q50 5 52 16l122 576q0 3 -1 4.5t-7 3.5t-17.5 3.5t-30.5 2.5l-38 3l-1 6h256q86 0 141 -40t55 -102q0 -68 -59.5 -112.5t-139.5 -49.5l100 -244q18 -43 34.5 -55.5t50.5 -14.5l12 -1l2 -6h-133l-128 319q-42 5 -87 27l-69 -323q-1 -5 16.5 -8.5t39.5 -5.5
l38 -3l1 -6h-263zM318 329q73 0 120 46t47 121q0 56 -37 87.5t-100 31.5h-89l-54 -259q61 -27 113 -27zM299 679l158 187h64l-218 -187h-4z" />
    <glyph glyph-name="racute" unicode="&#x155;" horiz-adv-x="354" 
d="M67 -3l-51 5l62 165l66 234l-45 4l-72 -114l-6 3q72 145 131 145q13 0 21.5 -20.5t8.5 -45.5q0 -45 -55 -192h3q102 194 143 235q23 23 52 23q23 0 38 -16t15 -36q0 -17 -12 -28.5t-27 -11.5q-21 0 -29.5 19.5t14.5 41.5l-26 12q-21 -10 -53 -58t-119 -209zM196 491
l158 187h64l-218 -187h-4z" />
    <glyph glyph-name="Rcommaaccent" unicode="&#x156;" horiz-adv-x="602" 
d="M-34 0l3 6l51 4q50 5 52 16l122 576q0 3 -1 4.5t-7 3.5t-17.5 3.5t-30.5 2.5l-38 3l-1 6h256q86 0 141 -40t55 -102q0 -68 -59.5 -112.5t-139.5 -49.5l100 -244q18 -43 34.5 -55.5t50.5 -14.5l12 -1l2 -6h-133l-128 319q-42 5 -87 27l-69 -323q-1 -5 16.5 -8.5t39.5 -5.5
l38 -3l1 -6h-263zM318 329q73 0 120 46t47 121q0 56 -37 87.5t-100 31.5h-89l-54 -259q61 -27 113 -27zM188 -263l-3 5q78 29 91 92q6 29 -11.5 43t-45.5 3q-7 21 9 39t44 15q27 -3 41.5 -24.5t7.5 -53.5q-8 -39 -46.5 -73.5t-86.5 -45.5z" />
    <glyph glyph-name="rcommaaccent" unicode="&#x157;" horiz-adv-x="354" 
d="M67 -3l-51 5l62 165l66 234l-45 4l-72 -114l-6 3q72 145 131 145q13 0 21.5 -20.5t8.5 -45.5q0 -45 -55 -192h3q102 194 143 235q23 23 52 23q23 0 38 -16t15 -36q0 -17 -12 -28.5t-27 -11.5q-21 0 -29.5 19.5t14.5 41.5l-26 12q-21 -10 -53 -58t-119 -209zM-51 -263
l-3 5q78 29 91 92q6 29 -11.5 43t-45.5 3q-7 21 9 39t44 15q27 -3 41.5 -24.5t7.5 -53.5q-8 -39 -46.5 -73.5t-86.5 -45.5z" />
    <glyph glyph-name="Rcaron" unicode="&#x158;" horiz-adv-x="602" 
d="M-34 0l3 6l51 4q50 5 52 16l122 576q0 3 -1 4.5t-7 3.5t-17.5 3.5t-30.5 2.5l-38 3l-1 6h256q86 0 141 -40t55 -102q0 -68 -59.5 -112.5t-139.5 -49.5l100 -244q18 -43 34.5 -55.5t50.5 -14.5l12 -1l2 -6h-133l-128 319q-42 5 -87 27l-69 -323q-1 -5 16.5 -8.5t39.5 -5.5
l38 -3l1 -6h-263zM318 329q73 0 120 46t47 121q0 56 -37 87.5t-100 31.5h-89l-54 -259q61 -27 113 -27zM336 669l-82 177h4l89 -114h3l140 114h4l-155 -177h-3z" />
    <glyph glyph-name="rcaron" unicode="&#x159;" horiz-adv-x="354" 
d="M67 -3l-51 5l62 165l66 234l-45 4l-72 -114l-6 3q72 145 131 145q13 0 21.5 -20.5t8.5 -45.5q0 -45 -55 -192h3q102 194 143 235q23 23 52 23q23 0 38 -16t15 -36q0 -17 -12 -28.5t-27 -11.5q-21 0 -29.5 19.5t14.5 41.5l-26 12q-21 -10 -53 -58t-119 -209zM232 481
l-82 177h4l89 -114h3l140 114h4l-155 -177h-3z" />
    <glyph glyph-name="Sacute" unicode="&#x15a;" horiz-adv-x="463" 
d="M210 -15q-50 0 -106.5 19.5t-91.5 46.5l17 135l3 -1l7 -41q12 -70 58 -110t116 -40q75 0 118 37.5t43 104.5q0 51 -27.5 85.5t-107.5 86.5q-63 41 -95 80t-32 91q0 74 49.5 118.5t132.5 44.5q73 0 122 -39l47 6l-21 -150l-4 1l-37 131q-38 43 -105 43q-66 0 -102 -35
t-36 -89q0 -45 27.5 -77t98.5 -79q68 -45 104 -85.5t36 -95.5q0 -82 -57.5 -135t-156.5 -53zM238 679l158 187h64l-218 -187h-4z" />
    <glyph glyph-name="sacute" unicode="&#x15b;" horiz-adv-x="292" 
d="M117 -12q-51 0 -86 23t-35 61q0 18 10 30t23 12q14 0 23 -9.5t9 -23.5q0 -13 -10 -24t-24 -16q40 -46 90 -46q45 0 67.5 28.5t21.5 62.5q0 9 -2 18t-7.5 18.5t-9 15.5t-13 16.5t-12 13.5t-14 15t-12.5 13q-27 27 -39.5 41t-24.5 37t-12 46q-1 47 39 82t85 35q47 0 73 -21
t27 -57q1 -18 -9.5 -29t-24.5 -11t-22.5 9t-8.5 24q0 29 33 39q-28 38 -68 38q-39 0 -62 -25.5t-22 -61.5q1 -39 64 -100q54 -52 69 -80q16 -28 16 -54q1 -49 -41 -84.5t-91 -35.5zM138 460l158 187h64l-218 -187h-4z" />
    <glyph glyph-name="Scircumflex" unicode="&#x15c;" horiz-adv-x="463" 
d="M210 -15q-50 0 -106.5 19.5t-91.5 46.5l17 135l3 -1l7 -41q12 -70 58 -110t116 -40q75 0 118 37.5t43 104.5q0 51 -27.5 85.5t-107.5 86.5q-63 41 -95 80t-32 91q0 74 49.5 118.5t132.5 44.5q73 0 122 -39l47 6l-21 -150l-4 1l-37 131q-38 43 -105 43q-66 0 -102 -35
t-36 -89q0 -45 27.5 -77t98.5 -79q68 -45 104 -85.5t36 -95.5q0 -82 -57.5 -135t-156.5 -53zM157 669l155 177h3l82 -177h-4l-89 114h-3l-140 -114h-4z" />
    <glyph glyph-name="scircumflex" unicode="&#x15d;" horiz-adv-x="292" 
d="M117 -12q-51 0 -86 23t-35 61q0 18 10 30t23 12q14 0 23 -9.5t9 -23.5q0 -13 -10 -24t-24 -16q40 -46 90 -46q45 0 67.5 28.5t21.5 62.5q0 9 -2 18t-7.5 18.5t-9 15.5t-13 16.5t-12 13.5t-14 15t-12.5 13q-27 27 -39.5 41t-24.5 37t-12 46q-1 47 39 82t85 35q47 0 73 -21
t27 -57q1 -18 -9.5 -29t-24.5 -11t-22.5 9t-8.5 24q0 29 33 39q-28 38 -68 38q-39 0 -62 -25.5t-22 -61.5q1 -39 64 -100q54 -52 69 -80q16 -28 16 -54q1 -49 -41 -84.5t-91 -35.5zM72 481l155 177h3l82 -177h-4l-89 114h-3l-140 -114h-4z" />
    <glyph glyph-name="Scedilla" unicode="&#x15e;" horiz-adv-x="463" 
d="M41 -234l-1 5q74 0 117.5 21.5t43.5 57.5q0 20 -19 32.5t-51 12.5q-18 0 -60 -9l2 6l105 95q-101 13 -166 64l17 135l3 -1l7 -41q12 -70 58 -110t116 -40q75 0 118 37.5t43 104.5q0 51 -27.5 85.5t-107.5 86.5q-63 41 -95 80t-32 91q0 74 49.5 118.5t132.5 44.5
q73 0 122 -39l47 6l-21 -150l-4 1l-37 131q-38 43 -105 43q-66 0 -102 -35t-36 -89q0 -45 27.5 -77t98.5 -79q68 -45 104 -85.5t36 -95.5q0 -82 -57.5 -135t-156.5 -53q-4 0 -12 0.5t-12 0.5l-67 -61q55 7 86.5 -10.5t31.5 -49.5q0 -50 -56 -75.5t-140 -23.5z" />
    <glyph glyph-name="scedilla" unicode="&#x15f;" horiz-adv-x="292" 
d="M-44 -234l-1 5q74 0 117.5 21.5t43.5 57.5q0 20 -19 32.5t-51 12.5q-18 0 -60 -9l2 6l108 97q-44 5 -72 27t-28 56q0 18 10 30t23 12q14 0 23 -9.5t9 -23.5q0 -13 -10 -24t-24 -16q40 -46 90 -46q45 0 67.5 28.5t21.5 62.5q0 9 -2 18t-7.5 18.5t-9 15.5t-13 16.5
t-12 13.5t-14 15t-12.5 13q-27 27 -39.5 41t-24.5 37t-12 46q-1 47 39 82t85 35q47 0 73 -21t27 -57q1 -18 -9.5 -29t-24.5 -11t-22.5 9t-8.5 24q0 29 33 39q-28 38 -68 38q-39 0 -62 -25.5t-22 -61.5q1 -39 64 -100q54 -52 69 -80q16 -28 16 -54q1 -49 -41 -84.5t-91 -35.5
q-9 0 -13 1l-70 -64q55 7 86.5 -10.5t31.5 -49.5q0 -50 -56 -75.5t-140 -23.5z" />
    <glyph glyph-name="Scaron" unicode="&#x160;" horiz-adv-x="463" 
d="M210 -15q-50 0 -106.5 19.5t-91.5 46.5l17 135l3 -1l7 -41q12 -70 58 -110t116 -40q75 0 118 37.5t43 104.5q0 51 -27.5 85.5t-107.5 86.5q-63 41 -95 80t-32 91q0 74 49.5 118.5t132.5 44.5q73 0 122 -39l47 6l-21 -150l-4 1l-37 131q-38 43 -105 43q-66 0 -102 -35
t-36 -89q0 -45 27.5 -77t98.5 -79q68 -45 104 -85.5t36 -95.5q0 -82 -57.5 -135t-156.5 -53zM306 668l-82 177h4l89 -114h3l140 114h4l-155 -177h-3z" />
    <glyph glyph-name="scaron" unicode="&#x161;" horiz-adv-x="292" 
d="M117 -12q-51 0 -86 23t-35 61q0 18 10 30t23 12q14 0 23 -9.5t9 -23.5q0 -13 -10 -24t-24 -16q40 -46 90 -46q45 0 67.5 28.5t21.5 62.5q0 9 -2 18t-7.5 18.5t-9 15.5t-13 16.5t-12 13.5t-14 15t-12.5 13q-27 27 -39.5 41t-24.5 37t-12 46q-1 47 39 82t85 35q47 0 73 -21
t27 -57q1 -18 -9.5 -29t-24.5 -11t-22.5 9t-8.5 24q0 29 33 39q-28 38 -68 38q-39 0 -62 -25.5t-22 -61.5q1 -39 64 -100q54 -52 69 -80q16 -28 16 -54q1 -49 -41 -84.5t-91 -35.5zM208 481l-82 177h4l89 -114h3l140 114h4l-155 -177h-3z" />
    <glyph glyph-name="Tcommaaccent" unicode="&#x162;" horiz-adv-x="607" 
d="M126 0l3 6l51 4q50 4 52 16l124 590h-102q-43 -5 -73.5 -35t-68.5 -92l-8 -13h-5l46 149h492l-15 -149h-4l-2 12q-12 76 -33 99.5t-73 28.5h-90l-126 -593q0 -3 1 -4.5t7 -3.5t17.5 -3.5t30.5 -2.5l38 -3l1 -6h-263zM159 -263l-3 5q78 29 91 92q6 29 -11.5 43t-45.5 3
q-7 21 9 39t44 15q27 -3 41.5 -24.5t7.5 -53.5q-8 -39 -46.5 -73.5t-86.5 -45.5z" />
    <glyph glyph-name="tcommaaccent" unicode="&#x163;" horiz-adv-x="238" 
d="M78 -12q-16 0 -40.5 15t-20.5 26l110 365l-71 1l9 26l71 1l42 136h49l-42 -136l87 -1l-8 -27h-88l-111 -367l53 -6l72 114l6 -3q-71 -144 -118 -144zM-22 -263l-3 5q78 29 91 92q6 29 -11.5 43t-45.5 3q-7 21 9 39t44 15q27 -3 41.5 -24.5t7.5 -53.5q-8 -39 -46.5 -73.5
t-86.5 -45.5z" />
    <glyph glyph-name="Tcaron" unicode="&#x164;" horiz-adv-x="607" 
d="M126 0l3 6l51 4q50 4 52 16l124 590h-102q-43 -5 -73.5 -35t-68.5 -92l-8 -13h-5l46 149h492l-15 -149h-4l-2 12q-12 76 -33 99.5t-73 28.5h-90l-126 -593q0 -3 1 -4.5t7 -3.5t17.5 -3.5t30.5 -2.5l38 -3l1 -6h-263zM390 669l-82 177h4l89 -114h3l140 114h4l-155 -177h-3
z" />
    <glyph glyph-name="tcaron" unicode="&#x165;" horiz-adv-x="238" 
d="M78 -12q-16 0 -40.5 15t-20.5 26l110 365l-71 1l9 26l71 1l42 136h49l-42 -136l87 -1l-8 -27h-88l-111 -367l53 -6l72 114l6 -3q-71 -144 -118 -144zM235 444l-2 4q97 44 97 105q0 21 -17 31.5t-47 6.5q-5 14 9 31t37 17q24 0 40 -16.5t16 -43.5q0 -42 -41 -80.5
t-92 -54.5z" />
    <glyph glyph-name="Umacron" unicode="&#x16a;" horiz-adv-x="647" 
d="M326 -16q-105 0 -165.5 42.5t-60.5 123.5q0 35 9 77l80 375q0 3 -1 4.5t-7 3.5t-17.5 3.5t-30.5 2.5l-38 3l-1 6h263l-4 -6l-50 -4q-50 -4 -52 -16l-79 -376q-8 -42 -8 -70q0 -69 48 -105t140 -36q80 0 128 48.5t70 151.5l80 379q4 23 -79 27l-18 1l-1 6h208l-4 -6
l-19 -2q-71 -6 -76 -28l-82 -381q-47 -224 -233 -224zM326 709l11 25h250l-11 -25h-250z" />
    <glyph glyph-name="umacron" unicode="&#x16b;" 
d="M281 -13q-13 0 -21.5 20.5t-8.5 45.5q0 22 20.5 88t51.5 140l-6 2q-40 -78 -92.5 -155.5t-80.5 -105.5q-32 -33 -67 -33q-18 0 -37.5 20.5t-19.5 44.5q0 22 53 153l76 193l-48 5l-74 -115l-6 3q73 145 120 145q15 0 36 -14t21 -24q0 -5 -11 -33t-31.5 -78.5t-32.5 -81.5
q-52 -136 -52 -151t11.5 -25t28.5 -10q25 0 91.5 90t128.5 222l36 96l50 -5l-57 -165l-72 -233l45 -5l73 114l6 -3q-72 -145 -131 -145zM153 518l11 25h250l-11 -25h-250z" />
    <glyph glyph-name="Ubreve" unicode="&#x16c;" horiz-adv-x="647" 
d="M326 -16q-105 0 -165.5 42.5t-60.5 123.5q0 35 9 77l80 375q0 3 -1 4.5t-7 3.5t-17.5 3.5t-30.5 2.5l-38 3l-1 6h263l-4 -6l-50 -4q-50 -4 -52 -16l-79 -376q-8 -42 -8 -70q0 -69 48 -105t140 -36q80 0 128 48.5t70 151.5l80 379q4 23 -79 27l-18 1l-1 6h208l-4 -6
l-19 -2q-71 -6 -76 -28l-82 -381q-47 -224 -233 -224zM444 673q-26 0 -43 12t-24.5 37t-9.5 43t-4 50h4q12 -51 30 -77.5t54 -26.5q64 0 133 104h4q-39 -78 -62 -104q-35 -38 -82 -38z" />
    <glyph glyph-name="ubreve" unicode="&#x16d;" 
d="M281 -13q-13 0 -21.5 20.5t-8.5 45.5q0 22 20.5 88t51.5 140l-6 2q-40 -78 -92.5 -155.5t-80.5 -105.5q-32 -33 -67 -33q-18 0 -37.5 20.5t-19.5 44.5q0 22 53 153l76 193l-48 5l-74 -115l-6 3q73 145 120 145q15 0 36 -14t21 -24q0 -5 -11 -33t-31.5 -78.5t-32.5 -81.5
q-52 -136 -52 -151t11.5 -25t28.5 -10q25 0 91.5 90t128.5 222l36 96l50 -5l-57 -165l-72 -233l45 -5l73 114l6 -3q-72 -145 -131 -145zM275 485q-26 0 -43 12t-24.5 37t-9.5 43t-4 50h4q12 -51 30 -77.5t54 -26.5q64 0 133 104h4q-39 -78 -62 -104q-35 -38 -82 -38z" />
    <glyph glyph-name="Uring" unicode="&#x16e;" horiz-adv-x="647" 
d="M326 -16q-105 0 -165.5 42.5t-60.5 123.5q0 35 9 77l80 375q0 3 -1 4.5t-7 3.5t-17.5 3.5t-30.5 2.5l-38 3l-1 6h263l-4 -6l-50 -4q-50 -4 -52 -16l-79 -376q-8 -42 -8 -70q0 -69 48 -105t140 -36q80 0 128 48.5t70 151.5l80 379q4 23 -79 27l-18 1l-1 6h208l-4 -6
l-19 -2q-71 -6 -76 -28l-82 -381q-47 -224 -233 -224zM456 686q-40 0 -64.5 26t-24.5 64q0 37 24.5 63.5t64.5 26.5t64.5 -26.5t24.5 -63.5q0 -38 -24.5 -64t-64.5 -26zM456 695q36 0 57.5 23.5t21.5 57.5t-21.5 57.5t-57.5 23.5t-57.5 -23.5t-21.5 -57.5t21.5 -57.5
t57.5 -23.5z" />
    <glyph glyph-name="uring" unicode="&#x16f;" 
d="M281 -13q-13 0 -21.5 20.5t-8.5 45.5q0 22 20.5 88t51.5 140l-6 2q-40 -78 -92.5 -155.5t-80.5 -105.5q-32 -33 -67 -33q-18 0 -37.5 20.5t-19.5 44.5q0 22 53 153l76 193l-48 5l-74 -115l-6 3q73 145 120 145q15 0 36 -14t21 -24q0 -5 -11 -33t-31.5 -78.5t-32.5 -81.5
q-52 -136 -52 -151t11.5 -25t28.5 -10q25 0 91.5 90t128.5 222l36 96l50 -5l-57 -165l-72 -233l45 -5l73 114l6 -3q-72 -145 -131 -145zM287 498q-40 0 -64.5 26t-24.5 64q0 37 24.5 63.5t64.5 26.5t64.5 -26.5t24.5 -63.5q0 -38 -24.5 -64t-64.5 -26zM287 507
q36 0 57.5 23.5t21.5 57.5t-21.5 57.5t-57.5 23.5t-57.5 -23.5t-21.5 -57.5t21.5 -57.5t57.5 -23.5z" />
    <glyph glyph-name="Uhungarumlaut" unicode="&#x170;" horiz-adv-x="647" 
d="M326 -16q-105 0 -165.5 42.5t-60.5 123.5q0 35 9 77l80 375q0 3 -1 4.5t-7 3.5t-17.5 3.5t-30.5 2.5l-38 3l-1 6h263l-4 -6l-50 -4q-50 -4 -52 -16l-79 -376q-8 -42 -8 -70q0 -69 48 -105t140 -36q80 0 128 48.5t70 151.5l80 379q4 23 -79 27l-18 1l-1 6h208l-4 -6
l-19 -2q-71 -6 -76 -28l-82 -381q-47 -224 -233 -224zM481 679l155 187h58l-209 -187h-4zM349 679l155 187h58l-209 -187h-4z" />
    <glyph glyph-name="uhungarumlaut" unicode="&#x171;" 
d="M281 -13q-13 0 -21.5 20.5t-8.5 45.5q0 22 20.5 88t51.5 140l-6 2q-40 -78 -92.5 -155.5t-80.5 -105.5q-32 -33 -67 -33q-18 0 -37.5 20.5t-19.5 44.5q0 22 53 153l76 193l-48 5l-74 -115l-6 3q73 145 120 145q15 0 36 -14t21 -24q0 -5 -11 -33t-31.5 -78.5t-32.5 -81.5
q-52 -136 -52 -151t11.5 -25t28.5 -10q25 0 91.5 90t128.5 222l36 96l50 -5l-57 -165l-72 -233l45 -5l73 114l6 -3q-72 -145 -131 -145zM311 491l155 187h58l-209 -187h-4zM179 491l155 187h58l-209 -187h-4z" />
    <glyph glyph-name="Uogonek" unicode="&#x172;" horiz-adv-x="647" 
d="M330 -213q-29 0 -48.5 20.5t-19.5 51.5q0 69 120 131q-26 -6 -56 -6q-105 0 -165.5 42.5t-60.5 123.5q0 35 9 77l80 375q0 3 -1 4.5t-7 3.5t-17.5 3.5t-30.5 2.5l-38 3l-1 6h263l-4 -6l-50 -4q-50 -4 -52 -16l-79 -376q-8 -42 -8 -70q0 -69 48 -105t140 -36
q80 0 128 48.5t70 151.5l80 379q4 23 -79 27l-18 1l-1 6h208l-4 -6l-19 -2q-71 -6 -76 -28l-82 -381q-34 -160 -139 -208q-114 -51 -114 -128q0 -26 14 -42.5t36 -16.5q33 0 62 35l3 -2q-46 -59 -91 -59z" />
    <glyph glyph-name="uogonek" unicode="&#x173;" 
d="M233 -213q-29 0 -48.5 20.5t-19.5 51.5q0 67 116 128q-13 0 -21.5 20.5t-8.5 45.5q0 22 20.5 88t51.5 140l-6 2q-40 -78 -92.5 -155.5t-80.5 -105.5q-32 -33 -67 -33q-18 0 -37.5 20.5t-19.5 44.5q0 22 53 153l76 193l-48 5l-74 -115l-6 3q73 145 120 145q15 0 36 -14
t21 -24q0 -5 -11 -33t-31.5 -78.5t-32.5 -81.5q-52 -136 -52 -151t11.5 -25t28.5 -10q25 0 91.5 90t128.5 222l36 96l50 -5l-57 -165l-72 -233l45 -5l73 114l6 -3q-58 -118 -104 -140q-99 -49 -99 -120q0 -26 14 -42.5t36 -16.5q33 0 62 35l3 -2q-46 -59 -91 -59z" />
    <glyph glyph-name="Wcircumflex" unicode="&#x174;" horiz-adv-x="949" 
d="M265 -11l-93 559q-7 43 -16.5 55t-42.5 14l-27 2v6h234l-5 -6l-31 -1q-61 -2 -56 -33l81 -505h2l215 382l-15 86q-7 42 -17 54.5t-43 14.5l-27 2l-1 6h235l-4 -6l-31 -1q-61 -2 -56 -33l78 -503h2l228 433q38 66 32.5 81t-69.5 21l-20 2l-1 6h205l-4 -6l-15 -2
q-47 -6 -66 -28t-90 -149l-236 -451h-7l-75 455h-2l-255 -455h-7zM436 669l155 177h3l82 -177h-4l-89 114h-3l-140 -114h-4z" />
    <glyph glyph-name="wcircumflex" unicode="&#x175;" horiz-adv-x="546" 
d="M88 -12q-25 0 -42.5 24.5t-17.5 59.5q0 36 27.5 88.5t70.5 118t59 98.5l-90 30l-70 -117l-5 3q70 149 117 149q18 0 51.5 -6.5t33.5 -9.5q0 -10 -35 -68t-70.5 -128.5t-35.5 -111.5q0 -76 49 -76q22 0 53 32.5t64 85.5t57 98t48 93l-8 5q-9 6 -18.5 17.5t-9.5 25.5
q0 17 10.5 27.5t28.5 10.5q14 0 24.5 -11.5t10.5 -26.5q0 -20 -31 -67t-45 -86q-26 -71 -26 -125q0 -79 65 -79q37 0 76 53.5t63 129.5t24 140q-22 -5 -36.5 7t-14.5 28q0 15 11.5 27t25.5 12q17 0 29 -13.5t12 -32.5q0 -56 -43 -179.5t-98 -179.5q-23 -24 -40 -35t-39 -11
q-24 0 -44.5 23.5t-20.5 53.5q0 16 2 31t7.5 35.5t8 28.5t12.5 36t11 32q-28 -48 -43.5 -74t-40.5 -63t-43 -55.5t-40.5 -33t-43.5 -14.5zM230 481l155 177h3l82 -177h-4l-89 114h-3l-140 -114h-4z" />
    <glyph glyph-name="Ycircumflex" unicode="&#x176;" horiz-adv-x="595" 
d="M120 0l3 6l51 4q50 4 52 16l54 256l-94 262q-8 23 -12 32t-12.5 20t-20 15.5t-30.5 5.5l-25 2l-1 6h241l-4 -6l-37 -1q-34 -1 -41 -13t5 -46l91 -256h2l145 197q39 54 48 76t-3.5 30t-56.5 11l-25 2l-1 6h225l-4 -6l-17 -1q-47 -2 -70 -20t-86 -101l-153 -207l-56 -267
q0 -3 1 -4.5t7 -3.5t17.5 -3.5t30.5 -2.5l38 -3l1 -6h-263zM264 669l155 177h3l82 -177h-4l-89 114h-3l-140 -114h-4z" />
    <glyph glyph-name="ycircumflex" unicode="&#x177;" horiz-adv-x="401" 
d="M262 55l1 -3q54 107 73.5 187.5t16.5 156.5q-27 -21 -46.5 -12.5t-19.5 27.5q0 15 10.5 25t26.5 10q21 0 33 -18t12 -48q0 -112 -58.5 -251t-145.5 -226q-85 -85 -171 -85q-39 0 -61 14t-21 40q1 16 12 27.5t28 11.5q24 0 31 -23.5t-12 -49.5q26 -6 39 -8q111 11 214 161
q-19 221 -45 319.5t-68 98.5h-21l-62 -118l-7 3q50 105 69 127q18 20 41 20q39 0 63.5 -35t41.5 -119.5t26 -231.5zM125 481l155 177h3l82 -177h-4l-89 114h-3l-140 -114h-4z" />
    <glyph glyph-name="Ydieresis" unicode="&#x178;" horiz-adv-x="595" 
d="M120 0l3 6l51 4q50 4 52 16l54 256l-94 262q-8 23 -12 32t-12.5 20t-20 15.5t-30.5 5.5l-25 2l-1 6h241l-4 -6l-37 -1q-34 -1 -41 -13t5 -46l91 -256h2l145 197q39 54 48 76t-3.5 30t-56.5 11l-25 2l-1 6h225l-4 -6l-17 -1q-47 -2 -70 -20t-86 -101l-153 -207l-56 -267
q0 -3 1 -4.5t7 -3.5t17.5 -3.5t30.5 -2.5l38 -3l1 -6h-263zM466 676q-17 0 -27 12t-10 25q0 14 9.5 27.5t27.5 13.5t27.5 -13.5t9.5 -27.5q0 -13 -10 -25t-27 -12zM326 676q-17 0 -27 12t-10 25q0 14 9.5 27.5t27.5 13.5t27.5 -13.5t9.5 -27.5q0 -13 -10 -25t-27 -12z" />
    <glyph glyph-name="Zacute" unicode="&#x179;" horiz-adv-x="549" 
d="M-9 0l1 4l517 609v2l-222 1q-46 0 -82.5 -37t-79.5 -120l-7 -14h-5l48 180h428l-1 -3l-516 -610l-1 -2l224 -1q66 0 113 44.5t91 134.5l7 15h7l-73 -203h-449zM343 679l158 187h64l-218 -187h-4z" />
    <glyph glyph-name="zacute" unicode="&#x17a;" horiz-adv-x="339" 
d="M201 -21q-29 6 -58.5 30t-54 44.5t-45.5 20.5h-7l-23 -85q-14 2 -25 12t-11 22q0 17 14.5 31.5t31.5 18.5l248 268q-25 -4 -50 9.5t-52 37t-32 27.5q-3 1 -16.5 -10t-24 -23t-6.5 -12q30 -3 30 -32q0 -14 -10 -24t-25 -10q-29 0 -29 33q0 28 39.5 60.5t77.5 41.5
q31 -6 51.5 -27t31.5 -40.5t18 -21.5l6 1l21 90q36 -11 36 -32q0 -17 -16.5 -37t-30.5 -23l-246 -267q44 10 96.5 -14t97.5 -65q2 -2 14 8t22.5 21.5t7.5 11.5q-14 1 -23.5 12.5t-9.5 24.5q0 14 10 23.5t26 9.5q13 0 21.5 -11t8.5 -26q0 -30 -38 -60.5t-76 -37.5zM198 491
l158 187h64l-218 -187h-4z" />
    <glyph glyph-name="Zdotaccent" unicode="&#x17b;" horiz-adv-x="549" 
d="M-9 0l1 4l517 609v2l-222 1q-46 0 -82.5 -37t-79.5 -120l-7 -14h-5l48 180h428l-1 -3l-516 -610l-1 -2l224 -1q66 0 113 44.5t91 134.5l7 15h7l-73 -203h-449zM371 713q-17 0 -27 12t-10 25q0 15 9 28t27 13t28 -13.5t10 -27.5q0 -13 -10 -25t-27 -12z" />
    <glyph glyph-name="zdotaccent" unicode="&#x17c;" horiz-adv-x="339" 
d="M201 -21q-29 6 -58.5 30t-54 44.5t-45.5 20.5h-7l-23 -85q-14 2 -25 12t-11 22q0 17 14.5 31.5t31.5 18.5l248 268q-25 -4 -50 9.5t-52 37t-32 27.5q-3 1 -16.5 -10t-24 -23t-6.5 -12q30 -3 30 -32q0 -14 -10 -24t-25 -10q-29 0 -29 33q0 28 39.5 60.5t77.5 41.5
q31 -6 51.5 -27t31.5 -40.5t18 -21.5l6 1l21 90q36 -11 36 -32q0 -17 -16.5 -37t-30.5 -23l-246 -267q44 10 96.5 -14t97.5 -65q2 -2 14 8t22.5 21.5t7.5 11.5q-14 1 -23.5 12.5t-9.5 24.5q0 14 10 23.5t26 9.5q13 0 21.5 -11t8.5 -26q0 -30 -38 -60.5t-76 -37.5zM233 525
q-17 0 -27 12t-10 25q0 15 9 28t27 13t28 -13.5t10 -27.5q0 -13 -10 -25t-27 -12z" />
    <glyph glyph-name="Zcaron" unicode="&#x17d;" horiz-adv-x="549" 
d="M-9 0l1 4l517 609v2l-222 1q-46 0 -82.5 -37t-79.5 -120l-7 -14h-5l48 180h428l-1 -3l-516 -610l-1 -2l224 -1q66 0 113 44.5t91 134.5l7 15h7l-73 -203h-449zM366 648l-82 177h4l89 -114h3l140 114h4l-155 -177h-3z" />
    <glyph glyph-name="zcaron" unicode="&#x17e;" horiz-adv-x="339" 
d="M201 -21q-29 6 -58.5 30t-54 44.5t-45.5 20.5h-7l-23 -85q-14 2 -25 12t-11 22q0 17 14.5 31.5t31.5 18.5l248 268q-25 -4 -50 9.5t-52 37t-32 27.5q-3 1 -16.5 -10t-24 -23t-6.5 -12q30 -3 30 -32q0 -14 -10 -24t-25 -10q-29 0 -29 33q0 28 39.5 60.5t77.5 41.5
q31 -6 51.5 -27t31.5 -40.5t18 -21.5l6 1l21 90q36 -11 36 -32q0 -17 -16.5 -37t-30.5 -23l-246 -267q44 10 96.5 -14t97.5 -65q2 -2 14 8t22.5 21.5t7.5 11.5q-14 1 -23.5 12.5t-9.5 24.5q0 14 10 23.5t26 9.5q13 0 21.5 -11t8.5 -26q0 -30 -38 -60.5t-76 -37.5zM222 481
l-82 177h4l89 -114h3l140 114h4l-155 -177h-3z" />
    <glyph glyph-name="florin" unicode="&#x192;" horiz-adv-x="465" 
d="M90 -71q-36 0 -54.5 14t-18.5 36q0 18 11 29t26 11q24 0 30.5 -21t-19.5 -48q24 -11 34 -11q32 0 50 17t40 84t50 206l24 126l-100 1l9 26l100 1q34 143 89 198q41 42 102 42q32 0 55.5 -16.5t23.5 -38.5q0 -18 -11 -29t-26 -11q-24 0 -30.5 21t19.5 48q-21 16 -42 16
q-47 0 -71 -45t-52 -185l124 -1l-9 -27h-121l-29 -128q-48 -209 -117 -278q-36 -37 -87 -37z" />
    <glyph glyph-name="Aringacute" unicode="&#x1fa;" horiz-adv-x="606" 
d="M384 275h-189l-90 -162q-15 -25 -21.5 -38t-11 -26.5t-2.5 -18.5t10.5 -10.5t21.5 -7.5t36 -4l20 -2l1 -6h-206l3 6l16 2q28 3 40.5 7t32 25.5t35 48t54.5 94.5l238 434q-28 8 -44.5 32t-16.5 54q0 37 24.5 63.5t64.5 26.5t64.5 -26.5t24.5 -63.5q0 -38 -25 -64t-66 -26
l70 -536q6 -42 16 -54.5t44 -14.5l27 -2l1 -6h-229l3 6l27 1q60 2 56 33zM400 622q36 0 57.5 23.5t21.5 57.5t-21.5 57.5t-57.5 23.5t-57.5 -23.5t-21.5 -57.5t21.5 -57.5t57.5 -23.5zM199 284h184l-33 268h-2q-148 -268 -149 -268zM322 787l158 187h64l-218 -187h-4z" />
    <glyph glyph-name="aringacute" unicode="&#x1fb;" horiz-adv-x="406" 
d="M275 498q-40 0 -64.5 26t-24.5 64q0 37 24.5 63.5t64.5 26.5t64.5 -26.5t24.5 -63.5q0 -38 -24.5 -64t-64.5 -26zM251 -13q-13 0 -21.5 20.5t-8.5 45.5q0 24 41 129h-2q-61 -105 -98.5 -149t-73.5 -44q-33 0 -56 24.5t-23 64.5q0 74 51.5 162.5t112.5 149.5q42 42 83 42
q58 0 57 -90h1l29 96l50 -4l-75 -217l-60 -191l45 -5l73 114l6 -3q-72 -145 -131 -145zM275 507q36 0 57.5 23.5t21.5 57.5t-21.5 57.5t-57.5 23.5t-57.5 -23.5t-21.5 -57.5t21.5 -57.5t57.5 -23.5zM115 30q59 0 161 205q24 48 24 84q0 29 -20 57t-52 28q-27 0 -54 -27
q-41 -41 -76 -126.5t-35 -150.5q0 -35 15.5 -52.5t36.5 -17.5zM192 686l158 187h64l-218 -187h-4z" />
    <glyph glyph-name="AEacute" unicode="&#x1fc;" horiz-adv-x="828" 
d="M410 275h-192l-105 -132q-66 -83 -73 -101q-9 -23 22 -30q11 -3 29 -4l37 -3l2 -5h-227l3 6l43 4q29 2 58 27.5t103 116.5l350 439q11 12 -18 18q-18 4 -49 6l-38 2l-1 6h453l16 -160h-4l-5 15q-26 78 -53 107t-75 29h-140l-59 -279l98 1q35 0 53 7t26 18t21 40q3 7 5 11
l6 12l4 -1h1l-40 -190l-5 1l1 12q4 54 -8 65.5t-74 12.5l-90 2l-67 -314l169 -4q66 1 111.5 39t92.5 111l9 14l6 -1l-83 -173h-471l1 2l2 4l1 3l50 4q50 4 52 16zM224 284h187l67 317h-3q-250 -317 -251 -317zM523 679l158 187h64l-218 -187h-4z" />
    <glyph glyph-name="aeacute" unicode="&#x1fd;" horiz-adv-x="567" 
d="M88 -11q-33 0 -56 24t-23 63q0 74 51.5 162t112.5 150q46 44 83 44q61 0 57 -120q35 57 82 91t93 34q38 0 64 -18t26 -45q0 -48 -61 -79t-189 -51q-16 -53 -16 -100q0 -54 21.5 -86t59.5 -32t68.5 24.5t64.5 82.5l7 -3q-80 -140 -162 -140q-53 0 -82.5 39t-29.5 97
q0 37 5 63q-64 -110 -102 -155t-74 -45zM334 254q111 18 151.5 45t40.5 78q0 22 -13 36.5t-36 14.5q-29 0 -68 -37q-47 -47 -77 -136zM115 30q59 0 161 205q24 48 24 84q0 29 -20 57t-52 28q-23 0 -54 -29q-41 -42 -76 -126.5t-35 -148.5q0 -35 15.5 -52.5t36.5 -17.5z
M312 491l158 187h64l-218 -187h-4z" />
    <glyph glyph-name="Oslashacute" unicode="&#x1fe;" horiz-adv-x="700" 
d="M585 574q102 -86 102 -231q0 -153 -105 -255t-241 -102q-103 0 -175 55l-89 -114h-13l94 120q-104 84 -104 235q0 139 100.5 248t245.5 109q102 0 177 -59l85 109h13q-58 -74 -90 -115zM175 69q24 31 64 81.5t124 157.5t140 178l56 71q-59 73 -161 73q-83 0 -147.5 -54.5
t-97.5 -139.5t-33 -182q0 -117 55 -185zM566 549l-96 -122l-192 -244l-96 -122q59 -67 160 -67q120 0 198.5 107.5t78.5 265.5q0 112 -53 182zM402 669l158 187h64l-218 -187h-4z" />
    <glyph glyph-name="oslashacute" unicode="&#x1ff;" horiz-adv-x="355" 
d="M314 372q21 -47 21 -107q0 -103 -65.5 -190t-142.5 -87q-52 0 -80 45l-126 -161h-13l134 170q-21 42 -21 105q0 101 65 195t136 94q55 0 87 -54l153 195h13zM65 72l222 282q-9 71 -53 71q-41 0 -82 -60t-67 -141q-21 -65 -21 -127q0 -17 1 -25zM288 339l-221 -281
q11 -60 48 -60q44 0 86.5 50t66.5 125q21 66 21 144q0 15 -1 22zM209 481l158 187h64l-218 -187h-4z" />
    <glyph glyph-name="Scommaaccent" unicode="&#x218;" horiz-adv-x="463" 
d="M210 -15q-50 0 -106.5 19.5t-91.5 46.5l17 135l3 -1l7 -41q12 -70 58 -110t116 -40q75 0 118 37.5t43 104.5q0 51 -27.5 85.5t-107.5 86.5q-63 41 -95 80t-32 91q0 74 49.5 118.5t132.5 44.5q73 0 122 -39l47 6l-21 -150l-4 1l-37 131q-38 43 -105 43q-66 0 -102 -35
t-36 -89q0 -45 27.5 -77t98.5 -79q68 -45 104 -85.5t36 -95.5q0 -82 -57.5 -135t-156.5 -53zM134 -263l-3 5q78 29 91 92q6 29 -11.5 43t-45.5 3q-7 21 9 39t44 15q27 -3 41.5 -24.5t7.5 -53.5q-8 -39 -46.5 -73.5t-86.5 -45.5z" />
    <glyph glyph-name="scommaaccent" unicode="&#x219;" horiz-adv-x="292" 
d="M117 -12q-51 0 -86 23t-35 61q0 18 10 30t23 12q14 0 23 -9.5t9 -23.5q0 -13 -10 -24t-24 -16q40 -46 90 -46q45 0 67.5 28.5t21.5 62.5q0 9 -2 18t-7.5 18.5t-9 15.5t-13 16.5t-12 13.5t-14 15t-12.5 13q-27 27 -39.5 41t-24.5 37t-12 46q-1 47 39 82t85 35q47 0 73 -21
t27 -57q1 -18 -9.5 -29t-24.5 -11t-22.5 9t-8.5 24q0 29 33 39q-28 38 -68 38q-39 0 -62 -25.5t-22 -61.5q1 -39 64 -100q54 -52 69 -80q16 -28 16 -54q1 -49 -41 -84.5t-91 -35.5zM11 -263l-3 5q78 29 91 92q6 29 -11.5 43t-45.5 3q-7 21 9 39t44 15q27 -3 41.5 -24.5
t7.5 -53.5q-8 -39 -46.5 -73.5t-86.5 -45.5z" />
    <glyph glyph-name="uni021A" unicode="&#x21a;" horiz-adv-x="607" 
d="M126 0l3 6l51 4q50 4 52 16l124 590h-102q-43 -5 -73.5 -35t-68.5 -92l-8 -13h-5l46 149h492l-15 -149h-4l-2 12q-12 76 -33 99.5t-73 28.5h-90l-126 -593q0 -3 1 -4.5t7 -3.5t17.5 -3.5t30.5 -2.5l38 -3l1 -6h-263zM159 -263l-3 5q78 29 91 92q6 29 -11.5 43t-45.5 3
q-7 21 9 39t44 15q27 -3 41.5 -24.5t7.5 -53.5q-8 -39 -46.5 -73.5t-86.5 -45.5z" />
    <glyph glyph-name="uni021B" unicode="&#x21b;" horiz-adv-x="238" 
d="M78 -12q-16 0 -40.5 15t-20.5 26l110 365l-71 1l9 26l71 1l42 136h49l-42 -136l87 -1l-8 -27h-88l-111 -367l53 -6l72 114l6 -3q-71 -144 -118 -144zM-22 -263l-3 5q78 29 91 92q6 29 -11.5 43t-45.5 3q-7 21 9 39t44 15q27 -3 41.5 -24.5t7.5 -53.5q-8 -39 -46.5 -73.5
t-86.5 -45.5z" />
    <glyph glyph-name="dotlessj" unicode="&#x237;" horiz-adv-x="205" 
d="M-118 -249q-21 0 -36 13t-15 32q0 13 9.5 23.5t25.5 10.5q23 0 31 -20.5t-17 -48.5l46 17q53 53 98 197l131 425l-47 4l-72 -113l-6 3q72 144 131 144q13 0 21.5 -20.5t8.5 -45.5q0 -21 -40.5 -143t-76.5 -213q-72 -180 -112 -220q-17 -18 -40 -31.5t-40 -13.5z" />
    <glyph glyph-name="circumflex" unicode="&#x2c6;" horiz-adv-x="370" 
d="M122 481l155 177h3l82 -177h-4l-89 114h-3l-140 -114h-4z" />
    <glyph glyph-name="caron" unicode="&#x2c7;" horiz-adv-x="370" 
d="M240 481l-82 177h4l89 -114h3l140 114h4l-155 -177h-3z" />
    <glyph glyph-name="breve" unicode="&#x2d8;" horiz-adv-x="370" 
d="M244 485q-26 0 -43 12t-24.5 37t-9.5 43t-4 50h4q12 -51 30 -77.5t54 -26.5q64 0 133 104h4q-39 -78 -62 -104q-35 -38 -82 -38z" />
    <glyph glyph-name="dotaccent" unicode="&#x2d9;" horiz-adv-x="370" 
d="M259 525q-17 0 -27 12t-10 25q0 15 9 28t27 13t28 -13.5t10 -27.5q0 -13 -10 -25t-27 -12z" />
    <glyph glyph-name="ring" unicode="&#x2da;" horiz-adv-x="370" 
d="M266 498q-40 0 -64.5 26t-24.5 64q0 37 24.5 63.5t64.5 26.5t64.5 -26.5t24.5 -63.5q0 -38 -24.5 -64t-64.5 -26zM266 507q36 0 57.5 23.5t21.5 57.5t-21.5 57.5t-57.5 23.5t-57.5 -23.5t-21.5 -57.5t21.5 -57.5t57.5 -23.5z" />
    <glyph glyph-name="ogonek" unicode="&#x2db;" horiz-adv-x="370" 
d="M97 -213q-29 0 -48.5 20.5t-19.5 51.5q0 49 55 89.5t125 67.5h7q-71 -32 -107 -66t-36 -78q0 -26 14 -42.5t36 -16.5q33 0 62 35l3 -2q-46 -59 -91 -59z" />
    <glyph glyph-name="tilde" unicode="&#x2dc;" horiz-adv-x="370" 
d="M319 498q-22 0 -72.5 29t-70.5 29q-41 0 -55 -50h-5q14 46 32 68t45 22q22 0 72.5 -29t70.5 -29q41 0 55 50h5q-15 -47 -32.5 -68.5t-44.5 -21.5z" />
    <glyph glyph-name="hungarumlaut" unicode="&#x2dd;" horiz-adv-x="370" 
d="M269 491l155 187h58l-209 -187h-4zM137 491l155 187h58l-209 -187h-4z" />
    <glyph glyph-name="Wgrave" unicode="&#x1e80;" horiz-adv-x="949" 
d="M265 -11l-93 559q-7 43 -16.5 55t-42.5 14l-27 2v6h234l-5 -6l-31 -1q-61 -2 -56 -33l81 -505h2l215 382l-15 86q-7 42 -17 54.5t-43 14.5l-27 2l-1 6h235l-4 -6l-31 -1q-61 -2 -56 -33l78 -503h2l228 433q38 66 32.5 81t-69.5 21l-20 2l-1 6h205l-4 -6l-15 -2
q-47 -6 -66 -28t-90 -149l-236 -451h-7l-75 455h-2l-255 -455h-7zM596 679l-140 187h57l87 -187h-4z" />
    <glyph glyph-name="wgrave" unicode="&#x1e81;" horiz-adv-x="546" 
d="M88 -12q-25 0 -42.5 24.5t-17.5 59.5q0 36 27.5 88.5t70.5 118t59 98.5l-90 30l-70 -117l-5 3q70 149 117 149q18 0 51.5 -6.5t33.5 -9.5q0 -10 -35 -68t-70.5 -128.5t-35.5 -111.5q0 -76 49 -76q22 0 53 32.5t64 85.5t57 98t48 93l-8 5q-9 6 -18.5 17.5t-9.5 25.5
q0 17 10.5 27.5t28.5 10.5q14 0 24.5 -11.5t10.5 -26.5q0 -20 -31 -67t-45 -86q-26 -71 -26 -125q0 -79 65 -79q37 0 76 53.5t63 129.5t24 140q-22 -5 -36.5 7t-14.5 28q0 15 11.5 27t25.5 12q17 0 29 -13.5t12 -32.5q0 -56 -43 -179.5t-98 -179.5q-23 -24 -40 -35t-39 -11
q-24 0 -44.5 23.5t-20.5 53.5q0 16 2 31t7.5 35.5t8 28.5t12.5 36t11 32q-28 -48 -43.5 -74t-40.5 -63t-43 -55.5t-40.5 -33t-43.5 -14.5zM380 491l-140 187h57l87 -187h-4z" />
    <glyph glyph-name="Wacute" unicode="&#x1e82;" horiz-adv-x="949" 
d="M265 -11l-93 559q-7 43 -16.5 55t-42.5 14l-27 2v6h234l-5 -6l-31 -1q-61 -2 -56 -33l81 -505h2l215 382l-15 86q-7 42 -17 54.5t-43 14.5l-27 2l-1 6h235l-4 -6l-31 -1q-61 -2 -56 -33l78 -503h2l228 433q38 66 32.5 81t-69.5 21l-20 2l-1 6h205l-4 -6l-15 -2
q-47 -6 -66 -28t-90 -149l-236 -451h-7l-75 455h-2l-255 -455h-7zM493 679l158 187h64l-218 -187h-4z" />
    <glyph glyph-name="wacute" unicode="&#x1e83;" horiz-adv-x="546" 
d="M88 -12q-25 0 -42.5 24.5t-17.5 59.5q0 36 27.5 88.5t70.5 118t59 98.5l-90 30l-70 -117l-5 3q70 149 117 149q18 0 51.5 -6.5t33.5 -9.5q0 -10 -35 -68t-70.5 -128.5t-35.5 -111.5q0 -76 49 -76q22 0 53 32.5t64 85.5t57 98t48 93l-8 5q-9 6 -18.5 17.5t-9.5 25.5
q0 17 10.5 27.5t28.5 10.5q14 0 24.5 -11.5t10.5 -26.5q0 -20 -31 -67t-45 -86q-26 -71 -26 -125q0 -79 65 -79q37 0 76 53.5t63 129.5t24 140q-22 -5 -36.5 7t-14.5 28q0 15 11.5 27t25.5 12q17 0 29 -13.5t12 -32.5q0 -56 -43 -179.5t-98 -179.5q-23 -24 -40 -35t-39 -11
q-24 0 -44.5 23.5t-20.5 53.5q0 16 2 31t7.5 35.5t8 28.5t12.5 36t11 32q-28 -48 -43.5 -74t-40.5 -63t-43 -55.5t-40.5 -33t-43.5 -14.5zM332 491l158 187h64l-218 -187h-4z" />
    <glyph glyph-name="Wdieresis" unicode="&#x1e84;" horiz-adv-x="949" 
d="M265 -11l-93 559q-7 43 -16.5 55t-42.5 14l-27 2v6h234l-5 -6l-31 -1q-61 -2 -56 -33l81 -505h2l215 382l-15 86q-7 42 -17 54.5t-43 14.5l-27 2l-1 6h235l-4 -6l-31 -1q-61 -2 -56 -33l78 -503h2l228 433q38 66 32.5 81t-69.5 21l-20 2l-1 6h205l-4 -6l-15 -2
q-47 -6 -66 -28t-90 -149l-236 -451h-7l-75 455h-2l-255 -455h-7zM642 697q-17 0 -27 12t-10 25q0 14 9.5 27.5t27.5 13.5t27.5 -13.5t9.5 -27.5q0 -13 -10 -25t-27 -12zM502 697q-17 0 -27 12t-10 25q0 14 9.5 27.5t27.5 13.5t27.5 -13.5t9.5 -27.5q0 -13 -10 -25t-27 -12z
" />
    <glyph glyph-name="wdieresis" unicode="&#x1e85;" horiz-adv-x="546" 
d="M88 -12q-25 0 -42.5 24.5t-17.5 59.5q0 36 27.5 88.5t70.5 118t59 98.5l-90 30l-70 -117l-5 3q70 149 117 149q18 0 51.5 -6.5t33.5 -9.5q0 -10 -35 -68t-70.5 -128.5t-35.5 -111.5q0 -76 49 -76q22 0 53 32.5t64 85.5t57 98t48 93l-8 5q-9 6 -18.5 17.5t-9.5 25.5
q0 17 10.5 27.5t28.5 10.5q14 0 24.5 -11.5t10.5 -26.5q0 -20 -31 -67t-45 -86q-26 -71 -26 -125q0 -79 65 -79q37 0 76 53.5t63 129.5t24 140q-22 -5 -36.5 7t-14.5 28q0 15 11.5 27t25.5 12q17 0 29 -13.5t12 -32.5q0 -56 -43 -179.5t-98 -179.5q-23 -24 -40 -35t-39 -11
q-24 0 -44.5 23.5t-20.5 53.5q0 16 2 31t7.5 35.5t8 28.5t12.5 36t11 32q-28 -48 -43.5 -74t-40.5 -63t-43 -55.5t-40.5 -33t-43.5 -14.5zM434 509q-17 0 -27 12t-10 25q0 14 9.5 27.5t27.5 13.5t27.5 -13.5t9.5 -27.5q0 -13 -10 -25t-27 -12zM294 509q-17 0 -27 12t-10 25
q0 14 9.5 27.5t27.5 13.5t27.5 -13.5t9.5 -27.5q0 -13 -10 -25t-27 -12z" />
    <glyph glyph-name="thinspace" unicode="&#x2009;" horiz-adv-x="60" 
 />
    <glyph glyph-name="endash" unicode="&#x2013;" horiz-adv-x="425" 
d="M9 234l7 20h412l-7 -20h-412z" />
    <glyph glyph-name="emdash" unicode="&#x2014;" horiz-adv-x="896" 
d="M9 234l7 20h883l-7 -20h-883z" />
    <glyph glyph-name="quoteleft" unicode="&#x2018;" horiz-adv-x="152" 
d="M140 444q-24 0 -40 16.5t-16 42.5q0 42 41 80.5t92 55.5l2 -4q-97 -46 -97 -106q0 -21 17 -31.5t47 -6.5q5 -14 -9 -30.5t-37 -16.5z" />
    <glyph glyph-name="quoteright" unicode="&#x2019;" horiz-adv-x="151" 
d="M73 444l-2 4q97 44 97 105q0 21 -17 31.5t-47 6.5q-5 14 9 31t37 17q24 0 40 -16.5t16 -43.5q0 -42 -41 -80.5t-92 -54.5z" />
    <glyph glyph-name="quotesinglbase" unicode="&#x201a;" horiz-adv-x="151" 
d="M-42 -93l-2 4q97 44 97 105q0 21 -17 31.5t-47 6.5q-5 14 9 31t37 17q24 0 40 -16.5t16 -43.5q0 -42 -41 -80.5t-92 -54.5z" />
    <glyph glyph-name="quotedblleft" unicode="&#x201c;" horiz-adv-x="287" 
d="M275 444q-24 0 -40 16.5t-16 42.5q0 42 41 80.5t92 55.5l2 -4q-97 -46 -97 -106q0 -21 17 -31.5t47 -6.5q5 -14 -9 -30.5t-37 -16.5zM140 444q-24 0 -40 16.5t-16 42.5q0 42 41 80.5t92 55.5l2 -4q-97 -46 -97 -106q0 -21 17 -31.5t47 -6.5q5 -14 -9 -30.5t-37 -16.5z
" />
    <glyph glyph-name="quotedblright" unicode="&#x201d;" horiz-adv-x="286" 
d="M208 444l-2 4q97 44 97 105q0 21 -17 31.5t-47 6.5q-5 14 9 31t37 17q24 0 40 -16.5t16 -43.5q0 -42 -41 -80.5t-92 -54.5zM73 444l-2 4q97 44 97 105q0 21 -17 31.5t-47 6.5q-5 14 9 31t37 17q24 0 40 -16.5t16 -43.5q0 -42 -41 -80.5t-92 -54.5z" />
    <glyph glyph-name="quotedblbase" unicode="&#x201e;" horiz-adv-x="286" 
d="M93 -93l-2 4q97 44 97 105q0 21 -17 31.5t-47 6.5q-5 14 9 31t37 17q24 0 40 -16.5t16 -43.5q0 -42 -41 -80.5t-92 -54.5zM-42 -93l-2 4q97 44 97 105q0 21 -17 31.5t-47 6.5q-5 14 9 31t37 17q24 0 40 -16.5t16 -43.5q0 -42 -41 -80.5t-92 -54.5z" />
    <glyph glyph-name="dagger" unicode="&#x2020;" 
d="M132 -156l121 570h-202l1 10h203l43 201h11l-43 -201h203l-3 -10h-202l-121 -570h-11z" />
    <glyph glyph-name="daggerdbl" unicode="&#x2021;" 
d="M132 -156l41 192h-203l3 10h202l80 376h-202l1 10h203l41 193h11l-41 -193h203l-3 -10h-202l-80 -376h202l-1 -10h-203l-41 -192h-11z" />
    <glyph glyph-name="bullet" unicode="&#x2022;" horiz-adv-x="425" 
d="M215 39q-21 0 -71 21t-63 36q-15 16 -36 65.5t-21 70.5q0 22 21 71.5t36 64.5t64.5 35.5t70.5 20.5q22 0 71 -20.5t64 -35.5t35.5 -64.5t20.5 -71.5t-20 -71t-36 -65q-15 -16 -64.5 -36.5t-71.5 -20.5z" />
    <glyph glyph-name="ellipsis" unicode="&#x2026;" horiz-adv-x="504" 
d="M381 -14q-19 0 -32 13.5t-13 31.5q0 17 13.5 30t32.5 13q18 0 30 -13t12 -30q0 -18 -12.5 -31.5t-30.5 -13.5zM213 -14q-19 0 -32 13.5t-13 31.5q0 17 13.5 30t32.5 13q18 0 30 -13t12 -30q0 -18 -12.5 -31.5t-30.5 -13.5zM45 -14q-19 0 -32 13.5t-13 31.5q0 17 13.5 30
t32.5 13q18 0 30 -13t12 -30q0 -18 -12.5 -31.5t-30.5 -13.5z" />
    <glyph glyph-name="perthousand" unicode="&#x2030;" horiz-adv-x="837" 
d="M194 386q-56 0 -90 36.5t-34 89.5t34 90.5t90 37.5q57 0 91 -37.5t34 -90.5t-34 -89.5t-91 -36.5zM-4 -14l584 654h13l-584 -654h-13zM684 -13q-56 0 -90 36.5t-34 88.5q0 54 34 91.5t90 37.5q57 0 91 -37.5t34 -91.5q0 -52 -34 -88.5t-91 -36.5zM397 -13q-56 0 -90 36.5
t-34 88.5q0 54 34 91.5t90 37.5q57 0 91 -37.5t34 -91.5q0 -52 -34 -88.5t-91 -36.5zM194 396q51 0 82 33t31 83q0 49 -31.5 83.5t-81.5 34.5t-81 -34t-31 -84t30.5 -83t81.5 -33zM684 -3q51 0 82 33t31 83q0 49 -31.5 83.5t-81.5 34.5t-81 -34t-31 -84t30.5 -83t81.5 -33z
M397 -3q51 0 82 33t31 83q0 49 -31.5 83.5t-81.5 34.5t-81 -34t-31 -84t30.5 -83t81.5 -33z" />
    <glyph glyph-name="guilsinglleft" unicode="&#x2039;" horiz-adv-x="214" 
d="M161 52l-151 170l1 4l222 166l3 -2l-165 -172l94 -164z" />
    <glyph glyph-name="guilsinglright" unicode="&#x203a;" horiz-adv-x="214" 
d="M-17 51l-2 2l164 172l-95 163l4 3l151 -171l-1 -3z" />
    <glyph glyph-name="fraction" unicode="&#x2044;" horiz-adv-x="459" 
d="M-59 -13l605 654h15l-606 -654h-14z" />
    <glyph glyph-name="zerosuperior" unicode="&#x2070;" horiz-adv-x="315" 
d="M151 246q-56 0 -83 43.5t-27 103.5q0 81 47 162t122 81q55 0 82 -46t27 -105q0 -50 -17.5 -103t-57.5 -94.5t-93 -41.5zM147 252q33 0 59 33.5t40 81.5t21 91.5t7 73.5q0 98 -63 98q-32 0 -58 -34.5t-40 -83.5t-21.5 -93.5t-7.5 -74.5q0 -92 63 -92z" />
    <glyph glyph-name="foursuperior" unicode="&#x2074;" horiz-adv-x="279" 
d="M141 253l22 106h-156v2l244 279h15l-52 -247h66l-14 -34h-60l-23 -106h-42zM44 393h126l40 188h-1z" />
    <glyph glyph-name="fivesuperior" unicode="&#x2075;" horiz-adv-x="237" 
d="M56 234q-33 2 -49 14t-14 31q2 11 11 19t21 8q18 -1 25 -19.5t-2 -37.5q26 -7 30 -7q37 -2 69 29.5t37 75.5q6 47 -28 79t-100 44l68 162h150l-18 -43h-143l-34 -84q74 -14 112.5 -52t32.5 -89q-6 -53 -55.5 -93t-112.5 -37z" />
    <glyph glyph-name="sixsuperior" unicode="&#x2076;" horiz-adv-x="281" 
d="M142 246q-52 0 -82 36.5t-30 90.5q0 99 87.5 178.5t222.5 80.5l-1 -5q-86 -5 -149.5 -53.5t-94.5 -118.5h1q45 34 94 34q42 0 64.5 -26t22.5 -68q0 -60 -40.5 -104.5t-94.5 -44.5zM141 252q37 0 63.5 39.5t26.5 93.5q0 38 -17.5 62t-53.5 24q-34 0 -69 -26
q-19 -47 -19 -90q0 -47 17 -75t52 -28z" />
    <glyph glyph-name="sevensuperior" unicode="&#x2077;" horiz-adv-x="245" 
d="M37 253l236 336l-1 2h-117q-40 0 -57.5 -10t-34.5 -39l-3 -6h-3l31 95h216v-2l-234 -376h-33z" />
    <glyph glyph-name="eightsuperior" unicode="&#x2078;" horiz-adv-x="279" 
d="M138 243q-51 0 -85 28t-34 69q0 39 33 68t84 37v1q-60 42 -60 92q0 40 34 71.5t80 31.5q44 0 74 -26t30 -64q0 -34 -27.5 -58.5t-72.5 -34.5v-2q69 -52 69 -105q0 -44 -36.5 -76t-88.5 -32zM189 460q29 13 47.5 38.5t18.5 59.5q0 33 -17.5 55t-48.5 22t-52.5 -23.5
t-21.5 -54.5q0 -19 11.5 -37.5t24.5 -30t38 -29.5zM141 249q36 0 59.5 24t23.5 57q0 32 -21.5 56.5t-61.5 54.5q-37 -11 -60 -40t-23 -70q0 -36 21.5 -59t61.5 -23z" />
    <glyph glyph-name="ninesuperior" unicode="&#x2079;" horiz-adv-x="288" 
d="M-10 255l1 5q87 5 150.5 53.5t93.5 117.5h-1q-45 -34 -93 -34q-42 0 -65 26t-23 68q0 60 41 104.5t95 44.5q52 0 82 -36.5t30 -90.5q0 -63 -37 -121t-109.5 -97t-164.5 -40zM170 415q35 0 70 26q18 47 18 91q0 102 -68 102q-37 0 -63.5 -39t-26.5 -93q0 -39 17 -63
t53 -24z" />
    <glyph glyph-name="plussuperior" unicode="&#x207a;" horiz-adv-x="315" 
d="M184 288v151h-147l2 9l145 1v146h10v-146l145 -1l2 -9h-147v-151h-10z" />
    <glyph glyph-name="minussuperior" unicode="&#x207b;" horiz-adv-x="315" 
d="M315 437h-261l1 8h259z" />
    <glyph glyph-name="zeroinferior" unicode="&#x2080;" horiz-adv-x="315" 
d="M131 -130q-56 0 -83 43.5t-27 103.5q0 81 47 162t122 81q55 0 82 -46t27 -105q0 -50 -17.5 -103t-57.5 -94.5t-93 -41.5zM127 -124q33 0 59 33.5t40 81.5t21 91.5t7 73.5q0 98 -63 98q-32 0 -58 -34.5t-40 -83.5t-21.5 -93.5t-7.5 -74.5q0 -92 63 -92z" />
    <glyph glyph-name="oneinferior" unicode="&#x2081;" horiz-adv-x="214" 
d="M0 -123l3 4l20 1q30 1 31 10l71 340l-60 9l2 3l111 14l-79 -368q-1 -2 1 -4t10 -3.5t22 -1.5h17l1 -4h-150z" />
    <glyph glyph-name="twoinferior" unicode="&#x2082;" horiz-adv-x="257" 
d="M-34 -123l-1 4q46 38 66 55t52 45.5t45.5 44.5t30 38.5t23.5 42.5t9 42q4 39 -15 62t-51 23q-41 0 -80 -52l-4 3q51 79 116 79q38 0 62 -27t20 -66q-1 -19 -7 -36t-19.5 -36t-24 -32t-35 -35.5t-38.5 -34t-48.5 -39.5t-50.5 -42v-1h153q8 0 24.5 18t34.5 51l3 6l3 -1
l-48 -112h-220z" />
    <glyph glyph-name="threeinferior" unicode="&#x2083;" horiz-adv-x="238" 
d="M65 -146q-87 0 -87 44q0 11 9 19.5t21 8.5q18 0 26 -16.5t-7 -37.5q22 -12 43 -12q44 0 73 32.5t29 80.5q0 38 -23.5 60.5t-65.5 22.5q-18 0 -38 -5l-1 4q80 34 111 59.5t31 62.5q0 26 -16.5 43t-44.5 17q-22 0 -43 -15t-35 -39l-4 3q44 78 112 78q33 0 55 -20.5
t22 -49.5q0 -67 -114 -109v-2h3q41 -2 67.5 -29.5t26.5 -65.5q0 -52 -45.5 -93t-104.5 -41z" />
    <glyph glyph-name="fourinferior" unicode="&#x2084;" horiz-adv-x="279" 
d="M121 -123l22 106h-156v2l244 279h15l-52 -247h66l-14 -34h-60l-23 -106h-42zM24 17h126l40 188h-1z" />
    <glyph glyph-name="fiveinferior" unicode="&#x2085;" horiz-adv-x="237" 
d="M36 -142q-33 2 -49 14t-14 31q2 11 11 19t21 8q18 -1 25 -19.5t-2 -37.5q26 -7 30 -7q37 -2 69 29.5t37 75.5q6 47 -28 79t-100 44l68 162h150l-18 -43h-143l-34 -84q74 -14 112.5 -52t32.5 -89q-6 -53 -55.5 -93t-112.5 -37z" />
    <glyph glyph-name="sixinferior" unicode="&#x2086;" horiz-adv-x="281" 
d="M122 -130q-52 0 -82 36.5t-30 90.5q0 99 87.5 178.5t222.5 80.5l-1 -5q-86 -5 -149.5 -53.5t-94.5 -118.5h1q45 34 94 34q42 0 64.5 -26t22.5 -68q0 -60 -40.5 -104.5t-94.5 -44.5zM121 -124q37 0 63.5 39.5t26.5 93.5q0 38 -17.5 62t-53.5 24q-34 0 -69 -26
q-19 -48 -19 -90q0 -47 17 -75t52 -28z" />
    <glyph glyph-name="seveninferior" unicode="&#x2087;" horiz-adv-x="245" 
d="M17 -123l236 336l-1 2h-117q-40 0 -57.5 -10t-34.5 -39l-3 -6h-3l31 95h216v-2l-234 -376h-33z" />
    <glyph glyph-name="eightinferior" unicode="&#x2088;" horiz-adv-x="279" 
d="M118 -133q-51 0 -85 28t-34 69q0 39 33 68t84 37v1q-60 42 -60 92q0 40 34 71.5t80 31.5q44 0 74 -26t30 -64q0 -34 -27.5 -58.5t-72.5 -34.5v-2q69 -52 69 -105q0 -44 -36.5 -76t-88.5 -32zM169 84q29 13 47.5 38.5t18.5 59.5q0 33 -17.5 55t-48.5 22t-52.5 -23.5
t-21.5 -54.5q0 -19 11.5 -37.5t24.5 -30t38 -29.5zM121 -127q36 0 59.5 24t23.5 57q0 32 -21.5 56.5t-61.5 54.5q-37 -11 -60 -40t-23 -70q0 -36 21.5 -59t61.5 -23z" />
    <glyph glyph-name="nineinferior" unicode="&#x2089;" horiz-adv-x="288" 
d="M-30 -121l1 5q87 5 150.5 53.5t93.5 117.5h-1q-45 -34 -93 -34q-42 0 -65 26t-23 68q0 60 41 104.5t95 44.5q52 0 82 -36.5t30 -90.5q0 -63 -37 -121t-109.5 -97t-164.5 -40zM150 39q35 0 70 26q18 46 18 91q0 102 -68 102q-37 0 -63.5 -39t-26.5 -93q0 -39 17 -63
t53 -24z" />
    <glyph glyph-name="Euro" unicode="&#x20ac;" horiz-adv-x="463" 
d="M246 -13q-83 0 -131 67t-48 169h-65l4 10h61q1 35 12 87l6 32h-55l3 10h56q38 123 118.5 200t168.5 77q65 0 101.5 -29.5t36.5 -63.5q0 -16 -11 -28t-27 -12q-19 0 -27 13t-3 30t20 30q-19 52 -87 52q-66 0 -133.5 -76t-98.5 -193h199l3 -10h-205l-3 -16
q-10 -51 -12 -103h190l2 -10h-192q1 -90 38 -147.5t110 -57.5q80 0 147 87l5 -3q-44 -56 -86 -85.5t-97 -29.5z" />
    <glyph glyph-name="trademark" unicode="&#x2122;" horiz-adv-x="402" 
d="M302 468l1 3h5q12 0 15.5 2.5t3.5 12.5l3 127q-4 6 -17 8l-7 1l-1 3h51l45 -120h1l46 120h52l-1 -3l-12 -1q-10 -1 -10 -4l3 -142q0 -1 14 -3l6 -1l1 -3h-72v3l12 1q10 1 10 4l-2 137h-1l-57 -145h-2l-55 139q0 1 -1 2l-2 -124q0 -9 4.5 -11.5t18.5 -2.5h5l1 -3h-58z
M174 468l1 3l11 1q12 1 12 4v146h-14q-24 0 -43 -36l-2 -2h-2l8 41h135l5 -42h-1l-2 4q-13 35 -42 35h-14v-147q0 -1 14 -3l8 -1v-3h-74z" />
    <glyph glyph-name="minus" unicode="&#x2212;" 
d="M396 231h-359l2 12h355z" />
    <glyph glyph-name="uni2215" unicode="&#x2215;" horiz-adv-x="459" 
d="M-59 -13l605 654h15l-606 -654h-14z" />
    <glyph glyph-name="approxequal" unicode="&#x2248;" 
d="M118 345q-72 0 -89 -77h-12q16 89 101 89q32 0 99.5 -33.5t97.5 -33.5q72 0 89 77h12q-16 -89 -101 -89q-32 0 -99.5 33.5t-97.5 33.5zM118 181q-72 0 -89 -77h-12q16 89 101 89q32 0 99.5 -33.5t97.5 -33.5q72 0 89 77h12q-16 -89 -101 -89q-32 0 -99.5 33.5t-97.5 33.5
z" />
    <glyph glyph-name="notequal" unicode="&#x2260;" horiz-adv-x="428" 
d="M18 316l-3 12h220l44 155h13l-44 -155h165l-3 -12h-166l-45 -161h211l3 -12h-218l-46 -165h-13l46 165h-167l3 12h168l45 161h-213z" />
    <glyph glyph-name="lessequal" unicode="&#x2264;" horiz-adv-x="420" 
d="M405 103l-394 167v11l394 166l5 -11l-381 -159v-2l381 -161zM410 37h-399l2 12h395z" />
    <glyph glyph-name="greaterequal" unicode="&#x2265;" horiz-adv-x="420" 
d="M410 270l-394 -167l-5 11l381 161v2l-381 159l5 11l394 -166v-11zM410 37h-399l2 12h395z" />
    <glyph glyph-name="pcircle" unicode="&#x24df;" horiz-adv-x="704" 
d="M364 -14q-136 0 -231.5 95.5t-95.5 231.5t95.5 232t231.5 96t231.5 -96t95.5 -232t-95.5 -231.5t-231.5 -95.5zM364 -5q131 0 224 93.5t93 224.5t-93 225t-224 94t-224 -94t-93 -225t93 -224.5t224 -93.5zM227 118l1 4l30 3q29 3 29 11v341q0 7 -35 10l-23 2l-2 4h163
q131 0 131 -90q0 -47 -38 -75.5t-99 -28.5q-1 0 -56 5v-170q0 -8 33 -10l31 -2l2 -4h-167zM384 306q96 0 96 93q0 44 -25 65.5t-81 21.5h-46v-172q44 -8 56 -8z" />
    <glyph glyph-name="commaaccent" unicode="&#xf6c3;" horiz-adv-x="370" 
d="M36 -263l-3 5q78 29 91 92q6 29 -11.5 43t-45.5 3q-7 21 9 39t44 15q27 -3 41.5 -24.5t7.5 -53.5q-8 -39 -46.5 -73.5t-86.5 -45.5z" />
    <glyph glyph-name="J.alt" horiz-adv-x="444" 
d="M120 -11q-59 0 -90 24.5t-31 53.5q0 24 14 39.5t35 15.5q16 0 26.5 -11t10.5 -25q0 -40 -54 -44q22 -44 89 -44q49 0 76 30.5t42 101.5l101 472q0 3 -1 4.5t-7 3.5t-17.5 3.5t-31.5 2.5l-37 3l-1 7h263q1 0 -3 -7l-51 -4q-50 -4 -52 -16l-105 -499q-8 -36 -60.5 -73.5
t-115.5 -37.5z" />
    <glyph glyph-name="Jcircumflex.alt" horiz-adv-x="444" 
d="M120 -11q-59 0 -90 24.5t-31 53.5q0 24 14 39.5t35 15.5q16 0 26.5 -11t10.5 -25q0 -40 -54 -44q22 -44 89 -44q49 0 76 30.5t42 101.5l101 472q0 3 -1 4.5t-7 3.5t-17.5 3.5t-31.5 2.5l-37 3l-1 7h263q1 0 -3 -7l-51 -4q-50 -4 -52 -16l-105 -499q-8 -36 -60.5 -73.5
t-115.5 -37.5zM262 669l155 177h3l82 -177h-4l-89 114h-3l-140 -114h-4z" />
    <glyph glyph-name="zero.alt" horiz-adv-x="544" 
d="M250 -11q-97 0 -157 60.5t-60 150.5q0 112 79 198t190 86q98 0 157 -62.5t59 -152.5q0 -111 -78 -195.5t-190 -84.5zM250 -3q107 0 182.5 82.5t75.5 189.5q0 87 -56 147t-150 60q-107 0 -183 -84t-76 -192q0 -86 57.5 -144.5t149.5 -58.5z" />
    <glyph glyph-name="one.alt" horiz-adv-x="300" 
d="M-4 0l3 6l35 1q49 1 51 16l88 424q1 5 -1 7t-13 4t-34 3l-29 1l-1 6h216l-4 -6l-33 -1q-47 -1 -51 -16l-89 -424q-1 -5 1 -7t13.5 -4t34.5 -3l28 -1l1 -6h-216z" />
    <glyph glyph-name="dot" horiz-adv-x="168" 
d="M82 162q-19 0 -32 13.5t-13 31.5q0 17 13.5 30t32.5 13q18 0 30 -13t12 -30q0 -18 -12.5 -31.5t-30.5 -13.5z" />
    <glyph glyph-name="ampersand.smallcap" horiz-adv-x="526" 
d="M446 269q33 -8 51.5 -33t18.5 -63q0 -72 -80 -127.5t-180 -55.5q-105 0 -172.5 50.5t-67.5 129.5q0 54 35 97.5t90 60.5q-4 15 -4 32q0 48 31 82t76 34q43 0 71.5 -36.5t21.5 -86.5l-7 2q2 32 -18 60t-54 28t-54 -23.5t-20 -63.5q0 -13 1 -19h13q39 0 65.5 -18t26.5 -45
q0 -18 -13.5 -29t-35.5 -11q-32 0 -59 25t-39 61q-39 -13 -61.5 -43.5t-22.5 -70.5q0 -84 64 -131t181 -47q87 0 145 42t58 103q0 38 -23 64t-57 26q-27 0 -52.5 -20t-25.5 -40q0 -44 58 -46q-10 3 -13 14t4 21t20 10q10 0 17 -7t7 -17q0 -12 -9.5 -20.5t-23.5 -8.5
q-34 0 -55.5 20t-21.5 53t32.5 55.5t71.5 32.5t71.5 30t32.5 49q0 27 -17.5 43t-47.5 18q10 -3 13.5 -15t-2.5 -23t-20 -11q-10 0 -18 7.5t-8 18.5q0 13 10.5 22.5t26.5 9.5q33 0 57 -29t24 -68q0 -33 -25.5 -54t-86.5 -39zM187 329q7 -32 27 -51.5t44 -19.5q9 0 15 6.5
t6 14.5q0 20 -24.5 35t-56.5 15h-11z" />
    <glyph glyph-name="at.smallcap" horiz-adv-x="576" 
d="M292 -77q-121 0 -196.5 71.5t-75.5 184.5q0 124 85.5 213t204.5 89q107 0 176.5 -65.5t69.5 -165.5q0 -81 -53.5 -142.5t-118.5 -61.5q-36 0 -55.5 17t-19.5 46q0 35 18 71h-1q-47 -69 -76 -99t-56 -30q-25 0 -42.5 18.5t-17.5 44.5q0 47 35.5 100t81.5 96q40 37 74 37
q18 0 28.5 -17.5t10.5 -47.5h1l28 85l45 -3l-53 -138l-22 -59q-20 -59 -10 -79.5t50 -20.5q54 0 99.5 54t45.5 129q0 97 -67.5 160.5t-170.5 63.5q-116 0 -199.5 -87t-83.5 -208q0 -110 74 -179.5t191 -69.5q79 0 145 40.5t96 101.5l7 -3q-31 -63 -99 -104.5t-149 -41.5z
M218 84q22 0 53.5 35.5t63.5 95.5q19 38 19 51q0 18 -18.5 36.5t-37.5 18.5q-18 0 -38 -18q-29 -27 -53 -78t-24 -92q0 -21 10.5 -35t24.5 -14z" />
    <glyph glyph-name="a.smallcap" horiz-adv-x="456" 
d="M281 204h-135l-58 -104q-34 -62 -34 -74q1 -15 41 -18q5 -1 10 -1l19 -1v-6h-161l3 6l12 1q36 3 54.5 24t75.5 123l149 265l-3 24q25 8 44 32h7l46 -400q4 -41 13 -53.5t34 -14.5l22 -1l1 -6h-190l4 6l22 1q44 2 40 45zM151 213h129l-20 192h-2z" />
    <glyph glyph-name="b.smallcap" horiz-adv-x="418" 
d="M-16 0l3 6l28 3q36 4 38 11l92 430q0 2 -0.5 3t-5.5 2.5t-12.5 2t-23.5 2.5l-18 2l-1 6h174q71 0 109.5 -29.5t38.5 -71.5q0 -45 -39 -76t-121 -33v-2q69 -11 103 -42t34 -75q0 -66 -56 -102.5t-160 -36.5h-183zM166 8l27 1q62 2 94.5 42.5t32.5 93.5q0 50 -36.5 80.5
t-109.5 30.5h-13l-51 -238zM222 262q60 0 90 33.5t30 83.5q0 79 -100 79h-38l-41 -191q33 -5 59 -5z" />
    <glyph glyph-name="c.smallcap" horiz-adv-x="500" 
d="M273 -11q-107 0 -172 59.5t-65 150.5q0 115 80.5 197t199.5 82q91 0 144 -41l44 16l-23 -133h-4l-28 107q-15 16 -50.5 29.5t-74.5 13.5q-101 0 -163 -85.5t-62 -200.5q0 -85 46 -136.5t128 -51.5q51 0 89 24t76 71l23 29l4 -1l-46 -111l-27 -1q-56 -18 -119 -18z" />
    <glyph glyph-name="d.smallcap" horiz-adv-x="485" 
d="M-16 0l3 6l28 3q36 4 38 11l92 430q0 2 -0.5 3t-5.5 2.5t-12.5 2t-23.5 2.5l-18 2l-1 6l180 1q105 1 162.5 -55.5t57.5 -143.5q0 -118 -83 -194t-226 -76h-191zM179 8q116 0 179 79.5t63 196.5q0 80 -40 128t-124 48h-53l-94 -441z" />
    <glyph glyph-name="e.smallcap" horiz-adv-x="425" 
d="M-18 0l4 6l27 3q38 4 40 11l92 430q1 3 -5 5t-37 5l-20 2l-1 6h318l10 -131h-4l-4 11q-23 64 -44 88t-71 24h-83l-45 -211l57 2q48 1 65 12t33 47l5 10l6 -1l-31 -150l-6 1v10q0 40 -12 49t-66 11l-52 2l-49 -231l112 -2q25 -1 47 7t34.5 14.5t32.5 30t25 30.5t28 39
l7 10l6 -1l-60 -139h-359z" />
    <glyph glyph-name="f.smallcap" horiz-adv-x="404" 
d="M-18 0l4 6l30 3q35 4 37 11l92 430v2t-1.5 2t-4 1.5l-7.5 1.5t-11.5 1.5t-15.5 1.5l-22 2l-1 6h328l8 -135l-6 -1l-3 11q-18 66 -41 91.5t-84 25.5h-80l-46 -215l58 1q47 1 64.5 12t32.5 47l4 10l6 -1l-31 -149h-5v10q0 40 -12.5 50t-65.5 11l-53 1l-45 -219
q-1 -3 1.5 -4.5t12 -3t27.5 -2.5l36 -2l1 -6h-207z" />
    <glyph glyph-name="g.smallcap" horiz-adv-x="511" 
d="M264 -12q-102 0 -165 60.5t-63 151.5q0 114 79 197t201 83q88 0 145 -42l44 15l-26 -132l-4 1l-26 106q-17 17 -52 29.5t-74 12.5q-100 0 -162 -85.5t-62 -195.5q0 -85 47 -138.5t124 -53.5q50 0 85 19l36 170q0 2 -1.5 3t-10 2.5t-21.5 2.5q-7 1 -11 1l-29 3l-1 6h198
l-4 -6l-27 -3q-36 -4 -38 -12l-33 -158l45 8v-5q-113 -40 -194 -40z" />
    <glyph glyph-name="h.smallcap" horiz-adv-x="529" 
d="M-16 0l3 6l28 3q36 4 38 11l92 430q0 2 -0.5 3t-5.5 2.5t-12.5 2t-23.5 2.5l-18 2l-1 6h190l-4 -6l-30 -3q-37 -4 -39 -11l-42 -202h247l43 204v2t-1.5 2t-4.5 1.5t-7.5 1.5t-11 1.5t-16.5 1.5l-22 2v6h190l-4 -6l-28 -3q-36 -4 -38 -11l-91 -430q0 -2 0.5 -3t5.5 -2.5
t12.5 -2t22.5 -2.5l19 -2v-6h-190l4 6l31 3q36 4 38 11l46 215h-248l-46 -217v-2t1.5 -2t4.5 -1.5t7.5 -1.5t11 -1.5t16.5 -1.5l22 -2l1 -6h-190z" />
    <glyph glyph-name="i.smallcap" horiz-adv-x="239" 
d="M-12 0l4 6l30 3q37 4 39 11l91 430v2t-1.5 2t-4.5 1.5t-7.5 1.5t-11 1.5t-16.5 1.5l-22 2l-1 6h194l-4 -6l-31 -3q-36 -4 -38 -11l-91 -430q0 -2 0.5 -3t5.5 -2.5t12.5 -2t22.5 -2.5l21 -2l1 -6h-193z" />
    <glyph glyph-name="j.smallcap" horiz-adv-x="224" 
d="M-47 -126q-55 0 -55 40q0 17 11 28.5t27 11.5q28 0 35 -26t-21 -43q31 -8 59 24t42 98l94 443q0 2 -0.5 3t-5.5 2.5t-12.5 2t-23.5 2.5l-21 2l-1 6h193l-4 -6l-30 -3q-37 -4 -39 -11l-97 -458q-6 -27 -56.5 -71.5t-94.5 -44.5z" />
    <glyph glyph-name="j.smallcap.alt" horiz-adv-x="332" 
d="M91 -9q-48 0 -73 20t-25 44q0 19 11.5 31.5t29.5 12.5q14 0 23.5 -9.5t9.5 -22.5q0 -33 -40 -36q15 -32 65 -32q35 0 55.5 23.5t31.5 76.5l74 350q1 5 -6 6.5t-35 3.5l-29 2l-1 7h208l-3 -7l-38 -3q-37 -3 -39 -11l-79 -372q-6 -27 -49 -55.5t-91 -28.5z" />
    <glyph glyph-name="k.smallcap" horiz-adv-x="490" 
d="M-16 0l3 6l29 3q35 4 37 11l92 430q0 2 -0.5 3t-5.5 2.5t-12 2t-22 2.5l-20 2l-1 6h193l-4 -6l-33 -3q-37 -3 -39 -11l-53 -249l153 127q113 94 120 115q4 12 -16 16q-8 2 -25 3l-27 2v6h180l-4 -6l-10 -1q-16 -2 -23.5 -4t-16 -5t-22.5 -14t-29.5 -23.5t-51 -40.5
t-74.5 -58l-17 -13l95 -239q16 -39 24.5 -47t32.5 -10l21 -1v-6h-188l3 6l21 1q25 1 29.5 16.5t-6.5 40.5l-77 200l-94 -79l-36 -167v-2t1.5 -2t4.5 -1.5t7.5 -1.5t11 -1.5t16.5 -1.5l25 -2l1 -6h-193z" />
    <glyph glyph-name="l.smallcap" horiz-adv-x="404" 
d="M-16 0l3 6l29 3q35 4 37 12l92 429q0 2 -0.5 3t-5.5 2.5t-12 2t-22 2.5l-20 2l-1 6h205l-4 -6l-45 -3q-37 -3 -39 -11l-92 -437l95 -2q31 -1 54 7t43 29t31 37t32 51l6 10l6 -1l-51 -142h-341z" />
    <glyph glyph-name="m.smallcap" horiz-adv-x="605" 
d="M-19 0l3 6l18 1q56 3 60 24l100 418q-14 10 -47 12l-20 1l-1 6h129l62 -389h1l245 389h122l-4 -6l-28 -3q-36 -4 -38 -11l-91 -430q0 -2 0.5 -3t5.5 -2.5t12.5 -2t22.5 -2.5l19 -2l1 -6h-191l4 6l31 3q36 4 38 11l88 414h-1l-273 -434h-6l-69 416q0 2 -1 6l-5 18v-1
l-95 -410q-1 -5 5 -9t21 -7.5t39 -5.5l14 -1l1 -6h-172z" />
    <glyph glyph-name="n.smallcap" horiz-adv-x="505" 
d="M387 -4l-225 426h-1l-82 -392q-1 -6 3.5 -10.5t17 -8t34.5 -4.5l14 -1l1 -6h-157l4 6l14 1q55 3 59 24l86 400q-16 24 -64 30l-9 1l-1 6h123l198 -380h1l74 350q2 9 -11 15t-44 8l-14 1l-1 6h158l-4 -6l-15 -1q-55 -3 -59 -24l-95 -441h-5z" />
    <glyph glyph-name="o.smallcap" horiz-adv-x="533" 
d="M263 -11q-101 0 -162 64.5t-61 159.5q0 104 75 184.5t187 80.5q99 0 160 -65t61 -160q0 -111 -77 -187.5t-183 -76.5zM260 -3q86 0 144.5 85.5t58.5 199.5q0 82 -43 134.5t-116 52.5q-89 0 -146.5 -87t-57.5 -199q0 -82 42.5 -134t117.5 -52z" />
    <glyph glyph-name="p.smallcap" horiz-adv-x="411" 
d="M-27 0l4 6l38 3q36 3 38 11l92 430v2t-1.5 2t-4.5 1.5t-7.5 1.5t-11.5 1.5t-17 1.5l-29 2l-1 6h207q71 0 112 -31.5t41 -78.5q0 -56 -48 -94t-125 -38q-54 0 -103 14l-47 -222q-1 -3 1.5 -4.5t12 -3t27.5 -2.5l37 -2l1 -6h-216zM251 235q56 0 88.5 39t32.5 98
q0 86 -99 86h-69l-44 -206q38 -17 91 -17z" />
    <glyph glyph-name="q.smallcap" horiz-adv-x="533" 
d="M430 -135q-76 0 -134 29t-72 98q-85 13 -134.5 75t-49.5 146q0 104 75 184.5t187 80.5q99 0 160 -65t61 -160q0 -102 -66.5 -176t-162.5 -86q17 -68 62 -91.5t130 -23.5v-6q-22 -5 -56 -5zM260 -3q86 0 144.5 85.5t58.5 199.5q0 82 -43 134.5t-116 52.5q-89 0 -146.5 -87
t-57.5 -199q0 -82 42.5 -134t117.5 -52z" />
    <glyph glyph-name="r.smallcap" horiz-adv-x="458" 
d="M-27 0l4 6l38 3q12 1 24.5 4.5t13.5 6.5l92 430v2t-1.5 2t-4.5 1.5t-7.5 1.5t-11.5 1.5t-17 1.5l-29 2l-1 6h198q69 0 111.5 -31t42.5 -79q0 -50 -44 -84t-105 -38l73 -172q14 -33 27.5 -43.5t40.5 -13.5l10 -1l1 -6h-116l-96 238q-25 5 -54 20l-52 -240q-1 -3 13 -6
t28 -4l29 -2l1 -6h-208zM243 247q53 0 87.5 34.5t34.5 90.5q0 40 -27.5 63.5t-73.5 23.5h-60l-41 -193q41 -19 80 -19z" />
    <glyph glyph-name="s.smallcap" horiz-adv-x="356" 
d="M160 -11q-43 0 -85.5 14t-68.5 32l16 106l4 -1l8 -37q11 -50 44 -77.5t81 -27.5q53 0 85.5 29.5t32.5 78.5q0 36 -21 61t-75 58q-101 61 -101 129q0 54 39 89.5t103 35.5q56 0 104 -29l33 5l-20 -116l-4 1l-28 96q-33 35 -81 35q-45 0 -72 -26t-27 -65q0 -32 21.5 -56
t69.5 -53q53 -32 81 -64t28 -74q0 -59 -45.5 -101.5t-121.5 -42.5z" />
    <glyph glyph-name="t.smallcap" horiz-adv-x="469" 
d="M96 0l4 6l38 3q36 3 38 11l94 440h-62q-68 -6 -126 -104l-6 -10h-6l38 122h385l-14 -122h-4l-2 10q-12 58 -31 79.5t-61 24.5h-54l-94 -442v-2t1.5 -2t4.5 -1.5t7.5 -1.5t11 -1.5t16.5 -1.5l29 -2l1 -6h-208z" />
    <glyph glyph-name="u.smallcap" horiz-adv-x="493" 
d="M252 -12q-81 0 -129.5 31.5t-48.5 92.5q0 24 8 61l59 277v2t-1.5 2t-4.5 1.5t-7.5 1.5t-11 1.5t-16.5 1.5l-30 2v6h208l-4 -6l-38 -3q-36 -3 -38 -11l-58 -275q-7 -37 -7 -55q0 -107 138 -107q114 0 147 154l58 273q2 9 -13.5 15t-47.5 8l-14 1l-1 6h162l-4 -6l-15 -1
q-53 -3 -57 -24l-59 -275q-18 -87 -60.5 -130.5t-114.5 -43.5z" />
    <glyph glyph-name="v.smallcap" horiz-adv-x="469" 
d="M197 -10l-67 403q-5 28 -6.5 35.5t-7 18t-12.5 12t-21 2.5l-21 1l-1 6h189l-4 -6l-24 -1q-24 -1 -33.5 -8.5t-5.5 -30.5l55 -348h2l167 295q35 58 34 73.5t-50 18.5l-19 1l-1 6h161l-3 -6l-12 -1q-36 -3 -54.5 -24t-75.5 -123l-184 -324h-6z" />
    <glyph glyph-name="w.smallcap" horiz-adv-x="723" 
d="M198 -10l-67 403q-7 44 -14 55.5t-34 12.5l-21 1v6h190l-3 -6l-24 -1q-24 -1 -34.5 -9t-7.5 -30l57 -350h2l159 272l-9 49q-8 44 -15 55.5t-33 12.5l-21 1l-1 6h190l-4 -6l-24 -1q-24 -1 -34 -9t-6 -30l54 -351h1l163 298q15 27 21 39.5t9.5 25t-3 16.5t-17 7t-32.5 4
l-16 1v6h161l-4 -6l-12 -1q-34 -3 -51 -22t-65 -107l-188 -342h-7l-54 340h-1l-198 -340h-7z" />
    <glyph glyph-name="x.smallcap" horiz-adv-x="472" 
d="M-41 0l4 6l15 1q37 2 59 18t77 78l111 126l-72 163q-19 41 -30 54.5t-32 14.5l-18 1l-1 6h185l-3 -5l-26 -1q-25 -1 -29 -13t11 -47l59 -132h1l89 104q17 20 27 32.5t15.5 23t5.5 15.5t-5.5 9t-15 5t-26.5 2l-18 1l-1 6h177l-4 -6l-15 -1q-36 -2 -56 -16t-75 -76
l-95 -107l91 -203q13 -31 22.5 -41t31.5 -11l18 -1l1 -6h-185l3 6l26 1q25 1 30.5 10.5t-5.5 31.5l-77 172h-1l-106 -122q-26 -30 -37.5 -45.5t-12.5 -26.5t9.5 -14.5t35.5 -5.5l18 -1l1 -6h-177z" />
    <glyph glyph-name="y.smallcap" horiz-adv-x="455" 
d="M88 0l4 6l38 3q36 3 38 11l41 190l-70 196q-11 31 -21 42.5t-34 12.5l-20 1l-1 6h193l-4 -6l-24 -1q-28 -1 -33 -11.5t5 -38.5l64 -183h1l100 137q48 67 47 81q-2 13 -46 15l-19 1v6h167l-4 -6l-17 -1q-30 -1 -49.5 -18t-66.5 -80l-110 -147l-42 -198v-2t1.5 -2t4.5 -1.5
t7.5 -1.5t11.5 -1.5t17 -1.5l29 -2l1 -6h-209z" />
    <glyph glyph-name="z.smallcap" horiz-adv-x="419" 
d="M-9 0l1 4l387 455l1 1h-134q-58 0 -91.5 -29t-63.5 -89l-5 -10h-4l33 136h336l-1 -4l-386 -455l-1 -1h139q68 0 107.5 32.5t70.5 101.5l5 11h6l-49 -153h-351z" />
    <glyph glyph-name="fi.smallcap" horiz-adv-x="643" 
d="M392 0l4 6l30 3q37 4 39 11l91 430v2t-1.5 2t-4.5 1.5t-7.5 1.5t-11 1.5t-16.5 1.5l-22 2l-1 6h194l-4 -6l-31 -3q-36 -4 -38 -11l-91 -430q0 -2 0.5 -3t5.5 -2.5t12.5 -2t22.5 -2.5l21 -2l1 -6h-193zM-18 0l4 6l30 3q35 4 37 11l92 430v2t-1.5 2t-4 1.5l-7.5 1.5
t-11.5 1.5t-15.5 1.5l-22 2l-1 6h328l8 -135l-6 -1l-3 11q-18 66 -41 91.5t-84 25.5h-80l-46 -215l58 1q47 1 64.5 12t32.5 47l4 10l6 -1l-31 -149h-5v10q0 40 -12.5 50t-65.5 11l-53 1l-45 -219q-1 -3 1.5 -4.5t12 -3t27.5 -2.5l36 -2l1 -6h-207z" />
    <glyph glyph-name="fl.smallcap" horiz-adv-x="808" 
d="M388 0l3 6l29 3q35 4 37 12l92 429q0 2 -0.5 3t-5.5 2.5t-12 2t-22 2.5l-20 2l-1 6h205l-4 -6l-45 -3q-37 -3 -39 -11l-92 -437l95 -2q31 -1 54 7t43 29t31 37t32 51l6 10l6 -1l-51 -142h-341zM-18 0l4 6l30 3q35 4 37 11l92 430v2t-1.5 2t-4 1.5l-7.5 1.5t-11.5 1.5
t-15.5 1.5l-22 2l-1 6h328l8 -135l-6 -1l-3 11q-18 66 -41 91.5t-84 25.5h-80l-46 -215l58 1q47 1 64.5 12t32.5 47l4 10l6 -1l-31 -149h-5v10q0 40 -12.5 50t-65.5 11l-53 1l-45 -219q-1 -3 1.5 -4.5t12 -3t27.5 -2.5l36 -2l1 -6h-207z" />
    <glyph glyph-name="ff.smallcap" horiz-adv-x="808" 
d="M386 0l4 6l30 3q35 4 37 11l92 430v2t-1.5 2t-4 1.5l-7.5 1.5t-11.5 1.5t-15.5 1.5l-22 2l-1 6h328l8 -135l-6 -1l-3 11q-18 66 -41 91.5t-84 25.5h-80l-46 -215l58 1q47 1 64.5 12t32.5 47l4 10l6 -1l-31 -149h-5v10q0 40 -12.5 50t-65.5 11l-53 1l-45 -219
q-1 -3 1.5 -4.5t12 -3t27.5 -2.5l36 -2l1 -6h-207zM-18 0l4 6l30 3q35 4 37 11l92 430v2t-1.5 2t-4 1.5l-7.5 1.5t-11.5 1.5t-15.5 1.5l-22 2l-1 6h328l8 -135l-6 -1l-3 11q-18 66 -41 91.5t-84 25.5h-80l-46 -215l58 1q47 1 64.5 12t32.5 47l4 10l6 -1l-31 -149h-5v10
q0 40 -12.5 50t-65.5 11l-53 1l-45 -219q-1 -3 1.5 -4.5t12 -3t27.5 -2.5l36 -2l1 -6h-207z" />
    <glyph glyph-name="ffi.smallcap" horiz-adv-x="1047" 
d="M386 0l4 6l30 3q35 4 37 11l92 430v2t-1.5 2t-4 1.5l-7.5 1.5t-11.5 1.5t-15.5 1.5l-22 2l-1 6h328l8 -135l-6 -1l-3 11q-18 66 -41 91.5t-84 25.5h-80l-46 -215l58 1q47 1 64.5 12t32.5 47l4 10l6 -1l-31 -149h-5v10q0 40 -12.5 50t-65.5 11l-53 1l-45 -219
q-1 -3 1.5 -4.5t12 -3t27.5 -2.5l36 -2l1 -6h-207zM796 0l4 6l30 3q37 4 39 11l91 430v2t-1.5 2t-4.5 1.5t-7.5 1.5t-11 1.5t-16.5 1.5l-22 2l-1 6h194l-4 -6l-31 -3q-36 -4 -38 -11l-91 -430q0 -2 0.5 -3t5.5 -2.5t12.5 -2t22.5 -2.5l21 -2l1 -6h-193zM-18 0l4 6l30 3
q35 4 37 11l92 430v2t-1.5 2t-4 1.5l-7.5 1.5t-11.5 1.5t-15.5 1.5l-22 2l-1 6h328l8 -135l-6 -1l-3 11q-18 66 -41 91.5t-84 25.5h-80l-46 -215l58 1q47 1 64.5 12t32.5 47l4 10l6 -1l-31 -149h-5v10q0 40 -12.5 50t-65.5 11l-53 1l-45 -219q-1 -3 1.5 -4.5t12 -3
t27.5 -2.5l36 -2l1 -6h-207z" />
    <glyph glyph-name="ffl.smallcap" horiz-adv-x="1212" 
d="M792 0l3 6l29 3q35 4 37 12l92 429q0 2 -0.5 3t-5.5 2.5t-12 2t-22 2.5l-20 2l-1 6h205l-4 -6l-45 -3q-37 -3 -39 -11l-92 -437l95 -2q31 -1 54 7t43 29t31 37t32 51l6 10l6 -1l-51 -142h-341zM386 0l4 6l30 3q35 4 37 11l92 430v2t-1.5 2t-4 1.5l-7.5 1.5t-11.5 1.5
t-15.5 1.5l-22 2l-1 6h328l8 -135l-6 -1l-3 11q-18 66 -41 91.5t-84 25.5h-80l-46 -215l58 1q47 1 64.5 12t32.5 47l4 10l6 -1l-31 -149h-5v10q0 40 -12.5 50t-65.5 11l-53 1l-45 -219q-1 -3 1.5 -4.5t12 -3t27.5 -2.5l36 -2l1 -6h-207zM-18 0l4 6l30 3q35 4 37 11l92 430v2
t-1.5 2t-4 1.5l-7.5 1.5t-11.5 1.5t-15.5 1.5l-22 2l-1 6h328l8 -135l-6 -1l-3 11q-18 66 -41 91.5t-84 25.5h-80l-46 -215l58 1q47 1 64.5 12t32.5 47l4 10l6 -1l-31 -149h-5v10q0 40 -12.5 50t-65.5 11l-53 1l-45 -219q-1 -3 1.5 -4.5t12 -3t27.5 -2.5l36 -2l1 -6h-207z
" />
    <glyph glyph-name="germandbls.smallcap" horiz-adv-x="712" 
d="M516 -11q-43 0 -85.5 14t-68.5 32l16 106l4 -1l8 -37q11 -50 44 -77.5t81 -27.5q53 0 85.5 29.5t32.5 78.5q0 36 -21 61t-75 58q-101 61 -101 129q0 54 39 89.5t103 35.5q56 0 104 -29l33 5l-20 -116l-4 1l-28 96q-33 35 -81 35q-45 0 -72 -26t-27 -65q0 -32 21.5 -56
t69.5 -53q53 -32 81 -64t28 -74q0 -59 -45.5 -101.5t-121.5 -42.5zM160 -11q-43 0 -85.5 14t-68.5 32l16 106l4 -1l8 -37q11 -50 44 -77.5t81 -27.5q53 0 85.5 29.5t32.5 78.5q0 36 -21 61t-75 58q-101 61 -101 129q0 54 39 89.5t103 35.5q56 0 104 -29l33 5l-20 -116l-4 1
l-28 96q-33 35 -81 35q-45 0 -72 -26t-27 -65q0 -32 21.5 -56t69.5 -53q53 -32 81 -64t28 -74q0 -59 -45.5 -101.5t-121.5 -42.5z" />
    <glyph glyph-name="agrave.smallcap" horiz-adv-x="456" 
d="M281 204h-135l-58 -104q-34 -62 -34 -74q1 -15 41 -18q5 -1 10 -1l19 -1v-6h-161l3 6l12 1q36 3 54.5 24t75.5 123l149 265l-3 24q25 8 44 32h7l46 -400q4 -41 13 -53.5t34 -14.5l22 -1l1 -6h-190l4 6l22 1q44 2 40 45zM151 213h129l-20 192h-2zM316 521l-140 187h57
l87 -187h-4z" />
    <glyph glyph-name="aacute.smallcap" horiz-adv-x="456" 
d="M281 204h-135l-58 -104q-34 -62 -34 -74q1 -15 41 -18q5 -1 10 -1l19 -1v-6h-161l3 6l12 1q36 3 54.5 24t75.5 123l149 265l-3 24q25 8 44 32h7l46 -400q4 -41 13 -53.5t34 -14.5l22 -1l1 -6h-190l4 6l22 1q44 2 40 45zM151 213h129l-20 192h-2zM270 521l158 187h64
l-218 -187h-4z" />
    <glyph glyph-name="acircumflex.smallcap" horiz-adv-x="456" 
d="M281 204h-135l-58 -104q-34 -62 -34 -74q1 -15 41 -18q5 -1 10 -1l19 -1v-6h-161l3 6l12 1q36 3 54.5 24t75.5 123l149 265l-3 24q25 8 44 32h7l46 -400q4 -41 13 -53.5t34 -14.5l22 -1l1 -6h-190l4 6l22 1q44 2 40 45zM151 213h129l-20 192h-2zM191 511l155 177h3
l82 -177h-4l-89 114h-3l-140 -114h-4z" />
    <glyph glyph-name="atilde.smallcap" horiz-adv-x="456" 
d="M281 204h-135l-58 -104q-34 -62 -34 -74q1 -15 41 -18q5 -1 10 -1l19 -1v-6h-161l3 6l12 1q36 3 54.5 24t75.5 123l149 265l-3 24q25 8 44 32h7l46 -400q4 -41 13 -53.5t34 -14.5l22 -1l1 -6h-190l4 6l22 1q44 2 40 45zM151 213h129l-20 192h-2zM380 528q-22 0 -72.5 29
t-70.5 29q-41 0 -55 -50h-5q14 46 32 68t45 22q22 0 72.5 -29t70.5 -29q41 0 55 50h5q-15 -47 -32.5 -68.5t-44.5 -21.5z" />
    <glyph glyph-name="adieresis.smallcap" horiz-adv-x="456" 
d="M281 204h-135l-58 -104q-34 -62 -34 -74q1 -15 41 -18q5 -1 10 -1l19 -1v-6h-161l3 6l12 1q36 3 54.5 24t75.5 123l149 265l-3 24q25 8 44 32h7l46 -400q4 -41 13 -53.5t34 -14.5l22 -1l1 -6h-190l4 6l22 1q44 2 40 45zM151 213h129l-20 192h-2zM386 539q-17 0 -27 12
t-10 25q0 14 9.5 27.5t27.5 13.5t27.5 -13.5t9.5 -27.5q0 -13 -10 -25t-27 -12zM246 539q-17 0 -27 12t-10 25q0 14 9.5 27.5t27.5 13.5t27.5 -13.5t9.5 -27.5q0 -13 -10 -25t-27 -12z" />
    <glyph glyph-name="aring.smallcap" horiz-adv-x="456" 
d="M281 204h-135l-58 -104q-34 -62 -34 -74q1 -15 41 -18q5 -1 10 -1l19 -1v-6h-161l3 6l12 1q36 3 54.5 24t75.5 123l173 308q-27 9 -43 32.5t-16 53.5q0 37 24.5 63.5t64.5 26.5t64.5 -26.5t24.5 -63.5q0 -39 -25.5 -65t-67.5 -25l44 -383q4 -41 13 -53.5t34 -14.5l22 -1
l1 -6h-190l4 6l22 1q44 2 40 45zM311 467q36 0 57.5 23.5t21.5 57.5t-21.5 57.5t-57.5 23.5t-57.5 -23.5t-21.5 -57.5t21.5 -57.5t57.5 -23.5zM151 213h129l-20 192h-2z" />
    <glyph glyph-name="aringacute.smallcap" horiz-adv-x="456" 
d="M281 204h-135l-58 -104q-34 -62 -34 -74q1 -15 41 -18q5 -1 10 -1l19 -1v-6h-161l3 6l12 1q36 3 54.5 24t75.5 123l173 308q-27 9 -43 32.5t-16 53.5q0 37 24.5 63.5t64.5 26.5t64.5 -26.5t24.5 -63.5q0 -39 -25.5 -65t-67.5 -25l44 -383q4 -41 13 -53.5t34 -14.5l22 -1
l1 -6h-190l4 6l22 1q44 2 40 45zM311 467q36 0 57.5 23.5t21.5 57.5t-21.5 57.5t-57.5 23.5t-57.5 -23.5t-21.5 -57.5t21.5 -57.5t57.5 -23.5zM151 213h129l-20 192h-2zM217 624l158 187h64l-218 -187h-4z" />
    <glyph glyph-name="amacron.smallcap" horiz-adv-x="456" 
d="M281 204h-135l-58 -104q-34 -62 -34 -74q1 -15 41 -18q5 -1 10 -1l19 -1v-6h-161l3 6l12 1q36 3 54.5 24t75.5 123l149 265l-3 24q25 8 44 32h7l46 -400q4 -41 13 -53.5t34 -14.5l22 -1l1 -6h-190l4 6l22 1q44 2 40 45zM151 213h129l-20 192h-2zM161 521l11 25h250
l-11 -25h-250z" />
    <glyph glyph-name="abreve.smallcap" horiz-adv-x="456" 
d="M281 204h-135l-58 -104q-34 -62 -34 -74q1 -15 41 -18q5 -1 10 -1l19 -1v-6h-161l3 6l12 1q36 3 54.5 24t75.5 123l149 265l-3 24q25 8 44 32h7l46 -400q4 -41 13 -53.5t34 -14.5l22 -1l1 -6h-190l4 6l22 1q44 2 40 45zM151 213h129l-20 192h-2zM279 485q-26 0 -43 12
t-24.5 37t-9.5 43t-4 50h4q12 -51 30 -77.5t54 -26.5q64 0 133 104h4q-39 -78 -62 -104q-35 -38 -82 -38z" />
    <glyph glyph-name="aogonek.smallcap" horiz-adv-x="456" 
d="M319 -213q-29 0 -48.5 20.5t-19.5 51.5q0 77 143 141h-163l4 6l22 1q44 2 40 45l-16 152h-135l-58 -104q-34 -62 -34 -74q1 -15 41 -18q5 -1 10 -1l19 -1v-6h-161l3 6l12 1q36 3 54.5 24t75.5 123l149 265l-3 24q25 8 44 32h7l46 -400q4 -41 13 -53.5t34 -14.5l22 -1
l1 -6q-53 -16 -89.5 -51t-36.5 -77q0 -26 14 -42.5t36 -16.5q33 0 62 35l3 -2q-46 -59 -91 -59zM151 213h129l-20 192h-2z" />
    <glyph glyph-name="ae.smallcap" horiz-adv-x="627" 
d="M298 204h-136l-71 -89q-57 -71 -62 -83q-7 -17 18 -22q8 -2 22 -3l22 -2l3 -5h-168l3 6l25 2q29 2 50.5 20.5t81.5 94.5l251 314q14 17 -16 22q-11 1 -27 2l-29 1l-1 6h342l10 -131h-5l-3 11q-17 64 -40.5 88t-74.5 24h-83l-45 -211l57 2q48 1 65 12t33 47l5 10l5 -1
l-31 -150l-6 1l1 10q4 39 -9.5 48.5t-68.5 11.5l-52 2l-50 -231l113 -2q25 -1 47 7t34.5 14.5t32.5 30t25 30.5t28 39l7 10l6 -1l-60 -139h-365l4 7l35 3q36 3 38 12zM169 213h131l47 223h-1z" />
    <glyph glyph-name="aeacute.smallcap" horiz-adv-x="627" 
d="M298 204h-136l-71 -89q-57 -71 -62 -83q-7 -17 18 -22q8 -2 22 -3l22 -2l3 -5h-168l3 6l25 2q29 2 50.5 20.5t81.5 94.5l251 314q14 17 -16 22q-11 1 -27 2l-29 1l-1 6h342l10 -131h-5l-3 11q-17 64 -40.5 88t-74.5 24h-83l-45 -211l57 2q48 1 65 12t33 47l5 10l5 -1
l-31 -150l-6 1l1 10q4 39 -9.5 48.5t-68.5 11.5l-52 2l-50 -231l113 -2q25 -1 47 7t34.5 14.5t32.5 30t25 30.5t28 39l7 10l6 -1l-60 -139h-365l4 7l35 3q36 3 38 12zM169 213h131l47 223h-1zM392 501l158 187h64l-218 -187h-4z" />
    <glyph glyph-name="ccedilla.smallcap" horiz-adv-x="500" 
d="M275 -11h-2q-107 0 -172 59.5t-65 150.5q0 115 80.5 197t199.5 82q91 0 144 -41l44 16l-23 -133h-4l-28 107q-15 16 -50.5 29.5t-74.5 13.5q-101 0 -163 -85.5t-62 -200.5q0 -85 46 -136.5t128 -51.5q51 0 89 24t76 71l23 29l4 -1l-46 -111l-27 -1q-50 -15 -108 -18
l-71 -64q55 7 86.5 -10.5t31.5 -49.5q0 -50 -56 -75.5t-140 -23.5l-1 5q74 0 117.5 21.5t43.5 57.5q0 20 -19 32.5t-51 12.5q-18 0 -60 -9l2 6z" />
    <glyph glyph-name="cacute.smallcap" horiz-adv-x="500" 
d="M273 -11q-107 0 -172 59.5t-65 150.5q0 115 80.5 197t199.5 82q91 0 144 -41l44 16l-23 -133h-4l-28 107q-15 16 -50.5 29.5t-74.5 13.5q-101 0 -163 -85.5t-62 -200.5q0 -85 46 -136.5t128 -51.5q51 0 89 24t76 71l23 29l4 -1l-46 -111l-27 -1q-56 -18 -119 -18z
M279 501l158 187h64l-218 -187h-4z" />
    <glyph glyph-name="ccircumflex.smallcap" horiz-adv-x="500" 
d="M273 -11q-107 0 -172 59.5t-65 150.5q0 115 80.5 197t199.5 82q91 0 144 -41l44 16l-23 -133h-4l-28 107q-15 16 -50.5 29.5t-74.5 13.5q-101 0 -163 -85.5t-62 -200.5q0 -85 46 -136.5t128 -51.5q51 0 89 24t76 71l23 29l4 -1l-46 -111l-27 -1q-56 -18 -119 -18z
M197 481l155 177h3l82 -177h-4l-89 114h-3l-140 -114h-4z" />
    <glyph glyph-name="cdotaccent.smallcap" horiz-adv-x="500" 
d="M273 -11q-107 0 -172 59.5t-65 150.5q0 115 80.5 197t199.5 82q91 0 144 -41l44 16l-23 -133h-4l-28 107q-15 16 -50.5 29.5t-74.5 13.5q-101 0 -163 -85.5t-62 -200.5q0 -85 46 -136.5t128 -51.5q51 0 89 24t76 71l23 29l4 -1l-46 -111l-27 -1q-56 -18 -119 -18z
M334 525q-17 0 -27 12t-10 25q0 15 9 28t27 13t28 -13.5t10 -27.5q0 -13 -10 -25t-27 -12z" />
    <glyph glyph-name="ccaron.smallcap" horiz-adv-x="500" 
d="M273 -11q-107 0 -172 59.5t-65 150.5q0 115 80.5 197t199.5 82q91 0 144 -41l44 16l-23 -133h-4l-28 107q-15 16 -50.5 29.5t-74.5 13.5q-101 0 -163 -85.5t-62 -200.5q0 -85 46 -136.5t128 -51.5q51 0 89 24t76 71l23 29l4 -1l-46 -111l-27 -1q-56 -18 -119 -18z
M325 491l-82 177h4l89 -114h3l140 114h4l-155 -177h-3z" />
    <glyph glyph-name="dcaron.smallcap" horiz-adv-x="485" 
d="M272 494l-82 177h4l89 -114h3l140 114h4l-155 -177h-3zM-16 0l3 6l28 3q36 4 38 11l92 430q0 2 -0.5 3t-5.5 2.5t-12.5 2t-23.5 2.5l-18 2l-1 6l180 1q105 1 162.5 -55.5t57.5 -143.5q0 -118 -83 -194t-226 -76h-191zM179 8q116 0 179 79.5t63 196.5q0 80 -40 128
t-124 48h-53l-94 -441z" />
    <glyph glyph-name="eth.smallcap" horiz-adv-x="499" 
d="M98 230h-63l4 10h61l45 210q0 2 -0.5 3t-5.5 2.5t-12.5 2t-23.5 2.5l-18 2l-1 6l180 1q105 1 162.5 -55.5t57.5 -143.5q0 -118 -83 -194t-226 -76h-191l3 6l28 3q36 4 38 11zM157 240h116v-10h-118l-44 -209l68 -13q116 0 179 79.5t63 196.5q0 80 -40 128t-124 48h-53z
" />
    <glyph glyph-name="dcroat.smallcap" horiz-adv-x="499" 
d="M98 230h-63l4 10h61l45 210q0 2 -0.5 3t-5.5 2.5t-12.5 2t-23.5 2.5l-18 2l-1 6l180 1q105 1 162.5 -55.5t57.5 -143.5q0 -118 -83 -194t-226 -76h-191l3 6l28 3q36 4 38 11zM157 240h116v-10h-118l-44 -209l68 -13q116 0 179 79.5t63 196.5q0 80 -40 128t-124 48h-53z
" />
    <glyph glyph-name="egrave.smallcap" horiz-adv-x="425" 
d="M-18 0l4 6l27 3q38 4 40 11l92 430q1 3 -5 5t-37 5l-20 2l-1 6h318l10 -131h-4l-4 11q-23 64 -44 88t-71 24h-83l-45 -211l57 2q48 1 65 12t33 47l5 10l6 -1l-31 -150l-6 1v10q0 40 -12 49t-66 11l-52 2l-49 -231l112 -2q25 -1 47 7t34.5 14.5t32.5 30t25 30.5t28 39
l7 10l6 -1l-60 -139h-359zM292 521l-140 187h57l87 -187h-4z" />
    <glyph glyph-name="eacute.smallcap" horiz-adv-x="425" 
d="M-18 0l4 6l27 3q38 4 40 11l92 430q1 3 -5 5t-37 5l-20 2l-1 6h318l10 -131h-4l-4 11q-23 64 -44 88t-71 24h-83l-45 -211l57 2q48 1 65 12t33 47l5 10l6 -1l-31 -150l-6 1v10q0 40 -12 49t-66 11l-52 2l-49 -231l112 -2q25 -1 47 7t34.5 14.5t32.5 30t25 30.5t28 39
l7 10l6 -1l-60 -139h-359zM249 521l158 187h64l-218 -187h-4z" />
    <glyph glyph-name="ecircumflex.smallcap" horiz-adv-x="425" 
d="M-18 0l4 6l27 3q38 4 40 11l92 430q1 3 -5 5t-37 5l-20 2l-1 6h318l10 -131h-4l-4 11q-23 64 -44 88t-71 24h-83l-45 -211l57 2q48 1 65 12t33 47l5 10l6 -1l-31 -150l-6 1v10q0 40 -12 49t-66 11l-52 2l-49 -231l112 -2q25 -1 47 7t34.5 14.5t32.5 30t25 30.5t28 39
l7 10l6 -1l-60 -139h-359zM142 511l155 177h3l82 -177h-4l-89 114h-3l-140 -114h-4z" />
    <glyph glyph-name="edieresis.smallcap" horiz-adv-x="425" 
d="M-18 0l4 6l27 3q38 4 40 11l92 430q1 3 -5 5t-37 5l-20 2l-1 6h318l10 -131h-4l-4 11q-23 64 -44 88t-71 24h-83l-45 -211l57 2q48 1 65 12t33 47l5 10l6 -1l-31 -150l-6 1v10q0 40 -12 49t-66 11l-52 2l-49 -231l112 -2q25 -1 47 7t34.5 14.5t32.5 30t25 30.5t28 39
l7 10l6 -1l-60 -139h-359zM330 539q-17 0 -27 12t-10 25q0 14 9.5 27.5t27.5 13.5t27.5 -13.5t9.5 -27.5q0 -13 -10 -25t-27 -12zM190 539q-17 0 -27 12t-10 25q0 14 9.5 27.5t27.5 13.5t27.5 -13.5t9.5 -27.5q0 -13 -10 -25t-27 -12z" />
    <glyph glyph-name="emacron.smallcap" horiz-adv-x="425" 
d="M-18 0l4 6l27 3q38 4 40 11l92 430q1 3 -5 5t-37 5l-20 2l-1 6h318l10 -131h-4l-4 11q-23 64 -44 88t-71 24h-83l-45 -211l57 2q48 1 65 12t33 47l5 10l6 -1l-31 -150l-6 1v10q0 40 -12 49t-66 11l-52 2l-49 -231l112 -2q25 -1 47 7t34.5 14.5t32.5 30t25 30.5t28 39
l7 10l6 -1l-60 -139h-359zM135 521l11 25h250l-11 -25h-250z" />
    <glyph glyph-name="ebreve.smallcap" horiz-adv-x="425" 
d="M-18 0l4 6l27 3q38 4 40 11l92 430q1 3 -5 5t-37 5l-20 2l-1 6h318l10 -131h-4l-4 11q-23 64 -44 88t-71 24h-83l-45 -211l57 2q48 1 65 12t33 47l5 10l6 -1l-31 -150l-6 1v10q0 40 -12 49t-66 11l-52 2l-49 -231l112 -2q25 -1 47 7t34.5 14.5t32.5 30t25 30.5t28 39
l7 10l6 -1l-60 -139h-359zM263 495q-26 0 -43 12t-24.5 37t-9.5 43t-4 50h4q12 -51 30 -77.5t54 -26.5q64 0 133 104h4q-39 -78 -62 -104q-35 -38 -82 -38z" />
    <glyph glyph-name="edotaccent.smallcap" horiz-adv-x="425" 
d="M-18 0l4 6l27 3q38 4 40 11l92 430q1 3 -5 5t-37 5l-20 2l-1 6h318l10 -131h-4l-4 11q-23 64 -44 88t-71 24h-83l-45 -211l57 2q48 1 65 12t33 47l5 10l6 -1l-31 -150l-6 1v10q0 40 -12 49t-66 11l-52 2l-49 -231l112 -2q25 -1 47 7t34.5 14.5t32.5 30t25 30.5t28 39
l7 10l6 -1l-60 -139h-359zM272 525q-17 0 -27 12t-10 25q0 15 9 28t27 13t28 -13.5t10 -27.5q0 -13 -10 -25t-27 -12z" />
    <glyph glyph-name="eogonek.smallcap" horiz-adv-x="425" 
d="M222 -213q-29 0 -48.5 20.5t-19.5 51.5q0 42 41 78t100 63h-313l4 6l27 3q38 4 40 11l92 430q1 3 -5 5t-37 5l-20 2l-1 6h318l10 -131h-4l-4 11q-23 64 -44 88t-71 24h-83l-45 -211l57 2q48 1 65 12t33 47l5 10l6 -1l-31 -150l-6 1v10q0 40 -12 49t-66 11l-52 2l-49 -231
l112 -2q25 -1 47 7t34.5 14.5t32.5 30t25 30.5t28 39l7 10l6 -1l-60 -139h-34q-109 -55 -109 -128q0 -26 14 -42.5t36 -16.5q33 0 62 35l3 -2q-46 -59 -91 -59z" />
    <glyph glyph-name="ecaron.smallcap" horiz-adv-x="425" 
d="M-18 0l4 6l27 3q38 4 40 11l92 430q1 3 -5 5t-37 5l-20 2l-1 6h318l10 -131h-4l-4 11q-23 64 -44 88t-71 24h-83l-45 -211l57 2q48 1 65 12t33 47l5 10l6 -1l-31 -150l-6 1v10q0 40 -12 49t-66 11l-52 2l-49 -231l112 -2q25 -1 47 7t34.5 14.5t32.5 30t25 30.5t28 39
l7 10l6 -1l-60 -139h-359zM265 491l-82 177h4l89 -114h3l140 114h4l-155 -177h-3z" />
    <glyph glyph-name="gcircumflex.smallcap" horiz-adv-x="511" 
d="M264 -12q-102 0 -165 60.5t-63 151.5q0 114 79 197t201 83q88 0 145 -42l44 15l-26 -132l-4 1l-26 106q-17 17 -52 29.5t-74 12.5q-100 0 -162 -85.5t-62 -195.5q0 -85 47 -138.5t124 -53.5q50 0 85 19l36 170q0 2 -1.5 3t-10 2.5t-21.5 2.5q-7 1 -11 1l-29 3l-1 6h198
l-4 -6l-27 -3q-36 -4 -38 -12l-33 -158l45 8v-5q-113 -40 -194 -40zM202 491l155 177h3l82 -177h-4l-89 114h-3l-140 -114h-4z" />
    <glyph glyph-name="gbreve.smallcap" horiz-adv-x="511" 
d="M264 -12q-102 0 -165 60.5t-63 151.5q0 114 79 197t201 83q88 0 145 -42l44 15l-26 -132l-4 1l-26 106q-17 17 -52 29.5t-74 12.5q-100 0 -162 -85.5t-62 -195.5q0 -85 47 -138.5t124 -53.5q50 0 85 19l36 170q0 2 -1.5 3t-10 2.5t-21.5 2.5q-7 1 -11 1l-29 3l-1 6h198
l-4 -6l-27 -3q-36 -4 -38 -12l-33 -158l45 8v-5q-113 -40 -194 -40zM326 499q-26 0 -43 12t-24.5 37t-9.5 43t-4 50h4q12 -51 30 -77.5t54 -26.5q64 0 133 104h4q-39 -78 -62 -104q-35 -38 -82 -38z" />
    <glyph glyph-name="gdotaccent.smallcap" horiz-adv-x="511" 
d="M264 -12q-102 0 -165 60.5t-63 151.5q0 114 79 197t201 83q88 0 145 -42l44 15l-26 -132l-4 1l-26 106q-17 17 -52 29.5t-74 12.5q-100 0 -162 -85.5t-62 -195.5q0 -85 47 -138.5t124 -53.5q50 0 85 19l36 170q0 2 -1.5 3t-10 2.5t-21.5 2.5q-7 1 -11 1l-29 3l-1 6h198
l-4 -6l-27 -3q-36 -4 -38 -12l-33 -158l45 8v-5q-113 -40 -194 -40zM349 525q-17 0 -27 12t-10 25q0 15 9 28t27 13t28 -13.5t10 -27.5q0 -13 -10 -25t-27 -12z" />
    <glyph glyph-name="gcommaaccent.smallcap" horiz-adv-x="511" 
d="M156 -263l-3 5q78 29 91 92q6 29 -11.5 43t-45.5 3q-7 21 9 39t44 15q27 -3 41.5 -24.5t7.5 -53.5q-8 -39 -46.5 -73.5t-86.5 -45.5zM264 -12q-102 0 -165 60.5t-63 151.5q0 114 79 197t201 83q88 0 145 -42l44 15l-26 -132l-4 1l-26 106q-17 17 -52 29.5t-74 12.5
q-100 0 -162 -85.5t-62 -195.5q0 -85 47 -138.5t124 -53.5q50 0 85 19l36 170q0 2 -1.5 3t-10 2.5t-21.5 2.5q-7 1 -11 1l-29 3l-1 6h198l-4 -6l-27 -3q-36 -4 -38 -12l-33 -158l45 8v-5q-113 -40 -194 -40z" />
    <glyph glyph-name="hcircumflex.smallcap" horiz-adv-x="529" 
d="M-16 0l3 6l28 3q36 4 38 11l92 430q0 2 -0.5 3t-5.5 2.5t-12.5 2t-23.5 2.5l-18 2l-1 6h190l-4 -6l-30 -3q-37 -4 -39 -11l-42 -202h247l43 204v2t-1.5 2t-4.5 1.5t-7.5 1.5t-11 1.5t-16.5 1.5l-22 2v6h190l-4 -6l-28 -3q-36 -4 -38 -11l-91 -430q0 -2 0.5 -3t5.5 -2.5
t12.5 -2t22.5 -2.5l19 -2v-6h-190l4 6l31 3q36 4 38 11l46 215h-248l-46 -217v-2t1.5 -2t4.5 -1.5t7.5 -1.5t11 -1.5t16.5 -1.5l22 -2l1 -6h-190zM211 505l155 177h3l82 -177h-4l-89 114h-3l-140 -114h-4z" />
    <glyph glyph-name="hbar.smallcap" horiz-adv-x="529" 
d="M52 338l11 25h63l19 87q0 2 -0.5 3t-5.5 2.5t-12.5 2t-23.5 2.5l-18 2l-1 6h190l-4 -6l-30 -3q-37 -4 -39 -11l-18 -85h247l19 87v2t-1.5 2t-4.5 1.5t-7.5 1.5t-11 1.5t-16.5 1.5l-22 2v6h190l-4 -6l-28 -3q-36 -4 -38 -11l-18 -85h74l-11 -25h-69l-67 -320q0 -2 0.5 -3
t5.5 -2.5t12.5 -2t22.5 -2.5l19 -2v-6h-190l4 6l31 3q36 4 38 11l46 215h-248l-46 -217v-2t1.5 -2t4.5 -1.5t7.5 -1.5t11 -1.5t16.5 -1.5l22 -2l1 -6h-190l3 6l28 3q36 4 38 11l68 318h-69zM159 246h247l19 92h-247z" />
    <glyph glyph-name="igrave.smallcap" horiz-adv-x="239" 
d="M-12 0l4 6l30 3q37 4 39 11l91 430v2t-1.5 2t-4.5 1.5t-7.5 1.5t-11 1.5t-16.5 1.5l-22 2l-1 6h194l-4 -6l-31 -3q-36 -4 -38 -11l-91 -430q0 -2 0.5 -3t5.5 -2.5t12.5 -2t22.5 -2.5l21 -2l1 -6h-193zM222 521l-140 187h57l87 -187h-4z" />
    <glyph glyph-name="iacute.smallcap" horiz-adv-x="239" 
d="M-12 0l4 6l30 3q37 4 39 11l91 430v2t-1.5 2t-4.5 1.5t-7.5 1.5t-11 1.5t-16.5 1.5l-22 2l-1 6h194l-4 -6l-31 -3q-36 -4 -38 -11l-91 -430q0 -2 0.5 -3t5.5 -2.5t12.5 -2t22.5 -2.5l21 -2l1 -6h-193zM166 521l158 187h64l-218 -187h-4z" />
    <glyph glyph-name="icircumflex.smallcap" horiz-adv-x="239" 
d="M-12 0l4 6l30 3q37 4 39 11l91 430v2t-1.5 2t-4.5 1.5t-7.5 1.5t-11 1.5t-16.5 1.5l-22 2l-1 6h194l-4 -6l-31 -3q-36 -4 -38 -11l-91 -430q0 -2 0.5 -3t5.5 -2.5t12.5 -2t22.5 -2.5l21 -2l1 -6h-193zM74 511l155 177h3l82 -177h-4l-89 114h-3l-140 -114h-4z" />
    <glyph glyph-name="idieresis.smallcap" horiz-adv-x="239" 
d="M-12 0l4 6l30 3q37 4 39 11l91 430v2t-1.5 2t-4.5 1.5t-7.5 1.5t-11 1.5t-16.5 1.5l-22 2l-1 6h194l-4 -6l-31 -3q-36 -4 -38 -11l-91 -430q0 -2 0.5 -3t5.5 -2.5t12.5 -2t22.5 -2.5l21 -2l1 -6h-193zM267 539q-17 0 -27 12t-10 25q0 14 9.5 27.5t27.5 13.5t27.5 -13.5
t9.5 -27.5q0 -13 -10 -25t-27 -12zM127 539q-17 0 -27 12t-10 25q0 14 9.5 27.5t27.5 13.5t27.5 -13.5t9.5 -27.5q0 -13 -10 -25t-27 -12z" />
    <glyph glyph-name="imacron.smallcap" horiz-adv-x="239" 
d="M-12 0l4 6l30 3q37 4 39 11l91 430v2t-1.5 2t-4.5 1.5t-7.5 1.5t-11 1.5t-16.5 1.5l-22 2l-1 6h194l-4 -6l-31 -3q-36 -4 -38 -11l-91 -430q0 -2 0.5 -3t5.5 -2.5t12.5 -2t22.5 -2.5l21 -2l1 -6h-193zM67 521l11 25h250l-11 -25h-250z" />
    <glyph glyph-name="ibreve.smallcap" horiz-adv-x="239" 
d="M-12 0l4 6l30 3q37 4 39 11l91 430v2t-1.5 2t-4.5 1.5t-7.5 1.5t-11 1.5t-16.5 1.5l-22 2l-1 6h194l-4 -6l-31 -3q-36 -4 -38 -11l-91 -430q0 -2 0.5 -3t5.5 -2.5t12.5 -2t22.5 -2.5l21 -2l1 -6h-193zM195 495q-26 0 -43 12t-24.5 37t-9.5 43t-4 50h4q12 -51 30 -77.5
t54 -26.5q64 0 133 104h4q-39 -78 -62 -104q-35 -38 -82 -38z" />
    <glyph glyph-name="iogonek.smallcap" horiz-adv-x="239" 
d="M82 -213q-29 0 -48.5 20.5t-19.5 51.5q0 42 41 78.5t100 62.5h-167l4 6l30 3q37 4 39 11l91 430v2t-1.5 2t-4.5 1.5t-7.5 1.5t-11 1.5t-16.5 1.5l-22 2l-1 6h194l-4 -6l-31 -3q-36 -4 -38 -11l-91 -430q0 -2 0.5 -3t5.5 -2.5t12.5 -2t22.5 -2.5l21 -2l1 -6
q-123 -45 -123 -128q0 -26 14 -42.5t36 -16.5q33 0 62 35l3 -2q-46 -59 -91 -59z" />
    <glyph glyph-name="idotaccent.smallcap" horiz-adv-x="239" 
d="M-12 0l4 6l30 3q37 4 39 11l91 430v2t-1.5 2t-4.5 1.5t-7.5 1.5t-11 1.5t-16.5 1.5l-22 2l-1 6h194l-4 -6l-31 -3q-36 -4 -38 -11l-91 -430q0 -2 0.5 -3t5.5 -2.5t12.5 -2t22.5 -2.5l21 -2l1 -6h-193zM204 525q-17 0 -27 12t-10 25q0 15 9 28t27 13t28 -13.5t10 -27.5
q0 -13 -10 -25t-27 -12z" />
    <glyph glyph-name="dotlessi.smallcap" horiz-adv-x="239" 
d="M-12 0l4 6l30 3q37 4 39 11l91 430v2t-1.5 2t-4.5 1.5t-7.5 1.5t-11 1.5t-16.5 1.5l-22 2l-1 6h194l-4 -6l-31 -3q-36 -4 -38 -11l-91 -430q0 -2 0.5 -3t5.5 -2.5t12.5 -2t22.5 -2.5l21 -2l1 -6h-193z" />
    <glyph glyph-name="jcircumflex.smallcap" horiz-adv-x="224" 
d="M-47 -126q-55 0 -55 40q0 17 11 28.5t27 11.5q28 0 35 -26t-21 -43q31 -8 59 24t42 98l94 443q0 2 -0.5 3t-5.5 2.5t-12.5 2t-23.5 2.5l-21 2l-1 6h193l-4 -6l-30 -3q-37 -4 -39 -11l-97 -458q-6 -27 -56.5 -71.5t-94.5 -44.5zM63 481l155 177h3l82 -177h-4l-89 114h-3
l-140 -114h-4z" />
    <glyph glyph-name="jcircumflex.smallcap.alt" horiz-adv-x="332" 
d="M173 481l155 177h3l82 -177h-4l-89 114h-3l-140 -114h-4zM91 -9q-48 0 -73 20t-25 44q0 19 11.5 31.5t29.5 12.5q14 0 23.5 -9.5t9.5 -22.5q0 -33 -40 -36q15 -32 65 -32q35 0 55.5 23.5t31.5 76.5l74 350q1 5 -6 6.5t-35 3.5l-29 2l-1 7h208l-3 -7l-38 -3
q-37 -3 -39 -11l-79 -372q-6 -27 -49 -55.5t-91 -28.5z" />
    <glyph glyph-name="dotlessj.smallcap" horiz-adv-x="224" 
d="M-47 -126q-55 0 -55 40q0 17 11 28.5t27 11.5q28 0 35 -26t-21 -43q31 -8 59 24t42 98l94 443q0 2 -0.5 3t-5.5 2.5t-12.5 2t-23.5 2.5l-21 2l-1 6h193l-4 -6l-30 -3q-37 -4 -39 -11l-97 -458q-6 -27 -56.5 -71.5t-94.5 -44.5z" />
    <glyph glyph-name="kcommaaccent.smallcap" horiz-adv-x="490" 
d="M119 -273l-3 5q78 29 91 92q6 29 -11.5 43t-45.5 3q-7 21 9 39t44 15q27 -3 41.5 -24.5t7.5 -53.5q-8 -39 -46.5 -73.5t-86.5 -45.5zM-16 0l3 6l29 3q35 4 37 11l92 430q0 2 -0.5 3t-5.5 2.5t-12 2t-22 2.5l-20 2l-1 6h193l-4 -6l-33 -3q-37 -3 -39 -11l-53 -249l153 127
q113 94 120 115q4 12 -16 16q-8 2 -25 3l-27 2v6h180l-4 -6l-10 -1q-16 -2 -23.5 -4t-16 -5t-22.5 -14t-29.5 -23.5t-51 -40.5t-74.5 -58l-17 -13l95 -239q16 -39 24.5 -47t32.5 -10l21 -1v-6h-188l3 6l21 1q25 1 29.5 16.5t-6.5 40.5l-77 200l-94 -79l-36 -167v-2t1.5 -2
t4.5 -1.5t7.5 -1.5t11 -1.5t16.5 -1.5l25 -2l1 -6h-193z" />
    <glyph glyph-name="lacute.smallcap" horiz-adv-x="404" 
d="M-16 0l3 6l29 3q35 4 37 12l92 429q0 2 -0.5 3t-5.5 2.5t-12 2t-22 2.5l-20 2l-1 6h205l-4 -6l-45 -3q-37 -3 -39 -11l-92 -437l95 -2q31 -1 54 7t43 29t31 37t32 51l6 10l6 -1l-51 -142h-341zM152 501l158 187h64l-218 -187h-4z" />
    <glyph glyph-name="lcommaaccent.smallcap" horiz-adv-x="404" 
d="M79 -283l-3 5q78 29 91 92q6 29 -11.5 43t-45.5 3q-7 21 9 39t44 15q27 -3 41.5 -24.5t7.5 -53.5q-8 -39 -46.5 -73.5t-86.5 -45.5zM-16 0l3 6l29 3q35 4 37 12l92 429q0 2 -0.5 3t-5.5 2.5t-12 2t-22 2.5l-20 2l-1 6h205l-4 -6l-45 -3q-37 -3 -39 -11l-92 -437l95 -2
q31 -1 54 7t43 29t31 37t32 51l6 10l6 -1l-51 -142h-341z" />
    <glyph glyph-name="lcaron.smallcap" horiz-adv-x="555" 
d="M-16 0l3 6l29 3q35 4 37 12l92 429q0 2 -0.5 3t-5.5 2.5t-12 2t-22 2.5l-20 2l-1 6h205l-4 -6l-45 -3q-37 -3 -39 -11l-92 -437l95 -2q31 -1 54 7t43 29t31 37t32 51l6 10l6 -1l-51 -142h-341zM424 286l-2 4q97 44 97 105q0 21 -17 31.5t-47 6.5q-5 14 9 31t37 17
q24 0 40 -16.5t16 -43.5q0 -42 -41 -80.5t-92 -54.5z" />
    <glyph glyph-name="ldotaccent.smallcap" horiz-adv-x="535" 
d="M479 208q-19 0 -32 13.5t-13 31.5q0 17 13.5 30t32.5 13q18 0 30 -13t12 -30q0 -18 -12.5 -31.5t-30.5 -13.5zM-16 0l3 6l29 3q35 4 37 12l92 429q0 2 -0.5 3t-5.5 2.5t-12 2t-22 2.5l-20 2l-1 6h205l-4 -6l-45 -3q-37 -3 -39 -11l-92 -437l95 -2q31 -1 54 7t43 29t31 37
t32 51l6 10l6 -1l-51 -142h-341z" />
    <glyph glyph-name="lslash.smallcap" horiz-adv-x="407" 
d="M94 212l-81 -24l3 10l80 24l49 228q0 2 -0.5 3t-5.5 2.5t-12.5 2t-23.5 2.5l-22 2l-1 6h209l-4 -6l-45 -3q-37 -3 -39 -11l-44 -207l82 25l-1 -11l-83 -25l-46 -219l95 -2q31 -1 54 7t43 29t31 37t32 51l6 10l6 -1l-53 -142h-343l4 6l31 3q36 4 38 12z" />
    <glyph glyph-name="ntilde.smallcap" horiz-adv-x="505" 
d="M342 -4l-225 426h-1l-82 -392q-1 -6 3.5 -10.5t17 -8t34.5 -4.5l14 -1l1 -6h-157l4 6l14 1q55 3 59 24l86 400q-16 24 -64 30l-9 1l-1 6h123l198 -380h1l74 350q2 9 -11 15t-44 8l-14 1l-1 6h158l-4 -6l-15 -1q-55 -3 -59 -24l-95 -441h-5zM369 528q-22 0 -72.5 29
t-70.5 29q-41 0 -55 -50h-5q14 46 32 68t45 22q22 0 72.5 -29t70.5 -29q41 0 55 50h5q-15 -47 -32.5 -68.5t-44.5 -21.5z" />
    <glyph glyph-name="nacute.smallcap" horiz-adv-x="505" 
d="M387 -4l-225 426h-1l-82 -392q-1 -6 3.5 -10.5t17 -8t34.5 -4.5l14 -1l1 -6h-157l4 6l14 1q55 3 59 24l86 400q-16 24 -64 30l-9 1l-1 6h123l198 -380h1l74 350q2 9 -11 15t-44 8l-14 1l-1 6h158l-4 -6l-15 -1q-55 -3 -59 -24l-95 -441h-5zM314 491l158 187h64l-218 -187
h-4z" />
    <glyph glyph-name="ncommaaccent.smallcap" horiz-adv-x="505" 
d="M153 -263l-3 5q78 29 91 92q6 29 -11.5 43t-45.5 3q-7 21 9 39t44 15q27 -3 41.5 -24.5t7.5 -53.5q-8 -39 -46.5 -73.5t-86.5 -45.5zM387 -4l-225 426h-1l-82 -392q-1 -6 3.5 -10.5t17 -8t34.5 -4.5l14 -1l1 -6h-157l4 6l14 1q55 3 59 24l86 400q-16 24 -64 30l-9 1l-1 6
h123l198 -380h1l74 350q2 9 -11 15t-44 8l-14 1l-1 6h158l-4 -6l-15 -1q-55 -3 -59 -24l-95 -441h-5z" />
    <glyph glyph-name="ncaron.smallcap" horiz-adv-x="505" 
d="M387 -4l-225 426h-1l-82 -392q-1 -6 3.5 -10.5t17 -8t34.5 -4.5l14 -1l1 -6h-157l4 6l14 1q55 3 59 24l86 400q-16 24 -64 30l-9 1l-1 6h123l198 -380h1l74 350q2 9 -11 15t-44 8l-14 1l-1 6h158l-4 -6l-15 -1q-55 -3 -59 -24l-95 -441h-5zM346 481l-82 177h4l89 -114h3
l140 114h4l-155 -177h-3z" />
    <glyph glyph-name="ograve.smallcap" horiz-adv-x="533" 
d="M263 -11q-101 0 -162 64.5t-61 159.5q0 104 75 184.5t187 80.5q99 0 160 -65t61 -160q0 -111 -77 -187.5t-183 -76.5zM260 -3q86 0 144.5 85.5t58.5 199.5q0 82 -43 134.5t-116 52.5q-89 0 -146.5 -87t-57.5 -199q0 -82 42.5 -134t117.5 -52zM339 521l-140 187h57
l87 -187h-4z" />
    <glyph glyph-name="oacute.smallcap" horiz-adv-x="533" 
d="M263 -11q-101 0 -162 64.5t-61 159.5q0 104 75 184.5t187 80.5q99 0 160 -65t61 -160q0 -111 -77 -187.5t-183 -76.5zM260 -3q86 0 144.5 85.5t58.5 199.5q0 82 -43 134.5t-116 52.5q-89 0 -146.5 -87t-57.5 -199q0 -82 42.5 -134t117.5 -52zM303 521l158 187h64
l-218 -187h-4z" />
    <glyph glyph-name="ocircumflex.smallcap" horiz-adv-x="533" 
d="M263 -11q-101 0 -162 64.5t-61 159.5q0 104 75 184.5t187 80.5q99 0 160 -65t61 -160q0 -111 -77 -187.5t-183 -76.5zM260 -3q86 0 144.5 85.5t58.5 199.5q0 82 -43 134.5t-116 52.5q-89 0 -146.5 -87t-57.5 -199q0 -82 42.5 -134t117.5 -52zM201 511l155 177h3l82 -177
h-4l-89 114h-3l-140 -114h-4z" />
    <glyph glyph-name="otilde.smallcap" horiz-adv-x="533" 
d="M263 -11q-101 0 -162 64.5t-61 159.5q0 104 75 184.5t187 80.5q99 0 160 -65t61 -160q0 -111 -77 -187.5t-183 -76.5zM260 -3q86 0 144.5 85.5t58.5 199.5q0 82 -43 134.5t-116 52.5q-89 0 -146.5 -87t-57.5 -199q0 -82 42.5 -134t117.5 -52zM408 528q-22 0 -72.5 29
t-70.5 29q-41 0 -55 -50h-5q14 46 32 68t45 22q22 0 72.5 -29t70.5 -29q41 0 55 50h5q-15 -47 -32.5 -68.5t-44.5 -21.5z" />
    <glyph glyph-name="odieresis.smallcap" horiz-adv-x="533" 
d="M263 -11q-101 0 -162 64.5t-61 159.5q0 104 75 184.5t187 80.5q99 0 160 -65t61 -160q0 -111 -77 -187.5t-183 -76.5zM260 -3q86 0 144.5 85.5t58.5 199.5q0 82 -43 134.5t-116 52.5q-89 0 -146.5 -87t-57.5 -199q0 -82 42.5 -134t117.5 -52zM414 539q-17 0 -27 12
t-10 25q0 14 9.5 27.5t27.5 13.5t27.5 -13.5t9.5 -27.5q0 -13 -10 -25t-27 -12zM274 539q-17 0 -27 12t-10 25q0 14 9.5 27.5t27.5 13.5t27.5 -13.5t9.5 -27.5q0 -13 -10 -25t-27 -12z" />
    <glyph glyph-name="omacron.smallcap" horiz-adv-x="533" 
d="M263 -11q-101 0 -162 64.5t-61 159.5q0 104 75 184.5t187 80.5q99 0 160 -65t61 -160q0 -111 -77 -187.5t-183 -76.5zM260 -3q86 0 144.5 85.5t58.5 199.5q0 82 -43 134.5t-116 52.5q-89 0 -146.5 -87t-57.5 -199q0 -82 42.5 -134t117.5 -52zM189 521l11 25h250l-11 -25
h-250z" />
    <glyph glyph-name="obreve.smallcap" horiz-adv-x="533" 
d="M263 -11q-101 0 -162 64.5t-61 159.5q0 104 75 184.5t187 80.5q99 0 160 -65t61 -160q0 -111 -77 -187.5t-183 -76.5zM260 -3q86 0 144.5 85.5t58.5 199.5q0 82 -43 134.5t-116 52.5q-89 0 -146.5 -87t-57.5 -199q0 -82 42.5 -134t117.5 -52zM315 495q-26 0 -43 12
t-24.5 37t-9.5 43t-4 50h4q12 -51 30 -77.5t54 -26.5q64 0 133 104h4q-39 -78 -62 -104q-35 -38 -82 -38z" />
    <glyph glyph-name="ohungarumlaut.smallcap" horiz-adv-x="533" 
d="M263 -11q-101 0 -162 64.5t-61 159.5q0 104 75 184.5t187 80.5q99 0 160 -65t61 -160q0 -111 -77 -187.5t-183 -76.5zM260 -3q86 0 144.5 85.5t58.5 199.5q0 82 -43 134.5t-116 52.5q-89 0 -146.5 -87t-57.5 -199q0 -82 42.5 -134t117.5 -52zM340 491l155 187h58
l-209 -187h-4zM208 491l155 187h58l-209 -187h-4z" />
    <glyph glyph-name="oslash.smallcap" horiz-adv-x="533" 
d="M444 429q79 -66 79 -176q0 -111 -77 -187.5t-183 -76.5q-76 0 -134 40l-66 -84h-13q4 6 11.5 15.5t23 29t25.5 32.5l11 13q-81 65 -81 178q0 104 75 184.5t187 80.5q78 0 134 -43l63 80h13zM137 56l284 360q-43 53 -117 53q-89 0 -146.5 -87t-57.5 -199q0 -78 37 -127z
M427 407q-283 -360 -284 -360q45 -50 117 -50q86 0 144.5 85.5t58.5 199.5q0 77 -36 125z" />
    <glyph glyph-name="oslashacute.smallcap" horiz-adv-x="533" 
d="M444 429q79 -66 79 -176q0 -111 -77 -187.5t-183 -76.5q-76 0 -134 40l-66 -84h-13q4 6 11.5 15.5t23 29t25.5 32.5l11 13q-81 65 -81 178q0 104 75 184.5t187 80.5q78 0 134 -43l63 80h13zM137 56l284 360q-43 53 -117 53q-89 0 -146.5 -87t-57.5 -199q0 -78 37 -127z
M427 407q-283 -360 -284 -360q45 -50 117 -50q86 0 144.5 85.5t58.5 199.5q0 77 -36 125zM315 491l158 187h64l-218 -187h-4z" />
    <glyph glyph-name="oe.smallcap" horiz-adv-x="684" 
d="M252 0q-110 0 -164.5 63t-47.5 158q8 112 89.5 179.5t216.5 67.5h317l11 -131h-5l-4 11q-23 63 -44.5 87.5t-70.5 24.5h-80l-44 -211l53 2q47 1 63.5 12t34.5 47l5 10l6 -1l-32 -150l-6 1l2 10q8 38 -7 48t-72 12l-49 2l-50 -231l110 -2q25 -1 47 7t34.5 14.5t32.5 30
t25 30.5t28 39l7 10l6 -1l-60 -139h-352zM264 8h52l94 439l-69 13q-105 0 -167 -69t-71 -178q-8 -90 30.5 -147.5t130.5 -57.5z" />
    <glyph glyph-name="thorn.smallcap" horiz-adv-x="401" 
d="M-27 0l4 6l38 3q36 3 38 11l92 430v2t-1.5 2t-4.5 1.5t-7.5 1.5t-11.5 1.5t-17 1.5l-29 2l-1 6h209l-4 -6l-38 -3q-37 -3 -39 -11l-17 -83l65 1q71 0 111.5 -31t40.5 -79q0 -56 -47.5 -94t-125.5 -38q-40 0 -92 15l-26 -121q-1 -3 1.5 -4.5t12 -3t27.5 -2.5l37 -2l1 -6
h-216zM219 133q57 0 89 39t32 98q0 86 -98 86h-60l-43 -205q40 -18 80 -18z" />
    <glyph glyph-name="racute.smallcap" horiz-adv-x="458" 
d="M-27 0l4 6l38 3q12 1 24.5 4.5t13.5 6.5l92 430v2t-1.5 2t-4.5 1.5t-7.5 1.5t-11.5 1.5t-17 1.5l-29 2l-1 6h198q69 0 111.5 -31t42.5 -79q0 -50 -44 -84t-105 -38l73 -172q14 -33 27.5 -43.5t40.5 -13.5l10 -1l1 -6h-116l-96 238q-25 5 -54 20l-52 -240q-1 -3 13 -6
t28 -4l29 -2l1 -6h-208zM243 247q53 0 87.5 34.5t34.5 90.5q0 40 -27.5 63.5t-73.5 23.5h-60l-41 -193q41 -19 80 -19zM226 491l158 187h64l-218 -187h-4z" />
    <glyph glyph-name="rcommaaccent.smallcap" horiz-adv-x="458" 
d="M140 -273l-3 5q78 29 91 92q6 29 -11.5 43t-45.5 3q-7 21 9 39t44 15q27 -3 41.5 -24.5t7.5 -53.5q-8 -39 -46.5 -73.5t-86.5 -45.5zM-27 0l4 6l38 3q12 1 24.5 4.5t13.5 6.5l92 430v2t-1.5 2t-4.5 1.5t-7.5 1.5t-11.5 1.5t-17 1.5l-29 2l-1 6h198q69 0 111.5 -31
t42.5 -79q0 -50 -44 -84t-105 -38l73 -172q14 -33 27.5 -43.5t40.5 -13.5l10 -1l1 -6h-116l-96 238q-25 5 -54 20l-52 -240q-1 -3 13 -6t28 -4l29 -2l1 -6h-208zM243 247q53 0 87.5 34.5t34.5 90.5q0 40 -27.5 63.5t-73.5 23.5h-60l-41 -193q41 -19 80 -19z" />
    <glyph glyph-name="rcaron.smallcap" horiz-adv-x="458" 
d="M-27 0l4 6l38 3q12 1 24.5 4.5t13.5 6.5l92 430v2t-1.5 2t-4.5 1.5t-7.5 1.5t-11.5 1.5t-17 1.5l-29 2l-1 6h198q69 0 111.5 -31t42.5 -79q0 -50 -44 -84t-105 -38l73 -172q14 -33 27.5 -43.5t40.5 -13.5l10 -1l1 -6h-116l-96 238q-25 5 -54 20l-52 -240q-1 -3 13 -6
t28 -4l29 -2l1 -6h-208zM243 247q53 0 87.5 34.5t34.5 90.5q0 40 -27.5 63.5t-73.5 23.5h-60l-41 -193q41 -19 80 -19zM250 491l-82 177h4l89 -114h3l140 114h4l-155 -177h-3z" />
    <glyph glyph-name="sacute.smallcap" horiz-adv-x="356" 
d="M160 -11q-43 0 -85.5 14t-68.5 32l16 106l4 -1l8 -37q11 -50 44 -77.5t81 -27.5q53 0 85.5 29.5t32.5 78.5q0 36 -21 61t-75 58q-101 61 -101 129q0 54 39 89.5t103 35.5q56 0 104 -29l33 5l-20 -116l-4 1l-28 96q-33 35 -81 35q-45 0 -72 -26t-27 -65q0 -32 21.5 -56
t69.5 -53q53 -32 81 -64t28 -74q0 -59 -45.5 -101.5t-121.5 -42.5zM173 491l158 187h64l-218 -187h-4z" />
    <glyph glyph-name="scircumflex.smallcap" horiz-adv-x="356" 
d="M160 -11q-43 0 -85.5 14t-68.5 32l16 106l4 -1l8 -37q11 -50 44 -77.5t81 -27.5q53 0 85.5 29.5t32.5 78.5q0 36 -21 61t-75 58q-101 61 -101 129q0 54 39 89.5t103 35.5q56 0 104 -29l33 5l-20 -116l-4 1l-28 96q-33 35 -81 35q-45 0 -72 -26t-27 -65q0 -32 21.5 -56
t69.5 -53q53 -32 81 -64t28 -74q0 -59 -45.5 -101.5t-121.5 -42.5zM124 481l155 177h3l82 -177h-4l-89 114h-3l-140 -114h-4z" />
    <glyph glyph-name="scedilla.smallcap" horiz-adv-x="356" 
d="M-12 -234l-1 5q74 0 117.5 21.5t43.5 57.5q0 20 -19 32.5t-51 12.5q-18 0 -60 -9l2 6l110 99q-76 9 -124 44l16 106l4 -1l8 -37q11 -50 44 -77.5t81 -27.5q53 0 85.5 29.5t32.5 78.5q0 36 -21 61t-75 58q-101 61 -101 129q0 54 39 89.5t103 35.5q56 0 104 -29l33 5
l-20 -116l-4 1l-28 96q-33 35 -81 35q-45 0 -72 -26t-27 -65q0 -32 21.5 -56t69.5 -53q53 -32 81 -64t28 -74q0 -59 -45.5 -101.5t-121.5 -42.5q-4 0 -11.5 0.5t-10.5 0.5l-72 -65q55 7 86.5 -10.5t31.5 -49.5q0 -50 -56 -75.5t-140 -23.5z" />
    <glyph glyph-name="scommaaccent.smallcap" horiz-adv-x="356" 
d="M54 -274l-3 5q78 29 91 92q6 29 -11.5 43t-45.5 3q-7 21 9 39t44 15q27 -3 41.5 -24.5t7.5 -53.5q-8 -39 -46.5 -73.5t-86.5 -45.5zM160 -11q-43 0 -85.5 14t-68.5 32l16 106l4 -1l8 -37q11 -50 44 -77.5t81 -27.5q53 0 85.5 29.5t32.5 78.5q0 36 -21 61t-75 58
q-101 61 -101 129q0 54 39 89.5t103 35.5q56 0 104 -29l33 5l-20 -116l-4 1l-28 96q-33 35 -81 35q-45 0 -72 -26t-27 -65q0 -32 21.5 -56t69.5 -53q53 -32 81 -64t28 -74q0 -59 -45.5 -101.5t-121.5 -42.5z" />
    <glyph glyph-name="scaron.smallcap" horiz-adv-x="356" 
d="M160 -11q-43 0 -85.5 14t-68.5 32l16 106l4 -1l8 -37q11 -50 44 -77.5t81 -27.5q53 0 85.5 29.5t32.5 78.5q0 36 -21 61t-75 58q-101 61 -101 129q0 54 39 89.5t103 35.5q56 0 104 -29l33 5l-20 -116l-4 1l-28 96q-33 35 -81 35q-45 0 -72 -26t-27 -65q0 -32 21.5 -56
t69.5 -53q53 -32 81 -64t28 -74q0 -59 -45.5 -101.5t-121.5 -42.5zM238 481l-82 177h4l89 -114h3l140 114h4l-155 -177h-3z" />
    <glyph glyph-name="tcommaaccent.smallcap" horiz-adv-x="469" 
d="M99 -264l-3 5q78 29 91 92q6 29 -11.5 43t-45.5 3q-7 21 9 39t44 15q27 -3 41.5 -24.5t7.5 -53.5q-8 -39 -46.5 -73.5t-86.5 -45.5zM96 0l4 6l38 3q36 3 38 11l94 440h-62q-68 -6 -126 -104l-6 -10h-6l38 122h385l-14 -122h-4l-2 10q-12 58 -31 79.5t-61 24.5h-54
l-94 -442v-2t1.5 -2t4.5 -1.5t7.5 -1.5t11 -1.5t16.5 -1.5l29 -2l1 -6h-208z" />
    <glyph glyph-name="tcaron.smallcap" horiz-adv-x="469" 
d="M303 498l-82 177h4l89 -114h3l140 114h4l-155 -177h-3zM96 0l4 6l38 3q36 3 38 11l94 440h-62q-68 -6 -126 -104l-6 -10h-6l38 122h385l-14 -122h-4l-2 10q-12 58 -31 79.5t-61 24.5h-54l-94 -442v-2t1.5 -2t4.5 -1.5t7.5 -1.5t11 -1.5t16.5 -1.5l29 -2l1 -6h-208z" />
    <glyph glyph-name="ugrave.smallcap" horiz-adv-x="493" 
d="M252 -12q-81 0 -129.5 31.5t-48.5 92.5q0 24 8 61l59 277v2t-1.5 2t-4.5 1.5t-7.5 1.5t-11 1.5t-16.5 1.5l-30 2v6h208l-4 -6l-38 -3q-36 -3 -38 -11l-58 -275q-7 -37 -7 -55q0 -107 138 -107q114 0 147 154l58 273q2 9 -13.5 15t-47.5 8l-14 1l-1 6h162l-4 -6l-15 -1
q-53 -3 -57 -24l-59 -275q-18 -87 -60.5 -130.5t-114.5 -43.5zM380 521l-140 187h57l87 -187h-4z" />
    <glyph glyph-name="uacute.smallcap" horiz-adv-x="493" 
d="M252 -12q-81 0 -129.5 31.5t-48.5 92.5q0 24 8 61l59 277v2t-1.5 2t-4.5 1.5t-7.5 1.5t-11 1.5t-16.5 1.5l-30 2v6h208l-4 -6l-38 -3q-36 -3 -38 -11l-58 -275q-7 -37 -7 -55q0 -107 138 -107q114 0 147 154l58 273q2 9 -13.5 15t-47.5 8l-14 1l-1 6h162l-4 -6l-15 -1
q-53 -3 -57 -24l-59 -275q-18 -87 -60.5 -130.5t-114.5 -43.5zM314 521l158 187h64l-218 -187h-4z" />
    <glyph glyph-name="ucircumflex.smallcap" horiz-adv-x="493" 
d="M252 -12q-81 0 -129.5 31.5t-48.5 92.5q0 24 8 61l59 277v2t-1.5 2t-4.5 1.5t-7.5 1.5t-11 1.5t-16.5 1.5l-30 2v6h208l-4 -6l-38 -3q-36 -3 -38 -11l-58 -275q-7 -37 -7 -55q0 -107 138 -107q114 0 147 154l58 273q2 9 -13.5 15t-47.5 8l-14 1l-1 6h162l-4 -6l-15 -1
q-53 -3 -57 -24l-59 -275q-18 -87 -60.5 -130.5t-114.5 -43.5zM222 511l155 177h3l82 -177h-4l-89 114h-3l-140 -114h-4z" />
    <glyph glyph-name="udieresis.smallcap" horiz-adv-x="493" 
d="M252 -12q-81 0 -129.5 31.5t-48.5 92.5q0 24 8 61l59 277v2t-1.5 2t-4.5 1.5t-7.5 1.5t-11 1.5t-16.5 1.5l-30 2v6h208l-4 -6l-38 -3q-36 -3 -38 -11l-58 -275q-7 -37 -7 -55q0 -107 138 -107q114 0 147 154l58 273q2 9 -13.5 15t-47.5 8l-14 1l-1 6h162l-4 -6l-15 -1
q-53 -3 -57 -24l-59 -275q-18 -87 -60.5 -130.5t-114.5 -43.5zM413 539q-17 0 -27 12t-10 25q0 14 9.5 27.5t27.5 13.5t27.5 -13.5t9.5 -27.5q0 -13 -10 -25t-27 -12zM273 539q-17 0 -27 12t-10 25q0 14 9.5 27.5t27.5 13.5t27.5 -13.5t9.5 -27.5q0 -13 -10 -25t-27 -12z
" />
    <glyph glyph-name="umacron.smallcap" horiz-adv-x="493" 
d="M252 -12q-81 0 -129.5 31.5t-48.5 92.5q0 24 8 61l59 277v2t-1.5 2t-4.5 1.5t-7.5 1.5t-11 1.5t-16.5 1.5l-30 2v6h208l-4 -6l-38 -3q-36 -3 -38 -11l-58 -275q-7 -37 -7 -55q0 -107 138 -107q114 0 147 154l58 273q2 9 -13.5 15t-47.5 8l-14 1l-1 6h162l-4 -6l-15 -1
q-53 -3 -57 -24l-59 -275q-18 -87 -60.5 -130.5t-114.5 -43.5zM213 521l11 25h250l-11 -25h-250z" />
    <glyph glyph-name="ubreve.smallcap" horiz-adv-x="493" 
d="M252 -12q-81 0 -129.5 31.5t-48.5 92.5q0 24 8 61l59 277v2t-1.5 2t-4.5 1.5t-7.5 1.5t-11 1.5t-16.5 1.5l-30 2v6h208l-4 -6l-38 -3q-36 -3 -38 -11l-58 -275q-7 -37 -7 -55q0 -107 138 -107q114 0 147 154l58 273q2 9 -13.5 15t-47.5 8l-14 1l-1 6h162l-4 -6l-15 -1
q-53 -3 -57 -24l-59 -275q-18 -87 -60.5 -130.5t-114.5 -43.5zM335 486q-26 0 -43 12t-24.5 37t-9.5 43t-4 50h4q12 -51 30 -77.5t54 -26.5q64 0 133 104h4q-39 -78 -62 -104q-35 -38 -82 -38z" />
    <glyph glyph-name="uring.smallcap" horiz-adv-x="493" 
d="M252 -12q-81 0 -129.5 31.5t-48.5 92.5q0 24 8 61l59 277v2t-1.5 2t-4.5 1.5t-7.5 1.5t-11 1.5t-16.5 1.5l-30 2v6h208l-4 -6l-38 -3q-36 -3 -38 -11l-58 -275q-7 -37 -7 -55q0 -107 138 -107q114 0 147 154l58 273q2 9 -13.5 15t-47.5 8l-14 1l-1 6h162l-4 -6l-15 -1
q-53 -3 -57 -24l-59 -275q-18 -87 -60.5 -130.5t-114.5 -43.5zM348 498q-40 0 -64.5 26t-24.5 64q0 37 24.5 63.5t64.5 26.5t64.5 -26.5t24.5 -63.5q0 -38 -24.5 -64t-64.5 -26zM348 507q36 0 57.5 23.5t21.5 57.5t-21.5 57.5t-57.5 23.5t-57.5 -23.5t-21.5 -57.5
t21.5 -57.5t57.5 -23.5z" />
    </font>
</defs>
</svg>
